%TF.GenerationSoftware,KiCad,Pcbnew,10.0.2*%
%TF.CreationDate,2026-07-15T20:47:38+03:00*%
%TF.ProjectId,quasar_netted_co,71756173-6172-45f6-9e65-747465645f63,rev?*%
%TF.SameCoordinates,Original*%
%TF.FileFunction,Soldermask,Bot*%
%TF.FilePolarity,Negative*%
%FSLAX46Y46*%
G04 Gerber Fmt 4.6, Leading zero omitted, Abs format (unit mm)*
G04 Created by KiCad (PCBNEW 10.0.2) date 2026-07-15 20:47:38*
%MOMM*%
%LPD*%
G01*
G04 APERTURE LIST*
G04 Aperture macros list*
%AMRoundRect*
0 Rectangle with rounded corners*
0 $1 Rounding radius*
0 $2 $3 $4 $5 $6 $7 $8 $9 X,Y pos of 4 corners*
0 Add a 4 corners polygon primitive as box body*
4,1,4,$2,$3,$4,$5,$6,$7,$8,$9,$2,$3,0*
0 Add four circle primitives for the rounded corners*
1,1,$1+$1,$2,$3*
1,1,$1+$1,$4,$5*
1,1,$1+$1,$6,$7*
1,1,$1+$1,$8,$9*
0 Add four rect primitives between the rounded corners*
20,1,$1+$1,$2,$3,$4,$5,0*
20,1,$1+$1,$4,$5,$6,$7,0*
20,1,$1+$1,$6,$7,$8,$9,0*
20,1,$1+$1,$8,$9,$2,$3,0*%
%AMRotRect*
0 Rectangle, with rotation*
0 The origin of the aperture is its center*
0 $1 length*
0 $2 width*
0 $3 Rotation angle, in degrees counterclockwise*
0 Add horizontal line*
21,1,$1,$2,0,0,$3*%
G04 Aperture macros list end*
%ADD10C,0.650000*%
%ADD11O,1.000000X2.100000*%
%ADD12O,1.000000X1.800000*%
%ADD13C,1.400000*%
%ADD14R,1.700000X1.700000*%
%ADD15C,1.700000*%
%ADD16C,2.000000*%
%ADD17R,1.070000X1.800000*%
%ADD18O,1.070000X1.800000*%
%ADD19RoundRect,0.250000X0.250000X0.475000X-0.250000X0.475000X-0.250000X-0.475000X0.250000X-0.475000X0*%
%ADD20RoundRect,0.250000X0.262500X0.450000X-0.262500X0.450000X-0.262500X-0.450000X0.262500X-0.450000X0*%
%ADD21RoundRect,0.250000X-0.250000X-0.475000X0.250000X-0.475000X0.250000X0.475000X-0.250000X0.475000X0*%
%ADD22RoundRect,0.250000X0.275000X0.250000X-0.275000X0.250000X-0.275000X-0.250000X0.275000X-0.250000X0*%
%ADD23RoundRect,0.250000X0.850000X0.275000X-0.850000X0.275000X-0.850000X-0.275000X0.850000X-0.275000X0*%
%ADD24O,2.504000X1.004000*%
%ADD25RoundRect,0.250000X-0.475000X0.250000X-0.475000X-0.250000X0.475000X-0.250000X0.475000X0.250000X0*%
%ADD26R,1.500000X4.290000*%
%ADD27R,1.499996X4.289998*%
%ADD28R,1.500000X4.289996*%
%ADD29RoundRect,0.250000X0.475000X-0.250000X0.475000X0.250000X-0.475000X0.250000X-0.475000X-0.250000X0*%
%ADD30R,0.700000X0.250000*%
%ADD31R,1.780000X2.350000*%
%ADD32R,1.400000X0.700000*%
%ADD33R,1.200000X0.700000*%
%ADD34R,0.800000X1.200000*%
%ADD35R,1.900000X1.500000*%
%ADD36RotRect,0.200000X0.200000X225.000000*%
%ADD37R,0.500000X0.500000*%
%ADD38R,1.400000X1.000000*%
%ADD39R,3.200000X1.200000*%
%ADD40R,1.200000X1.200000*%
%ADD41RoundRect,0.250000X-1.000000X-0.650000X1.000000X-0.650000X1.000000X0.650000X-1.000000X0.650000X0*%
%ADD42RoundRect,0.250000X-0.262500X-0.450000X0.262500X-0.450000X0.262500X0.450000X-0.262500X0.450000X0*%
%ADD43RoundRect,0.250000X-0.450000X0.262500X-0.450000X-0.262500X0.450000X-0.262500X0.450000X0.262500X0*%
%ADD44RoundRect,0.150000X0.150000X0.200000X-0.150000X0.200000X-0.150000X-0.200000X0.150000X-0.200000X0*%
%ADD45R,1.200000X0.400000*%
%ADD46RoundRect,0.218750X0.218750X0.381250X-0.218750X0.381250X-0.218750X-0.381250X0.218750X-0.381250X0*%
%ADD47RoundRect,0.150000X0.150000X-0.587500X0.150000X0.587500X-0.150000X0.587500X-0.150000X-0.587500X0*%
G04 APERTURE END LIST*
%TO.C,J5*%
G36*
X115125000Y-77885000D02*
G01*
X117215000Y-77885000D01*
X117215000Y-79765000D01*
X115125000Y-79765000D01*
X115125000Y-77885000D01*
G37*
%TD*%
D10*
%TO.C,J1*%
X161815000Y-122845000D03*
X167595000Y-122845000D03*
D11*
X160385000Y-122345000D03*
D12*
X160385000Y-126525000D03*
D11*
X169025000Y-122345000D03*
D12*
X169025000Y-126525000D03*
%TD*%
D13*
%TO.C,REF\u002A\u002A*%
X161500000Y-88500000D03*
X164040000Y-88500000D03*
%TD*%
D14*
%TO.C,J6*%
X115920000Y-70000000D03*
D15*
X118460000Y-70000000D03*
X121000000Y-70000000D03*
X123540000Y-70000000D03*
X126080000Y-70000000D03*
X128620000Y-70000000D03*
X131160000Y-70000000D03*
X133700000Y-70000000D03*
%TD*%
D16*
%TO.C,SW1*%
X93500000Y-60750000D03*
X100000000Y-60750000D03*
X93500000Y-65250000D03*
X100000000Y-65250000D03*
%TD*%
%TO.C,SW5*%
X156550000Y-60750000D03*
X163050000Y-60750000D03*
X156550000Y-65250000D03*
X163050000Y-65250000D03*
%TD*%
%TO.C,SW6*%
X93500000Y-100250000D03*
X100000000Y-100250000D03*
X93500000Y-104750000D03*
X100000000Y-104750000D03*
%TD*%
D17*
%TO.C,D5*%
X111460000Y-61500000D03*
D18*
X112730000Y-61500000D03*
X114000000Y-61500000D03*
X115270000Y-61500000D03*
%TD*%
D16*
%TO.C,SW4*%
X93500000Y-87750000D03*
X100000000Y-87750000D03*
X93500000Y-92250000D03*
X100000000Y-92250000D03*
%TD*%
D10*
%TO.C,J2*%
X174685000Y-122870000D03*
X180465000Y-122870000D03*
D11*
X173255000Y-122370000D03*
D12*
X173255000Y-126550000D03*
D11*
X181895000Y-122370000D03*
D12*
X181895000Y-126550000D03*
%TD*%
D16*
%TO.C,SW3*%
X145750000Y-60750000D03*
X152250000Y-60750000D03*
X145750000Y-65250000D03*
X152250000Y-65250000D03*
%TD*%
D13*
%TO.C,MK1*%
X153500000Y-87800000D03*
X156040000Y-87800000D03*
%TD*%
%TO.C,LS1*%
X151750000Y-82050000D03*
X154290000Y-82050000D03*
%TD*%
D16*
%TO.C,SW2*%
X93500000Y-75750000D03*
X100000000Y-75750000D03*
X93500000Y-80250000D03*
X100000000Y-80250000D03*
%TD*%
D19*
%TO.C,C14*%
X167650000Y-91400000D03*
X165750000Y-91400000D03*
%TD*%
D20*
%TO.C,R22*%
X114212500Y-87200000D03*
X112387500Y-87200000D03*
%TD*%
D19*
%TO.C,C25*%
X188700000Y-91225000D03*
X186800000Y-91225000D03*
%TD*%
D21*
%TO.C,C32*%
X186575000Y-79325000D03*
X188475000Y-79325000D03*
%TD*%
D20*
%TO.C,R24*%
X122912500Y-88800000D03*
X121087500Y-88800000D03*
%TD*%
%TO.C,R25*%
X119712500Y-86800000D03*
X117887500Y-86800000D03*
%TD*%
D19*
%TO.C,C33*%
X188500000Y-81350000D03*
X186600000Y-81350000D03*
%TD*%
D13*
%TO.C,M1*%
X121620000Y-92050000D03*
X119080000Y-92050000D03*
%TD*%
D20*
%TO.C,R19*%
X152712500Y-92300000D03*
X150887500Y-92300000D03*
%TD*%
D19*
%TO.C,C40*%
X130900000Y-93500000D03*
X129000000Y-93500000D03*
%TD*%
D21*
%TO.C,C27*%
X102750000Y-95100000D03*
X104650000Y-95100000D03*
%TD*%
D20*
%TO.C,R21*%
X120162500Y-67750000D03*
X118337500Y-67750000D03*
%TD*%
D21*
%TO.C,C28*%
X111400000Y-77300000D03*
X113300000Y-77300000D03*
%TD*%
D20*
%TO.C,R23*%
X125212500Y-85000000D03*
X123387500Y-85000000D03*
%TD*%
D22*
%TO.C,J5*%
X117750000Y-78825000D03*
D23*
X116225000Y-80300000D03*
X116225000Y-77350000D03*
%TD*%
D21*
%TO.C,C31*%
X114800000Y-66500000D03*
X116700000Y-66500000D03*
%TD*%
D24*
%TO.C,U15*%
X130950000Y-73833500D03*
X130950000Y-74953500D03*
X130950000Y-76073500D03*
X130950000Y-77193500D03*
X130950000Y-78313500D03*
X130950000Y-79433500D03*
X130950000Y-80553500D03*
X130950000Y-81673500D03*
X130950000Y-82793500D03*
X121050000Y-82793500D03*
X121050000Y-81673500D03*
X121050000Y-80553500D03*
X121050000Y-79433500D03*
X121050000Y-78313500D03*
X121050000Y-77193500D03*
X121050000Y-76073500D03*
X121050000Y-74953500D03*
X121050000Y-73833500D03*
%TD*%
D25*
%TO.C,C38*%
X184850000Y-81750000D03*
X184850000Y-83650000D03*
%TD*%
D26*
%TO.C,J12*%
X122300000Y-60395000D03*
D27*
X126549998Y-60394999D03*
D28*
X118050000Y-60394998D03*
%TD*%
D20*
%TO.C,R17*%
X113412500Y-98000000D03*
X111587500Y-98000000D03*
%TD*%
D21*
%TO.C,C29*%
X102550000Y-84100000D03*
X104450000Y-84100000D03*
%TD*%
%TO.C,C30*%
X119200000Y-97700000D03*
X121100000Y-97700000D03*
%TD*%
D20*
%TO.C,R20*%
X121012500Y-100000000D03*
X119187500Y-100000000D03*
%TD*%
D29*
%TO.C,C19*%
X157325000Y-126350000D03*
X157325000Y-124450000D03*
%TD*%
D14*
%TO.C,J7*%
X189050000Y-118850000D03*
D15*
X186510000Y-118850000D03*
X183970000Y-118850000D03*
%TD*%
D30*
%TO.C,U12*%
X158780000Y-90712500D03*
X158780000Y-91112500D03*
X158780000Y-91512500D03*
X158780000Y-91912500D03*
X158780000Y-92312500D03*
X158780000Y-92712500D03*
X158780000Y-93112500D03*
X155830000Y-93112500D03*
X155830000Y-92712500D03*
X155830000Y-92312500D03*
X155830000Y-91912500D03*
X155830000Y-91512500D03*
X155830000Y-91112500D03*
X155830000Y-90712500D03*
D31*
X157305000Y-91912500D03*
%TD*%
D19*
%TO.C,C41*%
X134200000Y-97500000D03*
X132300000Y-97500000D03*
%TD*%
D32*
%TO.C,J4*%
X174410000Y-106065000D03*
X174410000Y-107165000D03*
X174410000Y-108265000D03*
X174410000Y-109365000D03*
X174410000Y-110465000D03*
X174410000Y-111565000D03*
X174410000Y-112665000D03*
X174410000Y-113765000D03*
D33*
X174310000Y-114715000D03*
D34*
X184810000Y-115565000D03*
D35*
X189410000Y-102265000D03*
D36*
X189860000Y-103015000D03*
D37*
X190110000Y-103265000D03*
D38*
X174410000Y-104165000D03*
D39*
X188410000Y-115565000D03*
D40*
X178610000Y-115565000D03*
%TD*%
D41*
%TO.C,D3*%
X121000000Y-94700000D03*
X125000000Y-94700000D03*
%TD*%
D42*
%TO.C,R18*%
X111587500Y-102500000D03*
X113412500Y-102500000D03*
%TD*%
D43*
%TO.C,R8*%
X188600000Y-83237500D03*
X188600000Y-85062500D03*
%TD*%
D42*
%TO.C,R29*%
X145387500Y-100800000D03*
X147212500Y-100800000D03*
%TD*%
D19*
%TO.C,C39*%
X187875000Y-87700000D03*
X185975000Y-87700000D03*
%TD*%
D44*
%TO.C,D6*%
X125300000Y-97500000D03*
X126700000Y-97500000D03*
%TD*%
D45*
%TO.C,U16*%
X141900000Y-90457500D03*
X141900000Y-91092500D03*
X141900000Y-91727500D03*
X141900000Y-92362500D03*
X141900000Y-92997500D03*
X141900000Y-93632500D03*
X141900000Y-94267500D03*
X141900000Y-94902500D03*
X141900000Y-95537500D03*
X141900000Y-96172500D03*
X141900000Y-96807500D03*
X141900000Y-97442500D03*
X136700000Y-97442500D03*
X136700000Y-96807500D03*
X136700000Y-96172500D03*
X136700000Y-95537500D03*
X136700000Y-94902500D03*
X136700000Y-94267500D03*
X136700000Y-93632500D03*
X136700000Y-92997500D03*
X136700000Y-92362500D03*
X136700000Y-91727500D03*
X136700000Y-91092500D03*
X136700000Y-90457500D03*
%TD*%
D21*
%TO.C,C26*%
X116350000Y-82700000D03*
X118250000Y-82700000D03*
%TD*%
D46*
%TO.C,L6*%
X132312500Y-95500000D03*
X130187500Y-95500000D03*
%TD*%
D19*
%TO.C,C17*%
X152900000Y-106100000D03*
X151000000Y-106100000D03*
%TD*%
D47*
%TO.C,Q2*%
X113450000Y-93937500D03*
X111550000Y-93937500D03*
X112500000Y-92062500D03*
%TD*%
D19*
%TO.C,C23*%
X127575000Y-90125000D03*
X125675000Y-90125000D03*
%TD*%
D46*
%TO.C,L7*%
X130562500Y-97500000D03*
X128437500Y-97500000D03*
%TD*%
D21*
%TO.C,C20*%
X158100000Y-88600000D03*
X160000000Y-88600000D03*
%TD*%
M02*
