%TF.GenerationSoftware,KiCad,Pcbnew,10.0.2*%
%TF.CreationDate,2026-07-15T20:47:38+03:00*%
%TF.ProjectId,quasar_netted_co,71756173-6172-45f6-9e65-747465645f63,rev?*%
%TF.SameCoordinates,Original*%
%TF.FileFunction,Legend,Top*%
%TF.FilePolarity,Positive*%
%FSLAX46Y46*%
G04 Gerber Fmt 4.6, Leading zero omitted, Abs format (unit mm)*
G04 Created by KiCad (PCBNEW 10.0.2) date 2026-07-15 20:47:38*
%MOMM*%
%LPD*%
G01*
G04 APERTURE LIST*
%ADD10C,0.100000*%
%ADD11C,0.087500*%
%ADD12C,0.150000*%
%ADD13C,0.250000*%
%ADD14C,0.300000*%
%ADD15C,0.600000*%
%ADD16C,0.120000*%
%ADD17C,0.000000*%
G04 APERTURE END LIST*
D10*
X107290000Y-68450000D02*
X141790000Y-68450000D01*
X141790000Y-73450000D01*
X107290000Y-73450000D01*
X107290000Y-68450000D01*
X107290000Y-73450000D02*
X141790000Y-73450000D01*
X141790000Y-108950000D01*
X107290000Y-108950000D01*
X107290000Y-73450000D01*
X107290000Y-108950000D02*
X141790000Y-108950000D01*
X141790000Y-112700000D01*
X107290000Y-112700000D01*
X107290000Y-108950000D01*
X116950000Y-58650000D02*
G75*
G02*
X117450000Y-58150000I500000J0D01*
G01*
X116950000Y-66250000D02*
X116950000Y-58650000D01*
X117450000Y-58150000D02*
X127150000Y-58150000D01*
X117450000Y-66750000D02*
G75*
G02*
X116950000Y-66250000I0J500000D01*
G01*
X127150000Y-58150000D02*
G75*
G02*
X127650000Y-58650000I0J-500000D01*
G01*
X127150000Y-66750000D02*
X117450000Y-66750000D01*
X127650000Y-58650000D02*
X127650000Y-66250000D01*
X127650000Y-66250000D02*
G75*
G02*
X127150000Y-66750000I-500000J0D01*
G01*
X186241844Y-62900000D02*
X186416559Y-62900000D01*
X171142657Y-127734211D02*
X171142657Y-127277068D01*
X171142657Y-127277068D02*
X171142657Y-126819925D01*
X171142657Y-126819925D02*
X171142657Y-126362782D01*
X171142657Y-126362782D02*
X171142657Y-125905639D01*
X171142657Y-125905639D02*
X171142657Y-125448496D01*
X171142657Y-125448496D02*
X171142657Y-124991353D01*
X171142657Y-124991353D02*
X171142657Y-124534210D01*
X171142657Y-124534210D02*
X171142657Y-124077067D01*
X171142657Y-124077067D02*
X171142657Y-123619924D01*
X171142657Y-123619924D02*
X171142657Y-123162781D01*
X171142657Y-123162781D02*
X171142657Y-122705638D01*
X171142657Y-122705638D02*
X171142657Y-122248495D01*
X171142657Y-122248495D02*
X171142657Y-121791352D01*
X171142657Y-121791352D02*
X171142657Y-121334209D01*
X171142657Y-121334209D02*
X171142657Y-120877066D01*
D11*
X170448041Y-119578497D02*
X170714707Y-119578497D01*
X170828993Y-119997545D02*
X170448041Y-119997545D01*
X170448041Y-119997545D02*
X170448041Y-119197545D01*
X170448041Y-119197545D02*
X170828993Y-119197545D01*
X171133755Y-119959450D02*
X171248041Y-119997545D01*
X171248041Y-119997545D02*
X171438517Y-119997545D01*
X171438517Y-119997545D02*
X171514708Y-119959450D01*
X171514708Y-119959450D02*
X171552803Y-119921354D01*
X171552803Y-119921354D02*
X171590898Y-119845164D01*
X171590898Y-119845164D02*
X171590898Y-119768973D01*
X171590898Y-119768973D02*
X171552803Y-119692783D01*
X171552803Y-119692783D02*
X171514708Y-119654688D01*
X171514708Y-119654688D02*
X171438517Y-119616592D01*
X171438517Y-119616592D02*
X171286136Y-119578497D01*
X171286136Y-119578497D02*
X171209946Y-119540402D01*
X171209946Y-119540402D02*
X171171851Y-119502307D01*
X171171851Y-119502307D02*
X171133755Y-119426116D01*
X171133755Y-119426116D02*
X171133755Y-119349926D01*
X171133755Y-119349926D02*
X171171851Y-119273735D01*
X171171851Y-119273735D02*
X171209946Y-119235640D01*
X171209946Y-119235640D02*
X171286136Y-119197545D01*
X171286136Y-119197545D02*
X171476613Y-119197545D01*
X171476613Y-119197545D02*
X171590898Y-119235640D01*
X171933756Y-119997545D02*
X171933756Y-119197545D01*
X171933756Y-119197545D02*
X172238518Y-119197545D01*
X172238518Y-119197545D02*
X172314708Y-119235640D01*
X172314708Y-119235640D02*
X172352803Y-119273735D01*
X172352803Y-119273735D02*
X172390899Y-119349926D01*
X172390899Y-119349926D02*
X172390899Y-119464211D01*
X172390899Y-119464211D02*
X172352803Y-119540402D01*
X172352803Y-119540402D02*
X172314708Y-119578497D01*
X172314708Y-119578497D02*
X172238518Y-119616592D01*
X172238518Y-119616592D02*
X171933756Y-119616592D01*
X172657565Y-119197545D02*
X173152803Y-119197545D01*
X173152803Y-119197545D02*
X172886137Y-119502307D01*
X172886137Y-119502307D02*
X173000422Y-119502307D01*
X173000422Y-119502307D02*
X173076613Y-119540402D01*
X173076613Y-119540402D02*
X173114708Y-119578497D01*
X173114708Y-119578497D02*
X173152803Y-119654688D01*
X173152803Y-119654688D02*
X173152803Y-119845164D01*
X173152803Y-119845164D02*
X173114708Y-119921354D01*
X173114708Y-119921354D02*
X173076613Y-119959450D01*
X173076613Y-119959450D02*
X173000422Y-119997545D01*
X173000422Y-119997545D02*
X172771851Y-119997545D01*
X172771851Y-119997545D02*
X172695660Y-119959450D01*
X172695660Y-119959450D02*
X172657565Y-119921354D01*
X173457565Y-119273735D02*
X173495661Y-119235640D01*
X173495661Y-119235640D02*
X173571851Y-119197545D01*
X173571851Y-119197545D02*
X173762327Y-119197545D01*
X173762327Y-119197545D02*
X173838518Y-119235640D01*
X173838518Y-119235640D02*
X173876613Y-119273735D01*
X173876613Y-119273735D02*
X173914708Y-119349926D01*
X173914708Y-119349926D02*
X173914708Y-119426116D01*
X173914708Y-119426116D02*
X173876613Y-119540402D01*
X173876613Y-119540402D02*
X173419470Y-119997545D01*
X173419470Y-119997545D02*
X173914708Y-119997545D01*
X174867090Y-119997545D02*
X174867090Y-119197545D01*
X174867090Y-119197545D02*
X175057566Y-119197545D01*
X175057566Y-119197545D02*
X175171852Y-119235640D01*
X175171852Y-119235640D02*
X175248042Y-119311830D01*
X175248042Y-119311830D02*
X175286137Y-119388021D01*
X175286137Y-119388021D02*
X175324233Y-119540402D01*
X175324233Y-119540402D02*
X175324233Y-119654688D01*
X175324233Y-119654688D02*
X175286137Y-119807069D01*
X175286137Y-119807069D02*
X175248042Y-119883259D01*
X175248042Y-119883259D02*
X175171852Y-119959450D01*
X175171852Y-119959450D02*
X175057566Y-119997545D01*
X175057566Y-119997545D02*
X174867090Y-119997545D01*
X176009947Y-119997545D02*
X176009947Y-119578497D01*
X176009947Y-119578497D02*
X175971852Y-119502307D01*
X175971852Y-119502307D02*
X175895661Y-119464211D01*
X175895661Y-119464211D02*
X175743280Y-119464211D01*
X175743280Y-119464211D02*
X175667090Y-119502307D01*
X176009947Y-119959450D02*
X175933756Y-119997545D01*
X175933756Y-119997545D02*
X175743280Y-119997545D01*
X175743280Y-119997545D02*
X175667090Y-119959450D01*
X175667090Y-119959450D02*
X175628994Y-119883259D01*
X175628994Y-119883259D02*
X175628994Y-119807069D01*
X175628994Y-119807069D02*
X175667090Y-119730878D01*
X175667090Y-119730878D02*
X175743280Y-119692783D01*
X175743280Y-119692783D02*
X175933756Y-119692783D01*
X175933756Y-119692783D02*
X176009947Y-119654688D01*
X176276614Y-119464211D02*
X176581376Y-119464211D01*
X176390900Y-119197545D02*
X176390900Y-119883259D01*
X176390900Y-119883259D02*
X176428995Y-119959450D01*
X176428995Y-119959450D02*
X176505185Y-119997545D01*
X176505185Y-119997545D02*
X176581376Y-119997545D01*
X177190900Y-119997545D02*
X177190900Y-119578497D01*
X177190900Y-119578497D02*
X177152805Y-119502307D01*
X177152805Y-119502307D02*
X177076614Y-119464211D01*
X177076614Y-119464211D02*
X176924233Y-119464211D01*
X176924233Y-119464211D02*
X176848043Y-119502307D01*
X177190900Y-119959450D02*
X177114709Y-119997545D01*
X177114709Y-119997545D02*
X176924233Y-119997545D01*
X176924233Y-119997545D02*
X176848043Y-119959450D01*
X176848043Y-119959450D02*
X176809947Y-119883259D01*
X176809947Y-119883259D02*
X176809947Y-119807069D01*
X176809947Y-119807069D02*
X176848043Y-119730878D01*
X176848043Y-119730878D02*
X176924233Y-119692783D01*
X176924233Y-119692783D02*
X177114709Y-119692783D01*
X177114709Y-119692783D02*
X177190900Y-119654688D01*
X177571853Y-119692783D02*
X178181377Y-119692783D01*
X177876615Y-119997545D02*
X177876615Y-119388021D01*
X178828995Y-119578497D02*
X178943281Y-119616592D01*
X178943281Y-119616592D02*
X178981376Y-119654688D01*
X178981376Y-119654688D02*
X179019472Y-119730878D01*
X179019472Y-119730878D02*
X179019472Y-119845164D01*
X179019472Y-119845164D02*
X178981376Y-119921354D01*
X178981376Y-119921354D02*
X178943281Y-119959450D01*
X178943281Y-119959450D02*
X178867091Y-119997545D01*
X178867091Y-119997545D02*
X178562329Y-119997545D01*
X178562329Y-119997545D02*
X178562329Y-119197545D01*
X178562329Y-119197545D02*
X178828995Y-119197545D01*
X178828995Y-119197545D02*
X178905186Y-119235640D01*
X178905186Y-119235640D02*
X178943281Y-119273735D01*
X178943281Y-119273735D02*
X178981376Y-119349926D01*
X178981376Y-119349926D02*
X178981376Y-119426116D01*
X178981376Y-119426116D02*
X178943281Y-119502307D01*
X178943281Y-119502307D02*
X178905186Y-119540402D01*
X178905186Y-119540402D02*
X178828995Y-119578497D01*
X178828995Y-119578497D02*
X178562329Y-119578497D01*
X179705186Y-119997545D02*
X179705186Y-119578497D01*
X179705186Y-119578497D02*
X179667091Y-119502307D01*
X179667091Y-119502307D02*
X179590900Y-119464211D01*
X179590900Y-119464211D02*
X179438519Y-119464211D01*
X179438519Y-119464211D02*
X179362329Y-119502307D01*
X179705186Y-119959450D02*
X179628995Y-119997545D01*
X179628995Y-119997545D02*
X179438519Y-119997545D01*
X179438519Y-119997545D02*
X179362329Y-119959450D01*
X179362329Y-119959450D02*
X179324233Y-119883259D01*
X179324233Y-119883259D02*
X179324233Y-119807069D01*
X179324233Y-119807069D02*
X179362329Y-119730878D01*
X179362329Y-119730878D02*
X179438519Y-119692783D01*
X179438519Y-119692783D02*
X179628995Y-119692783D01*
X179628995Y-119692783D02*
X179705186Y-119654688D01*
X179971853Y-119464211D02*
X180276615Y-119464211D01*
X180086139Y-119197545D02*
X180086139Y-119883259D01*
X180086139Y-119883259D02*
X180124234Y-119959450D01*
X180124234Y-119959450D02*
X180200424Y-119997545D01*
X180200424Y-119997545D02*
X180276615Y-119997545D01*
X180428996Y-119464211D02*
X180733758Y-119464211D01*
X180543282Y-119197545D02*
X180543282Y-119883259D01*
X180543282Y-119883259D02*
X180581377Y-119959450D01*
X180581377Y-119959450D02*
X180657567Y-119997545D01*
X180657567Y-119997545D02*
X180733758Y-119997545D01*
X182067092Y-119921354D02*
X182028996Y-119959450D01*
X182028996Y-119959450D02*
X181914711Y-119997545D01*
X181914711Y-119997545D02*
X181838520Y-119997545D01*
X181838520Y-119997545D02*
X181724234Y-119959450D01*
X181724234Y-119959450D02*
X181648044Y-119883259D01*
X181648044Y-119883259D02*
X181609949Y-119807069D01*
X181609949Y-119807069D02*
X181571853Y-119654688D01*
X181571853Y-119654688D02*
X181571853Y-119540402D01*
X181571853Y-119540402D02*
X181609949Y-119388021D01*
X181609949Y-119388021D02*
X181648044Y-119311830D01*
X181648044Y-119311830D02*
X181724234Y-119235640D01*
X181724234Y-119235640D02*
X181838520Y-119197545D01*
X181838520Y-119197545D02*
X181914711Y-119197545D01*
X181914711Y-119197545D02*
X182028996Y-119235640D01*
X182028996Y-119235640D02*
X182067092Y-119273735D01*
X182409949Y-119997545D02*
X182409949Y-119197545D01*
X182409949Y-119578497D02*
X182867092Y-119578497D01*
X182867092Y-119997545D02*
X182867092Y-119197545D01*
X183705187Y-119997545D02*
X183438520Y-119616592D01*
X183248044Y-119997545D02*
X183248044Y-119197545D01*
X183248044Y-119197545D02*
X183552806Y-119197545D01*
X183552806Y-119197545D02*
X183628996Y-119235640D01*
X183628996Y-119235640D02*
X183667091Y-119273735D01*
X183667091Y-119273735D02*
X183705187Y-119349926D01*
X183705187Y-119349926D02*
X183705187Y-119464211D01*
X183705187Y-119464211D02*
X183667091Y-119540402D01*
X183667091Y-119540402D02*
X183628996Y-119578497D01*
X183628996Y-119578497D02*
X183552806Y-119616592D01*
X183552806Y-119616592D02*
X183248044Y-119616592D01*
D10*
X155814285Y-81582749D02*
X155776189Y-81620845D01*
X155776189Y-81620845D02*
X155661904Y-81658940D01*
X155661904Y-81658940D02*
X155585713Y-81658940D01*
X155585713Y-81658940D02*
X155471427Y-81620845D01*
X155471427Y-81620845D02*
X155395237Y-81544654D01*
X155395237Y-81544654D02*
X155357142Y-81468464D01*
X155357142Y-81468464D02*
X155319046Y-81316083D01*
X155319046Y-81316083D02*
X155319046Y-81201797D01*
X155319046Y-81201797D02*
X155357142Y-81049416D01*
X155357142Y-81049416D02*
X155395237Y-80973225D01*
X155395237Y-80973225D02*
X155471427Y-80897035D01*
X155471427Y-80897035D02*
X155585713Y-80858940D01*
X155585713Y-80858940D02*
X155661904Y-80858940D01*
X155661904Y-80858940D02*
X155776189Y-80897035D01*
X155776189Y-80897035D02*
X155814285Y-80935130D01*
X156271427Y-81658940D02*
X156195237Y-81620845D01*
X156195237Y-81620845D02*
X156157142Y-81582749D01*
X156157142Y-81582749D02*
X156119046Y-81506559D01*
X156119046Y-81506559D02*
X156119046Y-81277987D01*
X156119046Y-81277987D02*
X156157142Y-81201797D01*
X156157142Y-81201797D02*
X156195237Y-81163702D01*
X156195237Y-81163702D02*
X156271427Y-81125606D01*
X156271427Y-81125606D02*
X156385713Y-81125606D01*
X156385713Y-81125606D02*
X156461904Y-81163702D01*
X156461904Y-81163702D02*
X156499999Y-81201797D01*
X156499999Y-81201797D02*
X156538094Y-81277987D01*
X156538094Y-81277987D02*
X156538094Y-81506559D01*
X156538094Y-81506559D02*
X156499999Y-81582749D01*
X156499999Y-81582749D02*
X156461904Y-81620845D01*
X156461904Y-81620845D02*
X156385713Y-81658940D01*
X156385713Y-81658940D02*
X156271427Y-81658940D01*
X156880952Y-81125606D02*
X156880952Y-81658940D01*
X156880952Y-81201797D02*
X156919047Y-81163702D01*
X156919047Y-81163702D02*
X156995237Y-81125606D01*
X156995237Y-81125606D02*
X157109523Y-81125606D01*
X157109523Y-81125606D02*
X157185714Y-81163702D01*
X157185714Y-81163702D02*
X157223809Y-81239892D01*
X157223809Y-81239892D02*
X157223809Y-81658940D01*
X157604762Y-81125606D02*
X157604762Y-81658940D01*
X157604762Y-81201797D02*
X157642857Y-81163702D01*
X157642857Y-81163702D02*
X157719047Y-81125606D01*
X157719047Y-81125606D02*
X157833333Y-81125606D01*
X157833333Y-81125606D02*
X157909524Y-81163702D01*
X157909524Y-81163702D02*
X157947619Y-81239892D01*
X157947619Y-81239892D02*
X157947619Y-81658940D01*
X159052381Y-81201797D02*
X158976191Y-81163702D01*
X158976191Y-81163702D02*
X158938096Y-81125606D01*
X158938096Y-81125606D02*
X158900000Y-81049416D01*
X158900000Y-81049416D02*
X158900000Y-81011321D01*
X158900000Y-81011321D02*
X158938096Y-80935130D01*
X158938096Y-80935130D02*
X158976191Y-80897035D01*
X158976191Y-80897035D02*
X159052381Y-80858940D01*
X159052381Y-80858940D02*
X159204762Y-80858940D01*
X159204762Y-80858940D02*
X159280953Y-80897035D01*
X159280953Y-80897035D02*
X159319048Y-80935130D01*
X159319048Y-80935130D02*
X159357143Y-81011321D01*
X159357143Y-81011321D02*
X159357143Y-81049416D01*
X159357143Y-81049416D02*
X159319048Y-81125606D01*
X159319048Y-81125606D02*
X159280953Y-81163702D01*
X159280953Y-81163702D02*
X159204762Y-81201797D01*
X159204762Y-81201797D02*
X159052381Y-81201797D01*
X159052381Y-81201797D02*
X158976191Y-81239892D01*
X158976191Y-81239892D02*
X158938096Y-81277987D01*
X158938096Y-81277987D02*
X158900000Y-81354178D01*
X158900000Y-81354178D02*
X158900000Y-81506559D01*
X158900000Y-81506559D02*
X158938096Y-81582749D01*
X158938096Y-81582749D02*
X158976191Y-81620845D01*
X158976191Y-81620845D02*
X159052381Y-81658940D01*
X159052381Y-81658940D02*
X159204762Y-81658940D01*
X159204762Y-81658940D02*
X159280953Y-81620845D01*
X159280953Y-81620845D02*
X159319048Y-81582749D01*
X159319048Y-81582749D02*
X159357143Y-81506559D01*
X159357143Y-81506559D02*
X159357143Y-81354178D01*
X159357143Y-81354178D02*
X159319048Y-81277987D01*
X159319048Y-81277987D02*
X159280953Y-81239892D01*
X159280953Y-81239892D02*
X159204762Y-81201797D01*
X159661905Y-81658940D02*
X159852382Y-81658940D01*
X159852382Y-81658940D02*
X159852382Y-81506559D01*
X159852382Y-81506559D02*
X159776191Y-81468464D01*
X159776191Y-81468464D02*
X159700001Y-81392273D01*
X159700001Y-81392273D02*
X159661905Y-81277987D01*
X159661905Y-81277987D02*
X159661905Y-81087511D01*
X159661905Y-81087511D02*
X159700001Y-80973225D01*
X159700001Y-80973225D02*
X159776191Y-80897035D01*
X159776191Y-80897035D02*
X159890477Y-80858940D01*
X159890477Y-80858940D02*
X160042858Y-80858940D01*
X160042858Y-80858940D02*
X160157144Y-80897035D01*
X160157144Y-80897035D02*
X160233334Y-80973225D01*
X160233334Y-80973225D02*
X160271429Y-81087511D01*
X160271429Y-81087511D02*
X160271429Y-81277987D01*
X160271429Y-81277987D02*
X160233334Y-81392273D01*
X160233334Y-81392273D02*
X160157144Y-81468464D01*
X160157144Y-81468464D02*
X160080953Y-81506559D01*
X160080953Y-81506559D02*
X160080953Y-81658940D01*
X160080953Y-81658940D02*
X160271429Y-81658940D01*
X157071428Y-82908800D02*
X157185714Y-82946895D01*
X157185714Y-82946895D02*
X157376190Y-82946895D01*
X157376190Y-82946895D02*
X157452381Y-82908800D01*
X157452381Y-82908800D02*
X157490476Y-82870704D01*
X157490476Y-82870704D02*
X157528571Y-82794514D01*
X157528571Y-82794514D02*
X157528571Y-82718323D01*
X157528571Y-82718323D02*
X157490476Y-82642133D01*
X157490476Y-82642133D02*
X157452381Y-82604038D01*
X157452381Y-82604038D02*
X157376190Y-82565942D01*
X157376190Y-82565942D02*
X157223809Y-82527847D01*
X157223809Y-82527847D02*
X157147619Y-82489752D01*
X157147619Y-82489752D02*
X157109524Y-82451657D01*
X157109524Y-82451657D02*
X157071428Y-82375466D01*
X157071428Y-82375466D02*
X157071428Y-82299276D01*
X157071428Y-82299276D02*
X157109524Y-82223085D01*
X157109524Y-82223085D02*
X157147619Y-82184990D01*
X157147619Y-82184990D02*
X157223809Y-82146895D01*
X157223809Y-82146895D02*
X157414286Y-82146895D01*
X157414286Y-82146895D02*
X157528571Y-82184990D01*
X157871429Y-82946895D02*
X157871429Y-82146895D01*
X157871429Y-82146895D02*
X158176191Y-82146895D01*
X158176191Y-82146895D02*
X158252381Y-82184990D01*
X158252381Y-82184990D02*
X158290476Y-82223085D01*
X158290476Y-82223085D02*
X158328572Y-82299276D01*
X158328572Y-82299276D02*
X158328572Y-82413561D01*
X158328572Y-82413561D02*
X158290476Y-82489752D01*
X158290476Y-82489752D02*
X158252381Y-82527847D01*
X158252381Y-82527847D02*
X158176191Y-82565942D01*
X158176191Y-82565942D02*
X157871429Y-82565942D01*
X158671429Y-82946895D02*
X158671429Y-82146895D01*
X159128572Y-82946895D02*
X158785714Y-82489752D01*
X159128572Y-82146895D02*
X158671429Y-82604038D01*
X160446427Y-120058800D02*
X160560713Y-120096895D01*
X160560713Y-120096895D02*
X160751189Y-120096895D01*
X160751189Y-120096895D02*
X160827380Y-120058800D01*
X160827380Y-120058800D02*
X160865475Y-120020704D01*
X160865475Y-120020704D02*
X160903570Y-119944514D01*
X160903570Y-119944514D02*
X160903570Y-119868323D01*
X160903570Y-119868323D02*
X160865475Y-119792133D01*
X160865475Y-119792133D02*
X160827380Y-119754038D01*
X160827380Y-119754038D02*
X160751189Y-119715942D01*
X160751189Y-119715942D02*
X160598808Y-119677847D01*
X160598808Y-119677847D02*
X160522618Y-119639752D01*
X160522618Y-119639752D02*
X160484523Y-119601657D01*
X160484523Y-119601657D02*
X160446427Y-119525466D01*
X160446427Y-119525466D02*
X160446427Y-119449276D01*
X160446427Y-119449276D02*
X160484523Y-119373085D01*
X160484523Y-119373085D02*
X160522618Y-119334990D01*
X160522618Y-119334990D02*
X160598808Y-119296895D01*
X160598808Y-119296895D02*
X160789285Y-119296895D01*
X160789285Y-119296895D02*
X160903570Y-119334990D01*
X161132142Y-119296895D02*
X161589285Y-119296895D01*
X161360713Y-120096895D02*
X161360713Y-119296895D01*
X161855952Y-120096895D02*
X161855952Y-119296895D01*
X161855952Y-119296895D02*
X162122618Y-119868323D01*
X162122618Y-119868323D02*
X162389285Y-119296895D01*
X162389285Y-119296895D02*
X162389285Y-120096895D01*
X162694047Y-119296895D02*
X163189285Y-119296895D01*
X163189285Y-119296895D02*
X162922619Y-119601657D01*
X162922619Y-119601657D02*
X163036904Y-119601657D01*
X163036904Y-119601657D02*
X163113095Y-119639752D01*
X163113095Y-119639752D02*
X163151190Y-119677847D01*
X163151190Y-119677847D02*
X163189285Y-119754038D01*
X163189285Y-119754038D02*
X163189285Y-119944514D01*
X163189285Y-119944514D02*
X163151190Y-120020704D01*
X163151190Y-120020704D02*
X163113095Y-120058800D01*
X163113095Y-120058800D02*
X163036904Y-120096895D01*
X163036904Y-120096895D02*
X162808333Y-120096895D01*
X162808333Y-120096895D02*
X162732142Y-120058800D01*
X162732142Y-120058800D02*
X162694047Y-120020704D01*
X163494047Y-119373085D02*
X163532143Y-119334990D01*
X163532143Y-119334990D02*
X163608333Y-119296895D01*
X163608333Y-119296895D02*
X163798809Y-119296895D01*
X163798809Y-119296895D02*
X163875000Y-119334990D01*
X163875000Y-119334990D02*
X163913095Y-119373085D01*
X163913095Y-119373085D02*
X163951190Y-119449276D01*
X163951190Y-119449276D02*
X163951190Y-119525466D01*
X163951190Y-119525466D02*
X163913095Y-119639752D01*
X163913095Y-119639752D02*
X163455952Y-120096895D01*
X163455952Y-120096895D02*
X163951190Y-120096895D01*
X164903572Y-120096895D02*
X164903572Y-119296895D01*
X164903572Y-119296895D02*
X165094048Y-119296895D01*
X165094048Y-119296895D02*
X165208334Y-119334990D01*
X165208334Y-119334990D02*
X165284524Y-119411180D01*
X165284524Y-119411180D02*
X165322619Y-119487371D01*
X165322619Y-119487371D02*
X165360715Y-119639752D01*
X165360715Y-119639752D02*
X165360715Y-119754038D01*
X165360715Y-119754038D02*
X165322619Y-119906419D01*
X165322619Y-119906419D02*
X165284524Y-119982609D01*
X165284524Y-119982609D02*
X165208334Y-120058800D01*
X165208334Y-120058800D02*
X165094048Y-120096895D01*
X165094048Y-120096895D02*
X164903572Y-120096895D01*
X165589286Y-119296895D02*
X166046429Y-119296895D01*
X165817857Y-120096895D02*
X165817857Y-119296895D01*
X167075001Y-119296895D02*
X167227382Y-119296895D01*
X167227382Y-119296895D02*
X167303572Y-119334990D01*
X167303572Y-119334990D02*
X167379763Y-119411180D01*
X167379763Y-119411180D02*
X167417858Y-119563561D01*
X167417858Y-119563561D02*
X167417858Y-119830228D01*
X167417858Y-119830228D02*
X167379763Y-119982609D01*
X167379763Y-119982609D02*
X167303572Y-120058800D01*
X167303572Y-120058800D02*
X167227382Y-120096895D01*
X167227382Y-120096895D02*
X167075001Y-120096895D01*
X167075001Y-120096895D02*
X166998810Y-120058800D01*
X166998810Y-120058800D02*
X166922620Y-119982609D01*
X166922620Y-119982609D02*
X166884524Y-119830228D01*
X166884524Y-119830228D02*
X166884524Y-119563561D01*
X166884524Y-119563561D02*
X166922620Y-119411180D01*
X166922620Y-119411180D02*
X166998810Y-119334990D01*
X166998810Y-119334990D02*
X167075001Y-119296895D01*
X167760715Y-120096895D02*
X167760715Y-119296895D01*
X167760715Y-119296895D02*
X168217858Y-120096895D01*
X168217858Y-120096895D02*
X168217858Y-119296895D01*
X168979762Y-120096895D02*
X168598810Y-120096895D01*
X168598810Y-120096895D02*
X168598810Y-119296895D01*
X148022618Y-118108030D02*
X148022618Y-117308030D01*
X148365475Y-118108030D02*
X148365475Y-117688982D01*
X148365475Y-117688982D02*
X148327380Y-117612792D01*
X148327380Y-117612792D02*
X148251189Y-117574696D01*
X148251189Y-117574696D02*
X148136903Y-117574696D01*
X148136903Y-117574696D02*
X148060713Y-117612792D01*
X148060713Y-117612792D02*
X148022618Y-117650887D01*
X148860713Y-118108030D02*
X148784523Y-118069935D01*
X148784523Y-118069935D02*
X148746428Y-118031839D01*
X148746428Y-118031839D02*
X148708332Y-117955649D01*
X148708332Y-117955649D02*
X148708332Y-117727077D01*
X148708332Y-117727077D02*
X148746428Y-117650887D01*
X148746428Y-117650887D02*
X148784523Y-117612792D01*
X148784523Y-117612792D02*
X148860713Y-117574696D01*
X148860713Y-117574696D02*
X148974999Y-117574696D01*
X148974999Y-117574696D02*
X149051190Y-117612792D01*
X149051190Y-117612792D02*
X149089285Y-117650887D01*
X149089285Y-117650887D02*
X149127380Y-117727077D01*
X149127380Y-117727077D02*
X149127380Y-117955649D01*
X149127380Y-117955649D02*
X149089285Y-118031839D01*
X149089285Y-118031839D02*
X149051190Y-118069935D01*
X149051190Y-118069935D02*
X148974999Y-118108030D01*
X148974999Y-118108030D02*
X148860713Y-118108030D01*
X149470238Y-117574696D02*
X149470238Y-118374696D01*
X149470238Y-117612792D02*
X149546428Y-117574696D01*
X149546428Y-117574696D02*
X149698809Y-117574696D01*
X149698809Y-117574696D02*
X149775000Y-117612792D01*
X149775000Y-117612792D02*
X149813095Y-117650887D01*
X149813095Y-117650887D02*
X149851190Y-117727077D01*
X149851190Y-117727077D02*
X149851190Y-117955649D01*
X149851190Y-117955649D02*
X149813095Y-118031839D01*
X149813095Y-118031839D02*
X149775000Y-118069935D01*
X149775000Y-118069935D02*
X149698809Y-118108030D01*
X149698809Y-118108030D02*
X149546428Y-118108030D01*
X149546428Y-118108030D02*
X149470238Y-118069935D01*
X150498810Y-118069935D02*
X150422619Y-118108030D01*
X150422619Y-118108030D02*
X150270238Y-118108030D01*
X150270238Y-118108030D02*
X150194048Y-118069935D01*
X150194048Y-118069935D02*
X150155952Y-117993744D01*
X150155952Y-117993744D02*
X150155952Y-117688982D01*
X150155952Y-117688982D02*
X150194048Y-117612792D01*
X150194048Y-117612792D02*
X150270238Y-117574696D01*
X150270238Y-117574696D02*
X150422619Y-117574696D01*
X150422619Y-117574696D02*
X150498810Y-117612792D01*
X150498810Y-117612792D02*
X150536905Y-117688982D01*
X150536905Y-117688982D02*
X150536905Y-117765173D01*
X150536905Y-117765173D02*
X150155952Y-117841363D01*
X151375000Y-117574696D02*
X151679762Y-117574696D01*
X151489286Y-117308030D02*
X151489286Y-117993744D01*
X151489286Y-117993744D02*
X151527381Y-118069935D01*
X151527381Y-118069935D02*
X151603571Y-118108030D01*
X151603571Y-118108030D02*
X151679762Y-118108030D01*
X151946429Y-118108030D02*
X151946429Y-117308030D01*
X152289286Y-118108030D02*
X152289286Y-117688982D01*
X152289286Y-117688982D02*
X152251191Y-117612792D01*
X152251191Y-117612792D02*
X152175000Y-117574696D01*
X152175000Y-117574696D02*
X152060714Y-117574696D01*
X152060714Y-117574696D02*
X151984524Y-117612792D01*
X151984524Y-117612792D02*
X151946429Y-117650887D01*
X152670239Y-118108030D02*
X152670239Y-117574696D01*
X152670239Y-117308030D02*
X152632143Y-117346125D01*
X152632143Y-117346125D02*
X152670239Y-117384220D01*
X152670239Y-117384220D02*
X152708334Y-117346125D01*
X152708334Y-117346125D02*
X152670239Y-117308030D01*
X152670239Y-117308030D02*
X152670239Y-117384220D01*
X153013095Y-118069935D02*
X153089286Y-118108030D01*
X153089286Y-118108030D02*
X153241667Y-118108030D01*
X153241667Y-118108030D02*
X153317857Y-118069935D01*
X153317857Y-118069935D02*
X153355953Y-117993744D01*
X153355953Y-117993744D02*
X153355953Y-117955649D01*
X153355953Y-117955649D02*
X153317857Y-117879458D01*
X153317857Y-117879458D02*
X153241667Y-117841363D01*
X153241667Y-117841363D02*
X153127381Y-117841363D01*
X153127381Y-117841363D02*
X153051191Y-117803268D01*
X153051191Y-117803268D02*
X153013095Y-117727077D01*
X153013095Y-117727077D02*
X153013095Y-117688982D01*
X153013095Y-117688982D02*
X153051191Y-117612792D01*
X153051191Y-117612792D02*
X153127381Y-117574696D01*
X153127381Y-117574696D02*
X153241667Y-117574696D01*
X153241667Y-117574696D02*
X153317857Y-117612792D01*
X147489285Y-119395985D02*
X147489285Y-118595985D01*
X147489285Y-118900747D02*
X147565475Y-118862651D01*
X147565475Y-118862651D02*
X147717856Y-118862651D01*
X147717856Y-118862651D02*
X147794047Y-118900747D01*
X147794047Y-118900747D02*
X147832142Y-118938842D01*
X147832142Y-118938842D02*
X147870237Y-119015032D01*
X147870237Y-119015032D02*
X147870237Y-119243604D01*
X147870237Y-119243604D02*
X147832142Y-119319794D01*
X147832142Y-119319794D02*
X147794047Y-119357890D01*
X147794047Y-119357890D02*
X147717856Y-119395985D01*
X147717856Y-119395985D02*
X147565475Y-119395985D01*
X147565475Y-119395985D02*
X147489285Y-119357890D01*
X148327380Y-119395985D02*
X148251190Y-119357890D01*
X148251190Y-119357890D02*
X148213095Y-119319794D01*
X148213095Y-119319794D02*
X148174999Y-119243604D01*
X148174999Y-119243604D02*
X148174999Y-119015032D01*
X148174999Y-119015032D02*
X148213095Y-118938842D01*
X148213095Y-118938842D02*
X148251190Y-118900747D01*
X148251190Y-118900747D02*
X148327380Y-118862651D01*
X148327380Y-118862651D02*
X148441666Y-118862651D01*
X148441666Y-118862651D02*
X148517857Y-118900747D01*
X148517857Y-118900747D02*
X148555952Y-118938842D01*
X148555952Y-118938842D02*
X148594047Y-119015032D01*
X148594047Y-119015032D02*
X148594047Y-119243604D01*
X148594047Y-119243604D02*
X148555952Y-119319794D01*
X148555952Y-119319794D02*
X148517857Y-119357890D01*
X148517857Y-119357890D02*
X148441666Y-119395985D01*
X148441666Y-119395985D02*
X148327380Y-119395985D01*
X149279762Y-119395985D02*
X149279762Y-118976937D01*
X149279762Y-118976937D02*
X149241667Y-118900747D01*
X149241667Y-118900747D02*
X149165476Y-118862651D01*
X149165476Y-118862651D02*
X149013095Y-118862651D01*
X149013095Y-118862651D02*
X148936905Y-118900747D01*
X149279762Y-119357890D02*
X149203571Y-119395985D01*
X149203571Y-119395985D02*
X149013095Y-119395985D01*
X149013095Y-119395985D02*
X148936905Y-119357890D01*
X148936905Y-119357890D02*
X148898809Y-119281699D01*
X148898809Y-119281699D02*
X148898809Y-119205509D01*
X148898809Y-119205509D02*
X148936905Y-119129318D01*
X148936905Y-119129318D02*
X149013095Y-119091223D01*
X149013095Y-119091223D02*
X149203571Y-119091223D01*
X149203571Y-119091223D02*
X149279762Y-119053128D01*
X149660715Y-119395985D02*
X149660715Y-118862651D01*
X149660715Y-119015032D02*
X149698810Y-118938842D01*
X149698810Y-118938842D02*
X149736905Y-118900747D01*
X149736905Y-118900747D02*
X149813096Y-118862651D01*
X149813096Y-118862651D02*
X149889286Y-118862651D01*
X150498810Y-119395985D02*
X150498810Y-118595985D01*
X150498810Y-119357890D02*
X150422619Y-119395985D01*
X150422619Y-119395985D02*
X150270238Y-119395985D01*
X150270238Y-119395985D02*
X150194048Y-119357890D01*
X150194048Y-119357890D02*
X150155953Y-119319794D01*
X150155953Y-119319794D02*
X150117857Y-119243604D01*
X150117857Y-119243604D02*
X150117857Y-119015032D01*
X150117857Y-119015032D02*
X150155953Y-118938842D01*
X150155953Y-118938842D02*
X150194048Y-118900747D01*
X150194048Y-118900747D02*
X150270238Y-118862651D01*
X150270238Y-118862651D02*
X150422619Y-118862651D01*
X150422619Y-118862651D02*
X150498810Y-118900747D01*
X151413096Y-118862651D02*
X151565477Y-119395985D01*
X151565477Y-119395985D02*
X151717858Y-119015032D01*
X151717858Y-119015032D02*
X151870239Y-119395985D01*
X151870239Y-119395985D02*
X152022620Y-118862651D01*
X152441667Y-119395985D02*
X152365477Y-119357890D01*
X152365477Y-119357890D02*
X152327382Y-119319794D01*
X152327382Y-119319794D02*
X152289286Y-119243604D01*
X152289286Y-119243604D02*
X152289286Y-119015032D01*
X152289286Y-119015032D02*
X152327382Y-118938842D01*
X152327382Y-118938842D02*
X152365477Y-118900747D01*
X152365477Y-118900747D02*
X152441667Y-118862651D01*
X152441667Y-118862651D02*
X152555953Y-118862651D01*
X152555953Y-118862651D02*
X152632144Y-118900747D01*
X152632144Y-118900747D02*
X152670239Y-118938842D01*
X152670239Y-118938842D02*
X152708334Y-119015032D01*
X152708334Y-119015032D02*
X152708334Y-119243604D01*
X152708334Y-119243604D02*
X152670239Y-119319794D01*
X152670239Y-119319794D02*
X152632144Y-119357890D01*
X152632144Y-119357890D02*
X152555953Y-119395985D01*
X152555953Y-119395985D02*
X152441667Y-119395985D01*
X153051192Y-119395985D02*
X153051192Y-118862651D01*
X153051192Y-119015032D02*
X153089287Y-118938842D01*
X153089287Y-118938842D02*
X153127382Y-118900747D01*
X153127382Y-118900747D02*
X153203573Y-118862651D01*
X153203573Y-118862651D02*
X153279763Y-118862651D01*
X153546430Y-119395985D02*
X153546430Y-118595985D01*
X153622620Y-119091223D02*
X153851192Y-119395985D01*
X153851192Y-118862651D02*
X153546430Y-119167413D01*
X154155953Y-119357890D02*
X154232144Y-119395985D01*
X154232144Y-119395985D02*
X154384525Y-119395985D01*
X154384525Y-119395985D02*
X154460715Y-119357890D01*
X154460715Y-119357890D02*
X154498811Y-119281699D01*
X154498811Y-119281699D02*
X154498811Y-119243604D01*
X154498811Y-119243604D02*
X154460715Y-119167413D01*
X154460715Y-119167413D02*
X154384525Y-119129318D01*
X154384525Y-119129318D02*
X154270239Y-119129318D01*
X154270239Y-119129318D02*
X154194049Y-119091223D01*
X154194049Y-119091223D02*
X154155953Y-119015032D01*
X154155953Y-119015032D02*
X154155953Y-118976937D01*
X154155953Y-118976937D02*
X154194049Y-118900747D01*
X154194049Y-118900747D02*
X154270239Y-118862651D01*
X154270239Y-118862651D02*
X154384525Y-118862651D01*
X154384525Y-118862651D02*
X154460715Y-118900747D01*
X146670236Y-120683940D02*
X146670236Y-120264892D01*
X146670236Y-120264892D02*
X146632141Y-120188702D01*
X146632141Y-120188702D02*
X146555950Y-120150606D01*
X146555950Y-120150606D02*
X146403569Y-120150606D01*
X146403569Y-120150606D02*
X146327379Y-120188702D01*
X146670236Y-120645845D02*
X146594045Y-120683940D01*
X146594045Y-120683940D02*
X146403569Y-120683940D01*
X146403569Y-120683940D02*
X146327379Y-120645845D01*
X146327379Y-120645845D02*
X146289283Y-120569654D01*
X146289283Y-120569654D02*
X146289283Y-120493464D01*
X146289283Y-120493464D02*
X146327379Y-120417273D01*
X146327379Y-120417273D02*
X146403569Y-120379178D01*
X146403569Y-120379178D02*
X146594045Y-120379178D01*
X146594045Y-120379178D02*
X146670236Y-120341083D01*
X147051189Y-120150606D02*
X147051189Y-120683940D01*
X147051189Y-120226797D02*
X147089284Y-120188702D01*
X147089284Y-120188702D02*
X147165474Y-120150606D01*
X147165474Y-120150606D02*
X147279760Y-120150606D01*
X147279760Y-120150606D02*
X147355951Y-120188702D01*
X147355951Y-120188702D02*
X147394046Y-120264892D01*
X147394046Y-120264892D02*
X147394046Y-120683940D01*
X148117856Y-120683940D02*
X148117856Y-119883940D01*
X148117856Y-120645845D02*
X148041665Y-120683940D01*
X148041665Y-120683940D02*
X147889284Y-120683940D01*
X147889284Y-120683940D02*
X147813094Y-120645845D01*
X147813094Y-120645845D02*
X147774999Y-120607749D01*
X147774999Y-120607749D02*
X147736903Y-120531559D01*
X147736903Y-120531559D02*
X147736903Y-120302987D01*
X147736903Y-120302987D02*
X147774999Y-120226797D01*
X147774999Y-120226797D02*
X147813094Y-120188702D01*
X147813094Y-120188702D02*
X147889284Y-120150606D01*
X147889284Y-120150606D02*
X148041665Y-120150606D01*
X148041665Y-120150606D02*
X148117856Y-120188702D01*
X149108333Y-120683940D02*
X149108333Y-120150606D01*
X149108333Y-119883940D02*
X149070237Y-119922035D01*
X149070237Y-119922035D02*
X149108333Y-119960130D01*
X149108333Y-119960130D02*
X149146428Y-119922035D01*
X149146428Y-119922035D02*
X149108333Y-119883940D01*
X149108333Y-119883940D02*
X149108333Y-119960130D01*
X150022618Y-120150606D02*
X150174999Y-120683940D01*
X150174999Y-120683940D02*
X150327380Y-120302987D01*
X150327380Y-120302987D02*
X150479761Y-120683940D01*
X150479761Y-120683940D02*
X150632142Y-120150606D01*
X151051189Y-120683940D02*
X150974999Y-120645845D01*
X150974999Y-120645845D02*
X150936904Y-120607749D01*
X150936904Y-120607749D02*
X150898808Y-120531559D01*
X150898808Y-120531559D02*
X150898808Y-120302987D01*
X150898808Y-120302987D02*
X150936904Y-120226797D01*
X150936904Y-120226797D02*
X150974999Y-120188702D01*
X150974999Y-120188702D02*
X151051189Y-120150606D01*
X151051189Y-120150606D02*
X151165475Y-120150606D01*
X151165475Y-120150606D02*
X151241666Y-120188702D01*
X151241666Y-120188702D02*
X151279761Y-120226797D01*
X151279761Y-120226797D02*
X151317856Y-120302987D01*
X151317856Y-120302987D02*
X151317856Y-120531559D01*
X151317856Y-120531559D02*
X151279761Y-120607749D01*
X151279761Y-120607749D02*
X151241666Y-120645845D01*
X151241666Y-120645845D02*
X151165475Y-120683940D01*
X151165475Y-120683940D02*
X151051189Y-120683940D01*
X152003571Y-120150606D02*
X152003571Y-120683940D01*
X151660714Y-120150606D02*
X151660714Y-120569654D01*
X151660714Y-120569654D02*
X151698809Y-120645845D01*
X151698809Y-120645845D02*
X151774999Y-120683940D01*
X151774999Y-120683940D02*
X151889285Y-120683940D01*
X151889285Y-120683940D02*
X151965476Y-120645845D01*
X151965476Y-120645845D02*
X152003571Y-120607749D01*
X152498809Y-120683940D02*
X152422619Y-120645845D01*
X152422619Y-120645845D02*
X152384524Y-120569654D01*
X152384524Y-120569654D02*
X152384524Y-119883940D01*
X153146429Y-120683940D02*
X153146429Y-119883940D01*
X153146429Y-120645845D02*
X153070238Y-120683940D01*
X153070238Y-120683940D02*
X152917857Y-120683940D01*
X152917857Y-120683940D02*
X152841667Y-120645845D01*
X152841667Y-120645845D02*
X152803572Y-120607749D01*
X152803572Y-120607749D02*
X152765476Y-120531559D01*
X152765476Y-120531559D02*
X152765476Y-120302987D01*
X152765476Y-120302987D02*
X152803572Y-120226797D01*
X152803572Y-120226797D02*
X152841667Y-120188702D01*
X152841667Y-120188702D02*
X152917857Y-120150606D01*
X152917857Y-120150606D02*
X153070238Y-120150606D01*
X153070238Y-120150606D02*
X153146429Y-120188702D01*
X154479763Y-120150606D02*
X154479763Y-120798225D01*
X154479763Y-120798225D02*
X154441668Y-120874416D01*
X154441668Y-120874416D02*
X154403572Y-120912511D01*
X154403572Y-120912511D02*
X154327382Y-120950606D01*
X154327382Y-120950606D02*
X154213096Y-120950606D01*
X154213096Y-120950606D02*
X154136906Y-120912511D01*
X154479763Y-120645845D02*
X154403572Y-120683940D01*
X154403572Y-120683940D02*
X154251191Y-120683940D01*
X154251191Y-120683940D02*
X154175001Y-120645845D01*
X154175001Y-120645845D02*
X154136906Y-120607749D01*
X154136906Y-120607749D02*
X154098810Y-120531559D01*
X154098810Y-120531559D02*
X154098810Y-120302987D01*
X154098810Y-120302987D02*
X154136906Y-120226797D01*
X154136906Y-120226797D02*
X154175001Y-120188702D01*
X154175001Y-120188702D02*
X154251191Y-120150606D01*
X154251191Y-120150606D02*
X154403572Y-120150606D01*
X154403572Y-120150606D02*
X154479763Y-120188702D01*
X155165478Y-120645845D02*
X155089287Y-120683940D01*
X155089287Y-120683940D02*
X154936906Y-120683940D01*
X154936906Y-120683940D02*
X154860716Y-120645845D01*
X154860716Y-120645845D02*
X154822620Y-120569654D01*
X154822620Y-120569654D02*
X154822620Y-120264892D01*
X154822620Y-120264892D02*
X154860716Y-120188702D01*
X154860716Y-120188702D02*
X154936906Y-120150606D01*
X154936906Y-120150606D02*
X155089287Y-120150606D01*
X155089287Y-120150606D02*
X155165478Y-120188702D01*
X155165478Y-120188702D02*
X155203573Y-120264892D01*
X155203573Y-120264892D02*
X155203573Y-120341083D01*
X155203573Y-120341083D02*
X154822620Y-120417273D01*
X155432144Y-120150606D02*
X155736906Y-120150606D01*
X155546430Y-119883940D02*
X155546430Y-120569654D01*
X155546430Y-120569654D02*
X155584525Y-120645845D01*
X155584525Y-120645845D02*
X155660715Y-120683940D01*
X155660715Y-120683940D02*
X155736906Y-120683940D01*
X147679760Y-121933800D02*
X147755951Y-121971895D01*
X147755951Y-121971895D02*
X147908332Y-121971895D01*
X147908332Y-121971895D02*
X147984522Y-121933800D01*
X147984522Y-121933800D02*
X148022618Y-121857609D01*
X148022618Y-121857609D02*
X148022618Y-121819514D01*
X148022618Y-121819514D02*
X147984522Y-121743323D01*
X147984522Y-121743323D02*
X147908332Y-121705228D01*
X147908332Y-121705228D02*
X147794046Y-121705228D01*
X147794046Y-121705228D02*
X147717856Y-121667133D01*
X147717856Y-121667133D02*
X147679760Y-121590942D01*
X147679760Y-121590942D02*
X147679760Y-121552847D01*
X147679760Y-121552847D02*
X147717856Y-121476657D01*
X147717856Y-121476657D02*
X147794046Y-121438561D01*
X147794046Y-121438561D02*
X147908332Y-121438561D01*
X147908332Y-121438561D02*
X147984522Y-121476657D01*
X148708332Y-121933800D02*
X148632141Y-121971895D01*
X148632141Y-121971895D02*
X148479760Y-121971895D01*
X148479760Y-121971895D02*
X148403570Y-121933800D01*
X148403570Y-121933800D02*
X148365475Y-121895704D01*
X148365475Y-121895704D02*
X148327379Y-121819514D01*
X148327379Y-121819514D02*
X148327379Y-121590942D01*
X148327379Y-121590942D02*
X148365475Y-121514752D01*
X148365475Y-121514752D02*
X148403570Y-121476657D01*
X148403570Y-121476657D02*
X148479760Y-121438561D01*
X148479760Y-121438561D02*
X148632141Y-121438561D01*
X148632141Y-121438561D02*
X148708332Y-121476657D01*
X149051189Y-121971895D02*
X149051189Y-121171895D01*
X149394046Y-121971895D02*
X149394046Y-121552847D01*
X149394046Y-121552847D02*
X149355951Y-121476657D01*
X149355951Y-121476657D02*
X149279760Y-121438561D01*
X149279760Y-121438561D02*
X149165474Y-121438561D01*
X149165474Y-121438561D02*
X149089284Y-121476657D01*
X149089284Y-121476657D02*
X149051189Y-121514752D01*
X149889284Y-121971895D02*
X149813094Y-121933800D01*
X149813094Y-121933800D02*
X149774999Y-121895704D01*
X149774999Y-121895704D02*
X149736903Y-121819514D01*
X149736903Y-121819514D02*
X149736903Y-121590942D01*
X149736903Y-121590942D02*
X149774999Y-121514752D01*
X149774999Y-121514752D02*
X149813094Y-121476657D01*
X149813094Y-121476657D02*
X149889284Y-121438561D01*
X149889284Y-121438561D02*
X150003570Y-121438561D01*
X150003570Y-121438561D02*
X150079761Y-121476657D01*
X150079761Y-121476657D02*
X150117856Y-121514752D01*
X150117856Y-121514752D02*
X150155951Y-121590942D01*
X150155951Y-121590942D02*
X150155951Y-121819514D01*
X150155951Y-121819514D02*
X150117856Y-121895704D01*
X150117856Y-121895704D02*
X150079761Y-121933800D01*
X150079761Y-121933800D02*
X150003570Y-121971895D01*
X150003570Y-121971895D02*
X149889284Y-121971895D01*
X150613094Y-121971895D02*
X150536904Y-121933800D01*
X150536904Y-121933800D02*
X150498809Y-121857609D01*
X150498809Y-121857609D02*
X150498809Y-121171895D01*
X151260714Y-121971895D02*
X151260714Y-121552847D01*
X151260714Y-121552847D02*
X151222619Y-121476657D01*
X151222619Y-121476657D02*
X151146428Y-121438561D01*
X151146428Y-121438561D02*
X150994047Y-121438561D01*
X150994047Y-121438561D02*
X150917857Y-121476657D01*
X151260714Y-121933800D02*
X151184523Y-121971895D01*
X151184523Y-121971895D02*
X150994047Y-121971895D01*
X150994047Y-121971895D02*
X150917857Y-121933800D01*
X150917857Y-121933800D02*
X150879761Y-121857609D01*
X150879761Y-121857609D02*
X150879761Y-121781419D01*
X150879761Y-121781419D02*
X150917857Y-121705228D01*
X150917857Y-121705228D02*
X150994047Y-121667133D01*
X150994047Y-121667133D02*
X151184523Y-121667133D01*
X151184523Y-121667133D02*
X151260714Y-121629038D01*
X151641667Y-121971895D02*
X151641667Y-121438561D01*
X151641667Y-121590942D02*
X151679762Y-121514752D01*
X151679762Y-121514752D02*
X151717857Y-121476657D01*
X151717857Y-121476657D02*
X151794048Y-121438561D01*
X151794048Y-121438561D02*
X151870238Y-121438561D01*
X152098809Y-121933800D02*
X152175000Y-121971895D01*
X152175000Y-121971895D02*
X152327381Y-121971895D01*
X152327381Y-121971895D02*
X152403571Y-121933800D01*
X152403571Y-121933800D02*
X152441667Y-121857609D01*
X152441667Y-121857609D02*
X152441667Y-121819514D01*
X152441667Y-121819514D02*
X152403571Y-121743323D01*
X152403571Y-121743323D02*
X152327381Y-121705228D01*
X152327381Y-121705228D02*
X152213095Y-121705228D01*
X152213095Y-121705228D02*
X152136905Y-121667133D01*
X152136905Y-121667133D02*
X152098809Y-121590942D01*
X152098809Y-121590942D02*
X152098809Y-121552847D01*
X152098809Y-121552847D02*
X152136905Y-121476657D01*
X152136905Y-121476657D02*
X152213095Y-121438561D01*
X152213095Y-121438561D02*
X152327381Y-121438561D01*
X152327381Y-121438561D02*
X152403571Y-121476657D01*
X152784524Y-121971895D02*
X152784524Y-121171895D01*
X153127381Y-121971895D02*
X153127381Y-121552847D01*
X153127381Y-121552847D02*
X153089286Y-121476657D01*
X153089286Y-121476657D02*
X153013095Y-121438561D01*
X153013095Y-121438561D02*
X152898809Y-121438561D01*
X152898809Y-121438561D02*
X152822619Y-121476657D01*
X152822619Y-121476657D02*
X152784524Y-121514752D01*
X153508334Y-121971895D02*
X153508334Y-121438561D01*
X153508334Y-121171895D02*
X153470238Y-121209990D01*
X153470238Y-121209990D02*
X153508334Y-121248085D01*
X153508334Y-121248085D02*
X153546429Y-121209990D01*
X153546429Y-121209990D02*
X153508334Y-121171895D01*
X153508334Y-121171895D02*
X153508334Y-121248085D01*
X153889286Y-121438561D02*
X153889286Y-122238561D01*
X153889286Y-121476657D02*
X153965476Y-121438561D01*
X153965476Y-121438561D02*
X154117857Y-121438561D01*
X154117857Y-121438561D02*
X154194048Y-121476657D01*
X154194048Y-121476657D02*
X154232143Y-121514752D01*
X154232143Y-121514752D02*
X154270238Y-121590942D01*
X154270238Y-121590942D02*
X154270238Y-121819514D01*
X154270238Y-121819514D02*
X154232143Y-121895704D01*
X154232143Y-121895704D02*
X154194048Y-121933800D01*
X154194048Y-121933800D02*
X154117857Y-121971895D01*
X154117857Y-121971895D02*
X153965476Y-121971895D01*
X153965476Y-121971895D02*
X153889286Y-121933800D01*
D12*
X170899999Y-70186385D02*
X170899999Y-69386385D01*
X171242856Y-70186385D02*
X171242856Y-69767337D01*
X171242856Y-69767337D02*
X171204761Y-69691147D01*
X171204761Y-69691147D02*
X171128570Y-69653051D01*
X171128570Y-69653051D02*
X171014284Y-69653051D01*
X171014284Y-69653051D02*
X170938094Y-69691147D01*
X170938094Y-69691147D02*
X170899999Y-69729242D01*
X171928571Y-70148290D02*
X171852380Y-70186385D01*
X171852380Y-70186385D02*
X171699999Y-70186385D01*
X171699999Y-70186385D02*
X171623809Y-70148290D01*
X171623809Y-70148290D02*
X171585713Y-70072099D01*
X171585713Y-70072099D02*
X171585713Y-69767337D01*
X171585713Y-69767337D02*
X171623809Y-69691147D01*
X171623809Y-69691147D02*
X171699999Y-69653051D01*
X171699999Y-69653051D02*
X171852380Y-69653051D01*
X171852380Y-69653051D02*
X171928571Y-69691147D01*
X171928571Y-69691147D02*
X171966666Y-69767337D01*
X171966666Y-69767337D02*
X171966666Y-69843528D01*
X171966666Y-69843528D02*
X171585713Y-69919718D01*
X172919047Y-70186385D02*
X172919047Y-69653051D01*
X172919047Y-69386385D02*
X172880951Y-69424480D01*
X172880951Y-69424480D02*
X172919047Y-69462575D01*
X172919047Y-69462575D02*
X172957142Y-69424480D01*
X172957142Y-69424480D02*
X172919047Y-69386385D01*
X172919047Y-69386385D02*
X172919047Y-69462575D01*
X173261903Y-70148290D02*
X173338094Y-70186385D01*
X173338094Y-70186385D02*
X173490475Y-70186385D01*
X173490475Y-70186385D02*
X173566665Y-70148290D01*
X173566665Y-70148290D02*
X173604761Y-70072099D01*
X173604761Y-70072099D02*
X173604761Y-70034004D01*
X173604761Y-70034004D02*
X173566665Y-69957813D01*
X173566665Y-69957813D02*
X173490475Y-69919718D01*
X173490475Y-69919718D02*
X173376189Y-69919718D01*
X173376189Y-69919718D02*
X173299999Y-69881623D01*
X173299999Y-69881623D02*
X173261903Y-69805432D01*
X173261903Y-69805432D02*
X173261903Y-69767337D01*
X173261903Y-69767337D02*
X173299999Y-69691147D01*
X173299999Y-69691147D02*
X173376189Y-69653051D01*
X173376189Y-69653051D02*
X173490475Y-69653051D01*
X173490475Y-69653051D02*
X173566665Y-69691147D01*
X174480951Y-69653051D02*
X174633332Y-70186385D01*
X174633332Y-70186385D02*
X174785713Y-69805432D01*
X174785713Y-69805432D02*
X174938094Y-70186385D01*
X174938094Y-70186385D02*
X175090475Y-69653051D01*
X175738094Y-70186385D02*
X175738094Y-69767337D01*
X175738094Y-69767337D02*
X175699999Y-69691147D01*
X175699999Y-69691147D02*
X175623808Y-69653051D01*
X175623808Y-69653051D02*
X175471427Y-69653051D01*
X175471427Y-69653051D02*
X175395237Y-69691147D01*
X175738094Y-70148290D02*
X175661903Y-70186385D01*
X175661903Y-70186385D02*
X175471427Y-70186385D01*
X175471427Y-70186385D02*
X175395237Y-70148290D01*
X175395237Y-70148290D02*
X175357141Y-70072099D01*
X175357141Y-70072099D02*
X175357141Y-69995909D01*
X175357141Y-69995909D02*
X175395237Y-69919718D01*
X175395237Y-69919718D02*
X175471427Y-69881623D01*
X175471427Y-69881623D02*
X175661903Y-69881623D01*
X175661903Y-69881623D02*
X175738094Y-69843528D01*
X176004761Y-69653051D02*
X176309523Y-69653051D01*
X176119047Y-69386385D02*
X176119047Y-70072099D01*
X176119047Y-70072099D02*
X176157142Y-70148290D01*
X176157142Y-70148290D02*
X176233332Y-70186385D01*
X176233332Y-70186385D02*
X176309523Y-70186385D01*
X176919047Y-70148290D02*
X176842856Y-70186385D01*
X176842856Y-70186385D02*
X176690475Y-70186385D01*
X176690475Y-70186385D02*
X176614285Y-70148290D01*
X176614285Y-70148290D02*
X176576190Y-70110194D01*
X176576190Y-70110194D02*
X176538094Y-70034004D01*
X176538094Y-70034004D02*
X176538094Y-69805432D01*
X176538094Y-69805432D02*
X176576190Y-69729242D01*
X176576190Y-69729242D02*
X176614285Y-69691147D01*
X176614285Y-69691147D02*
X176690475Y-69653051D01*
X176690475Y-69653051D02*
X176842856Y-69653051D01*
X176842856Y-69653051D02*
X176919047Y-69691147D01*
X177261904Y-70186385D02*
X177261904Y-69386385D01*
X177604761Y-70186385D02*
X177604761Y-69767337D01*
X177604761Y-69767337D02*
X177566666Y-69691147D01*
X177566666Y-69691147D02*
X177490475Y-69653051D01*
X177490475Y-69653051D02*
X177376189Y-69653051D01*
X177376189Y-69653051D02*
X177299999Y-69691147D01*
X177299999Y-69691147D02*
X177261904Y-69729242D01*
X177985714Y-70186385D02*
X177985714Y-69653051D01*
X177985714Y-69386385D02*
X177947618Y-69424480D01*
X177947618Y-69424480D02*
X177985714Y-69462575D01*
X177985714Y-69462575D02*
X178023809Y-69424480D01*
X178023809Y-69424480D02*
X177985714Y-69386385D01*
X177985714Y-69386385D02*
X177985714Y-69462575D01*
X178366666Y-69653051D02*
X178366666Y-70186385D01*
X178366666Y-69729242D02*
X178404761Y-69691147D01*
X178404761Y-69691147D02*
X178480951Y-69653051D01*
X178480951Y-69653051D02*
X178595237Y-69653051D01*
X178595237Y-69653051D02*
X178671428Y-69691147D01*
X178671428Y-69691147D02*
X178709523Y-69767337D01*
X178709523Y-69767337D02*
X178709523Y-70186385D01*
X179433333Y-69653051D02*
X179433333Y-70300670D01*
X179433333Y-70300670D02*
X179395238Y-70376861D01*
X179395238Y-70376861D02*
X179357142Y-70414956D01*
X179357142Y-70414956D02*
X179280952Y-70453051D01*
X179280952Y-70453051D02*
X179166666Y-70453051D01*
X179166666Y-70453051D02*
X179090476Y-70414956D01*
X179433333Y-70148290D02*
X179357142Y-70186385D01*
X179357142Y-70186385D02*
X179204761Y-70186385D01*
X179204761Y-70186385D02*
X179128571Y-70148290D01*
X179128571Y-70148290D02*
X179090476Y-70110194D01*
X179090476Y-70110194D02*
X179052380Y-70034004D01*
X179052380Y-70034004D02*
X179052380Y-69805432D01*
X179052380Y-69805432D02*
X179090476Y-69729242D01*
X179090476Y-69729242D02*
X179128571Y-69691147D01*
X179128571Y-69691147D02*
X179204761Y-69653051D01*
X179204761Y-69653051D02*
X179357142Y-69653051D01*
X179357142Y-69653051D02*
X179433333Y-69691147D01*
X180347619Y-69653051D02*
X180538095Y-70186385D01*
X180728572Y-69653051D02*
X180538095Y-70186385D01*
X180538095Y-70186385D02*
X180461905Y-70376861D01*
X180461905Y-70376861D02*
X180423810Y-70414956D01*
X180423810Y-70414956D02*
X180347619Y-70453051D01*
X181147619Y-70186385D02*
X181071429Y-70148290D01*
X181071429Y-70148290D02*
X181033334Y-70110194D01*
X181033334Y-70110194D02*
X180995238Y-70034004D01*
X180995238Y-70034004D02*
X180995238Y-69805432D01*
X180995238Y-69805432D02*
X181033334Y-69729242D01*
X181033334Y-69729242D02*
X181071429Y-69691147D01*
X181071429Y-69691147D02*
X181147619Y-69653051D01*
X181147619Y-69653051D02*
X181261905Y-69653051D01*
X181261905Y-69653051D02*
X181338096Y-69691147D01*
X181338096Y-69691147D02*
X181376191Y-69729242D01*
X181376191Y-69729242D02*
X181414286Y-69805432D01*
X181414286Y-69805432D02*
X181414286Y-70034004D01*
X181414286Y-70034004D02*
X181376191Y-70110194D01*
X181376191Y-70110194D02*
X181338096Y-70148290D01*
X181338096Y-70148290D02*
X181261905Y-70186385D01*
X181261905Y-70186385D02*
X181147619Y-70186385D01*
X182100001Y-69653051D02*
X182100001Y-70186385D01*
X181757144Y-69653051D02*
X181757144Y-70072099D01*
X181757144Y-70072099D02*
X181795239Y-70148290D01*
X181795239Y-70148290D02*
X181871429Y-70186385D01*
X181871429Y-70186385D02*
X181985715Y-70186385D01*
X181985715Y-70186385D02*
X182061906Y-70148290D01*
X182061906Y-70148290D02*
X182100001Y-70110194D01*
X170938094Y-70941006D02*
X171090475Y-71474340D01*
X171090475Y-71474340D02*
X171242856Y-71093387D01*
X171242856Y-71093387D02*
X171395237Y-71474340D01*
X171395237Y-71474340D02*
X171547618Y-70941006D01*
X172195237Y-71474340D02*
X172195237Y-71055292D01*
X172195237Y-71055292D02*
X172157142Y-70979102D01*
X172157142Y-70979102D02*
X172080951Y-70941006D01*
X172080951Y-70941006D02*
X171928570Y-70941006D01*
X171928570Y-70941006D02*
X171852380Y-70979102D01*
X172195237Y-71436245D02*
X172119046Y-71474340D01*
X172119046Y-71474340D02*
X171928570Y-71474340D01*
X171928570Y-71474340D02*
X171852380Y-71436245D01*
X171852380Y-71436245D02*
X171814284Y-71360054D01*
X171814284Y-71360054D02*
X171814284Y-71283864D01*
X171814284Y-71283864D02*
X171852380Y-71207673D01*
X171852380Y-71207673D02*
X171928570Y-71169578D01*
X171928570Y-71169578D02*
X172119046Y-71169578D01*
X172119046Y-71169578D02*
X172195237Y-71131483D01*
X172461904Y-70941006D02*
X172766666Y-70941006D01*
X172576190Y-70674340D02*
X172576190Y-71360054D01*
X172576190Y-71360054D02*
X172614285Y-71436245D01*
X172614285Y-71436245D02*
X172690475Y-71474340D01*
X172690475Y-71474340D02*
X172766666Y-71474340D01*
X173376190Y-71436245D02*
X173299999Y-71474340D01*
X173299999Y-71474340D02*
X173147618Y-71474340D01*
X173147618Y-71474340D02*
X173071428Y-71436245D01*
X173071428Y-71436245D02*
X173033333Y-71398149D01*
X173033333Y-71398149D02*
X172995237Y-71321959D01*
X172995237Y-71321959D02*
X172995237Y-71093387D01*
X172995237Y-71093387D02*
X173033333Y-71017197D01*
X173033333Y-71017197D02*
X173071428Y-70979102D01*
X173071428Y-70979102D02*
X173147618Y-70941006D01*
X173147618Y-70941006D02*
X173299999Y-70941006D01*
X173299999Y-70941006D02*
X173376190Y-70979102D01*
X173719047Y-71474340D02*
X173719047Y-70674340D01*
X174061904Y-71474340D02*
X174061904Y-71055292D01*
X174061904Y-71055292D02*
X174023809Y-70979102D01*
X174023809Y-70979102D02*
X173947618Y-70941006D01*
X173947618Y-70941006D02*
X173833332Y-70941006D01*
X173833332Y-70941006D02*
X173757142Y-70979102D01*
X173757142Y-70979102D02*
X173719047Y-71017197D01*
X174442857Y-71474340D02*
X174442857Y-70941006D01*
X174442857Y-70674340D02*
X174404761Y-70712435D01*
X174404761Y-70712435D02*
X174442857Y-70750530D01*
X174442857Y-70750530D02*
X174480952Y-70712435D01*
X174480952Y-70712435D02*
X174442857Y-70674340D01*
X174442857Y-70674340D02*
X174442857Y-70750530D01*
X174823809Y-70941006D02*
X174823809Y-71474340D01*
X174823809Y-71017197D02*
X174861904Y-70979102D01*
X174861904Y-70979102D02*
X174938094Y-70941006D01*
X174938094Y-70941006D02*
X175052380Y-70941006D01*
X175052380Y-70941006D02*
X175128571Y-70979102D01*
X175128571Y-70979102D02*
X175166666Y-71055292D01*
X175166666Y-71055292D02*
X175166666Y-71474340D01*
X175890476Y-70941006D02*
X175890476Y-71588625D01*
X175890476Y-71588625D02*
X175852381Y-71664816D01*
X175852381Y-71664816D02*
X175814285Y-71702911D01*
X175814285Y-71702911D02*
X175738095Y-71741006D01*
X175738095Y-71741006D02*
X175623809Y-71741006D01*
X175623809Y-71741006D02*
X175547619Y-71702911D01*
X175890476Y-71436245D02*
X175814285Y-71474340D01*
X175814285Y-71474340D02*
X175661904Y-71474340D01*
X175661904Y-71474340D02*
X175585714Y-71436245D01*
X175585714Y-71436245D02*
X175547619Y-71398149D01*
X175547619Y-71398149D02*
X175509523Y-71321959D01*
X175509523Y-71321959D02*
X175509523Y-71093387D01*
X175509523Y-71093387D02*
X175547619Y-71017197D01*
X175547619Y-71017197D02*
X175585714Y-70979102D01*
X175585714Y-70979102D02*
X175661904Y-70941006D01*
X175661904Y-70941006D02*
X175814285Y-70941006D01*
X175814285Y-70941006D02*
X175890476Y-70979102D01*
X176880953Y-71474340D02*
X176880953Y-70674340D01*
X176880953Y-70979102D02*
X176957143Y-70941006D01*
X176957143Y-70941006D02*
X177109524Y-70941006D01*
X177109524Y-70941006D02*
X177185715Y-70979102D01*
X177185715Y-70979102D02*
X177223810Y-71017197D01*
X177223810Y-71017197D02*
X177261905Y-71093387D01*
X177261905Y-71093387D02*
X177261905Y-71321959D01*
X177261905Y-71321959D02*
X177223810Y-71398149D01*
X177223810Y-71398149D02*
X177185715Y-71436245D01*
X177185715Y-71436245D02*
X177109524Y-71474340D01*
X177109524Y-71474340D02*
X176957143Y-71474340D01*
X176957143Y-71474340D02*
X176880953Y-71436245D01*
X177909525Y-71436245D02*
X177833334Y-71474340D01*
X177833334Y-71474340D02*
X177680953Y-71474340D01*
X177680953Y-71474340D02*
X177604763Y-71436245D01*
X177604763Y-71436245D02*
X177566667Y-71360054D01*
X177566667Y-71360054D02*
X177566667Y-71055292D01*
X177566667Y-71055292D02*
X177604763Y-70979102D01*
X177604763Y-70979102D02*
X177680953Y-70941006D01*
X177680953Y-70941006D02*
X177833334Y-70941006D01*
X177833334Y-70941006D02*
X177909525Y-70979102D01*
X177909525Y-70979102D02*
X177947620Y-71055292D01*
X177947620Y-71055292D02*
X177947620Y-71131483D01*
X177947620Y-71131483D02*
X177566667Y-71207673D01*
X178633334Y-71436245D02*
X178557143Y-71474340D01*
X178557143Y-71474340D02*
X178404762Y-71474340D01*
X178404762Y-71474340D02*
X178328572Y-71436245D01*
X178328572Y-71436245D02*
X178290477Y-71398149D01*
X178290477Y-71398149D02*
X178252381Y-71321959D01*
X178252381Y-71321959D02*
X178252381Y-71093387D01*
X178252381Y-71093387D02*
X178290477Y-71017197D01*
X178290477Y-71017197D02*
X178328572Y-70979102D01*
X178328572Y-70979102D02*
X178404762Y-70941006D01*
X178404762Y-70941006D02*
X178557143Y-70941006D01*
X178557143Y-70941006D02*
X178633334Y-70979102D01*
X179319048Y-71474340D02*
X179319048Y-71055292D01*
X179319048Y-71055292D02*
X179280953Y-70979102D01*
X179280953Y-70979102D02*
X179204762Y-70941006D01*
X179204762Y-70941006D02*
X179052381Y-70941006D01*
X179052381Y-70941006D02*
X178976191Y-70979102D01*
X179319048Y-71436245D02*
X179242857Y-71474340D01*
X179242857Y-71474340D02*
X179052381Y-71474340D01*
X179052381Y-71474340D02*
X178976191Y-71436245D01*
X178976191Y-71436245D02*
X178938095Y-71360054D01*
X178938095Y-71360054D02*
X178938095Y-71283864D01*
X178938095Y-71283864D02*
X178976191Y-71207673D01*
X178976191Y-71207673D02*
X179052381Y-71169578D01*
X179052381Y-71169578D02*
X179242857Y-71169578D01*
X179242857Y-71169578D02*
X179319048Y-71131483D01*
X180042858Y-70941006D02*
X180042858Y-71474340D01*
X179700001Y-70941006D02*
X179700001Y-71360054D01*
X179700001Y-71360054D02*
X179738096Y-71436245D01*
X179738096Y-71436245D02*
X179814286Y-71474340D01*
X179814286Y-71474340D02*
X179928572Y-71474340D01*
X179928572Y-71474340D02*
X180004763Y-71436245D01*
X180004763Y-71436245D02*
X180042858Y-71398149D01*
X180385715Y-71436245D02*
X180461906Y-71474340D01*
X180461906Y-71474340D02*
X180614287Y-71474340D01*
X180614287Y-71474340D02*
X180690477Y-71436245D01*
X180690477Y-71436245D02*
X180728573Y-71360054D01*
X180728573Y-71360054D02*
X180728573Y-71321959D01*
X180728573Y-71321959D02*
X180690477Y-71245768D01*
X180690477Y-71245768D02*
X180614287Y-71207673D01*
X180614287Y-71207673D02*
X180500001Y-71207673D01*
X180500001Y-71207673D02*
X180423811Y-71169578D01*
X180423811Y-71169578D02*
X180385715Y-71093387D01*
X180385715Y-71093387D02*
X180385715Y-71055292D01*
X180385715Y-71055292D02*
X180423811Y-70979102D01*
X180423811Y-70979102D02*
X180500001Y-70941006D01*
X180500001Y-70941006D02*
X180614287Y-70941006D01*
X180614287Y-70941006D02*
X180690477Y-70979102D01*
X181376192Y-71436245D02*
X181300001Y-71474340D01*
X181300001Y-71474340D02*
X181147620Y-71474340D01*
X181147620Y-71474340D02*
X181071430Y-71436245D01*
X181071430Y-71436245D02*
X181033334Y-71360054D01*
X181033334Y-71360054D02*
X181033334Y-71055292D01*
X181033334Y-71055292D02*
X181071430Y-70979102D01*
X181071430Y-70979102D02*
X181147620Y-70941006D01*
X181147620Y-70941006D02*
X181300001Y-70941006D01*
X181300001Y-70941006D02*
X181376192Y-70979102D01*
X181376192Y-70979102D02*
X181414287Y-71055292D01*
X181414287Y-71055292D02*
X181414287Y-71131483D01*
X181414287Y-71131483D02*
X181033334Y-71207673D01*
X172138093Y-72228961D02*
X172328569Y-72762295D01*
X172519046Y-72228961D02*
X172328569Y-72762295D01*
X172328569Y-72762295D02*
X172252379Y-72952771D01*
X172252379Y-72952771D02*
X172214284Y-72990866D01*
X172214284Y-72990866D02*
X172138093Y-73028961D01*
X172938093Y-72762295D02*
X172861903Y-72724200D01*
X172861903Y-72724200D02*
X172823808Y-72686104D01*
X172823808Y-72686104D02*
X172785712Y-72609914D01*
X172785712Y-72609914D02*
X172785712Y-72381342D01*
X172785712Y-72381342D02*
X172823808Y-72305152D01*
X172823808Y-72305152D02*
X172861903Y-72267057D01*
X172861903Y-72267057D02*
X172938093Y-72228961D01*
X172938093Y-72228961D02*
X173052379Y-72228961D01*
X173052379Y-72228961D02*
X173128570Y-72267057D01*
X173128570Y-72267057D02*
X173166665Y-72305152D01*
X173166665Y-72305152D02*
X173204760Y-72381342D01*
X173204760Y-72381342D02*
X173204760Y-72609914D01*
X173204760Y-72609914D02*
X173166665Y-72686104D01*
X173166665Y-72686104D02*
X173128570Y-72724200D01*
X173128570Y-72724200D02*
X173052379Y-72762295D01*
X173052379Y-72762295D02*
X172938093Y-72762295D01*
X173890475Y-72228961D02*
X173890475Y-72762295D01*
X173547618Y-72228961D02*
X173547618Y-72648009D01*
X173547618Y-72648009D02*
X173585713Y-72724200D01*
X173585713Y-72724200D02*
X173661903Y-72762295D01*
X173661903Y-72762295D02*
X173776189Y-72762295D01*
X173776189Y-72762295D02*
X173852380Y-72724200D01*
X173852380Y-72724200D02*
X173890475Y-72686104D01*
X174804761Y-72228961D02*
X174957142Y-72762295D01*
X174957142Y-72762295D02*
X175109523Y-72381342D01*
X175109523Y-72381342D02*
X175261904Y-72762295D01*
X175261904Y-72762295D02*
X175414285Y-72228961D01*
X175833332Y-72762295D02*
X175757142Y-72724200D01*
X175757142Y-72724200D02*
X175719047Y-72686104D01*
X175719047Y-72686104D02*
X175680951Y-72609914D01*
X175680951Y-72609914D02*
X175680951Y-72381342D01*
X175680951Y-72381342D02*
X175719047Y-72305152D01*
X175719047Y-72305152D02*
X175757142Y-72267057D01*
X175757142Y-72267057D02*
X175833332Y-72228961D01*
X175833332Y-72228961D02*
X175947618Y-72228961D01*
X175947618Y-72228961D02*
X176023809Y-72267057D01*
X176023809Y-72267057D02*
X176061904Y-72305152D01*
X176061904Y-72305152D02*
X176099999Y-72381342D01*
X176099999Y-72381342D02*
X176099999Y-72609914D01*
X176099999Y-72609914D02*
X176061904Y-72686104D01*
X176061904Y-72686104D02*
X176023809Y-72724200D01*
X176023809Y-72724200D02*
X175947618Y-72762295D01*
X175947618Y-72762295D02*
X175833332Y-72762295D01*
X176442857Y-72228961D02*
X176442857Y-72762295D01*
X176442857Y-72305152D02*
X176480952Y-72267057D01*
X176480952Y-72267057D02*
X176557142Y-72228961D01*
X176557142Y-72228961D02*
X176671428Y-72228961D01*
X176671428Y-72228961D02*
X176747619Y-72267057D01*
X176747619Y-72267057D02*
X176785714Y-72343247D01*
X176785714Y-72343247D02*
X176785714Y-72762295D01*
X177204762Y-71962295D02*
X177128571Y-72114676D01*
X177433333Y-72228961D02*
X177738095Y-72228961D01*
X177547619Y-71962295D02*
X177547619Y-72648009D01*
X177547619Y-72648009D02*
X177585714Y-72724200D01*
X177585714Y-72724200D02*
X177661904Y-72762295D01*
X177661904Y-72762295D02*
X177738095Y-72762295D01*
X178576190Y-72724200D02*
X178652381Y-72762295D01*
X178652381Y-72762295D02*
X178804762Y-72762295D01*
X178804762Y-72762295D02*
X178880952Y-72724200D01*
X178880952Y-72724200D02*
X178919048Y-72648009D01*
X178919048Y-72648009D02*
X178919048Y-72609914D01*
X178919048Y-72609914D02*
X178880952Y-72533723D01*
X178880952Y-72533723D02*
X178804762Y-72495628D01*
X178804762Y-72495628D02*
X178690476Y-72495628D01*
X178690476Y-72495628D02*
X178614286Y-72457533D01*
X178614286Y-72457533D02*
X178576190Y-72381342D01*
X178576190Y-72381342D02*
X178576190Y-72343247D01*
X178576190Y-72343247D02*
X178614286Y-72267057D01*
X178614286Y-72267057D02*
X178690476Y-72228961D01*
X178690476Y-72228961D02*
X178804762Y-72228961D01*
X178804762Y-72228961D02*
X178880952Y-72267057D01*
X179147619Y-72228961D02*
X179452381Y-72228961D01*
X179261905Y-71962295D02*
X179261905Y-72648009D01*
X179261905Y-72648009D02*
X179300000Y-72724200D01*
X179300000Y-72724200D02*
X179376190Y-72762295D01*
X179376190Y-72762295D02*
X179452381Y-72762295D01*
X179833333Y-72762295D02*
X179757143Y-72724200D01*
X179757143Y-72724200D02*
X179719048Y-72686104D01*
X179719048Y-72686104D02*
X179680952Y-72609914D01*
X179680952Y-72609914D02*
X179680952Y-72381342D01*
X179680952Y-72381342D02*
X179719048Y-72305152D01*
X179719048Y-72305152D02*
X179757143Y-72267057D01*
X179757143Y-72267057D02*
X179833333Y-72228961D01*
X179833333Y-72228961D02*
X179947619Y-72228961D01*
X179947619Y-72228961D02*
X180023810Y-72267057D01*
X180023810Y-72267057D02*
X180061905Y-72305152D01*
X180061905Y-72305152D02*
X180100000Y-72381342D01*
X180100000Y-72381342D02*
X180100000Y-72609914D01*
X180100000Y-72609914D02*
X180061905Y-72686104D01*
X180061905Y-72686104D02*
X180023810Y-72724200D01*
X180023810Y-72724200D02*
X179947619Y-72762295D01*
X179947619Y-72762295D02*
X179833333Y-72762295D01*
X180442858Y-72228961D02*
X180442858Y-73028961D01*
X180442858Y-72267057D02*
X180519048Y-72228961D01*
X180519048Y-72228961D02*
X180671429Y-72228961D01*
X180671429Y-72228961D02*
X180747620Y-72267057D01*
X180747620Y-72267057D02*
X180785715Y-72305152D01*
X180785715Y-72305152D02*
X180823810Y-72381342D01*
X180823810Y-72381342D02*
X180823810Y-72609914D01*
X180823810Y-72609914D02*
X180785715Y-72686104D01*
X180785715Y-72686104D02*
X180747620Y-72724200D01*
X180747620Y-72724200D02*
X180671429Y-72762295D01*
X180671429Y-72762295D02*
X180519048Y-72762295D01*
X180519048Y-72762295D02*
X180442858Y-72724200D01*
X173223808Y-74050250D02*
X173223808Y-73250250D01*
X173223808Y-74012155D02*
X173147617Y-74050250D01*
X173147617Y-74050250D02*
X172995236Y-74050250D01*
X172995236Y-74050250D02*
X172919046Y-74012155D01*
X172919046Y-74012155D02*
X172880951Y-73974059D01*
X172880951Y-73974059D02*
X172842855Y-73897869D01*
X172842855Y-73897869D02*
X172842855Y-73669297D01*
X172842855Y-73669297D02*
X172880951Y-73593107D01*
X172880951Y-73593107D02*
X172919046Y-73555012D01*
X172919046Y-73555012D02*
X172995236Y-73516916D01*
X172995236Y-73516916D02*
X173147617Y-73516916D01*
X173147617Y-73516916D02*
X173223808Y-73555012D01*
X173719046Y-74050250D02*
X173642856Y-74012155D01*
X173642856Y-74012155D02*
X173604761Y-73974059D01*
X173604761Y-73974059D02*
X173566665Y-73897869D01*
X173566665Y-73897869D02*
X173566665Y-73669297D01*
X173566665Y-73669297D02*
X173604761Y-73593107D01*
X173604761Y-73593107D02*
X173642856Y-73555012D01*
X173642856Y-73555012D02*
X173719046Y-73516916D01*
X173719046Y-73516916D02*
X173833332Y-73516916D01*
X173833332Y-73516916D02*
X173909523Y-73555012D01*
X173909523Y-73555012D02*
X173947618Y-73593107D01*
X173947618Y-73593107D02*
X173985713Y-73669297D01*
X173985713Y-73669297D02*
X173985713Y-73897869D01*
X173985713Y-73897869D02*
X173947618Y-73974059D01*
X173947618Y-73974059D02*
X173909523Y-74012155D01*
X173909523Y-74012155D02*
X173833332Y-74050250D01*
X173833332Y-74050250D02*
X173719046Y-74050250D01*
X174328571Y-74050250D02*
X174328571Y-73516916D01*
X174328571Y-73250250D02*
X174290475Y-73288345D01*
X174290475Y-73288345D02*
X174328571Y-73326440D01*
X174328571Y-73326440D02*
X174366666Y-73288345D01*
X174366666Y-73288345D02*
X174328571Y-73250250D01*
X174328571Y-73250250D02*
X174328571Y-73326440D01*
X174709523Y-73516916D02*
X174709523Y-74050250D01*
X174709523Y-73593107D02*
X174747618Y-73555012D01*
X174747618Y-73555012D02*
X174823808Y-73516916D01*
X174823808Y-73516916D02*
X174938094Y-73516916D01*
X174938094Y-73516916D02*
X175014285Y-73555012D01*
X175014285Y-73555012D02*
X175052380Y-73631202D01*
X175052380Y-73631202D02*
X175052380Y-74050250D01*
X175776190Y-73516916D02*
X175776190Y-74164535D01*
X175776190Y-74164535D02*
X175738095Y-74240726D01*
X175738095Y-74240726D02*
X175699999Y-74278821D01*
X175699999Y-74278821D02*
X175623809Y-74316916D01*
X175623809Y-74316916D02*
X175509523Y-74316916D01*
X175509523Y-74316916D02*
X175433333Y-74278821D01*
X175776190Y-74012155D02*
X175699999Y-74050250D01*
X175699999Y-74050250D02*
X175547618Y-74050250D01*
X175547618Y-74050250D02*
X175471428Y-74012155D01*
X175471428Y-74012155D02*
X175433333Y-73974059D01*
X175433333Y-73974059D02*
X175395237Y-73897869D01*
X175395237Y-73897869D02*
X175395237Y-73669297D01*
X175395237Y-73669297D02*
X175433333Y-73593107D01*
X175433333Y-73593107D02*
X175471428Y-73555012D01*
X175471428Y-73555012D02*
X175547618Y-73516916D01*
X175547618Y-73516916D02*
X175699999Y-73516916D01*
X175699999Y-73516916D02*
X175776190Y-73555012D01*
X176728571Y-74012155D02*
X176804762Y-74050250D01*
X176804762Y-74050250D02*
X176957143Y-74050250D01*
X176957143Y-74050250D02*
X177033333Y-74012155D01*
X177033333Y-74012155D02*
X177071429Y-73935964D01*
X177071429Y-73935964D02*
X177071429Y-73897869D01*
X177071429Y-73897869D02*
X177033333Y-73821678D01*
X177033333Y-73821678D02*
X176957143Y-73783583D01*
X176957143Y-73783583D02*
X176842857Y-73783583D01*
X176842857Y-73783583D02*
X176766667Y-73745488D01*
X176766667Y-73745488D02*
X176728571Y-73669297D01*
X176728571Y-73669297D02*
X176728571Y-73631202D01*
X176728571Y-73631202D02*
X176766667Y-73555012D01*
X176766667Y-73555012D02*
X176842857Y-73516916D01*
X176842857Y-73516916D02*
X176957143Y-73516916D01*
X176957143Y-73516916D02*
X177033333Y-73555012D01*
X177528571Y-74050250D02*
X177452381Y-74012155D01*
X177452381Y-74012155D02*
X177414286Y-73974059D01*
X177414286Y-73974059D02*
X177376190Y-73897869D01*
X177376190Y-73897869D02*
X177376190Y-73669297D01*
X177376190Y-73669297D02*
X177414286Y-73593107D01*
X177414286Y-73593107D02*
X177452381Y-73555012D01*
X177452381Y-73555012D02*
X177528571Y-73516916D01*
X177528571Y-73516916D02*
X177642857Y-73516916D01*
X177642857Y-73516916D02*
X177719048Y-73555012D01*
X177719048Y-73555012D02*
X177757143Y-73593107D01*
X177757143Y-73593107D02*
X177795238Y-73669297D01*
X177795238Y-73669297D02*
X177795238Y-73897869D01*
X177795238Y-73897869D02*
X177757143Y-73974059D01*
X177757143Y-73974059D02*
X177719048Y-74012155D01*
X177719048Y-74012155D02*
X177642857Y-74050250D01*
X177642857Y-74050250D02*
X177528571Y-74050250D01*
X178138096Y-74050250D02*
X178138096Y-73516916D01*
X178138096Y-73593107D02*
X178176191Y-73555012D01*
X178176191Y-73555012D02*
X178252381Y-73516916D01*
X178252381Y-73516916D02*
X178366667Y-73516916D01*
X178366667Y-73516916D02*
X178442858Y-73555012D01*
X178442858Y-73555012D02*
X178480953Y-73631202D01*
X178480953Y-73631202D02*
X178480953Y-74050250D01*
X178480953Y-73631202D02*
X178519048Y-73555012D01*
X178519048Y-73555012D02*
X178595239Y-73516916D01*
X178595239Y-73516916D02*
X178709524Y-73516916D01*
X178709524Y-73516916D02*
X178785715Y-73555012D01*
X178785715Y-73555012D02*
X178823810Y-73631202D01*
X178823810Y-73631202D02*
X178823810Y-74050250D01*
X179509525Y-74012155D02*
X179433334Y-74050250D01*
X179433334Y-74050250D02*
X179280953Y-74050250D01*
X179280953Y-74050250D02*
X179204763Y-74012155D01*
X179204763Y-74012155D02*
X179166667Y-73935964D01*
X179166667Y-73935964D02*
X179166667Y-73631202D01*
X179166667Y-73631202D02*
X179204763Y-73555012D01*
X179204763Y-73555012D02*
X179280953Y-73516916D01*
X179280953Y-73516916D02*
X179433334Y-73516916D01*
X179433334Y-73516916D02*
X179509525Y-73555012D01*
X179509525Y-73555012D02*
X179547620Y-73631202D01*
X179547620Y-73631202D02*
X179547620Y-73707393D01*
X179547620Y-73707393D02*
X179166667Y-73783583D01*
X171604761Y-75338205D02*
X171604761Y-74804871D01*
X171604761Y-74538205D02*
X171566665Y-74576300D01*
X171566665Y-74576300D02*
X171604761Y-74614395D01*
X171604761Y-74614395D02*
X171642856Y-74576300D01*
X171642856Y-74576300D02*
X171604761Y-74538205D01*
X171604761Y-74538205D02*
X171604761Y-74614395D01*
X172099998Y-75338205D02*
X172023808Y-75300110D01*
X172023808Y-75300110D02*
X171985713Y-75223919D01*
X171985713Y-75223919D02*
X171985713Y-74538205D01*
X172519046Y-75338205D02*
X172442856Y-75300110D01*
X172442856Y-75300110D02*
X172404761Y-75223919D01*
X172404761Y-75223919D02*
X172404761Y-74538205D01*
X173128571Y-75300110D02*
X173052380Y-75338205D01*
X173052380Y-75338205D02*
X172899999Y-75338205D01*
X172899999Y-75338205D02*
X172823809Y-75300110D01*
X172823809Y-75300110D02*
X172785713Y-75223919D01*
X172785713Y-75223919D02*
X172785713Y-74919157D01*
X172785713Y-74919157D02*
X172823809Y-74842967D01*
X172823809Y-74842967D02*
X172899999Y-74804871D01*
X172899999Y-74804871D02*
X173052380Y-74804871D01*
X173052380Y-74804871D02*
X173128571Y-74842967D01*
X173128571Y-74842967D02*
X173166666Y-74919157D01*
X173166666Y-74919157D02*
X173166666Y-74995348D01*
X173166666Y-74995348D02*
X172785713Y-75071538D01*
X173852380Y-74804871D02*
X173852380Y-75452490D01*
X173852380Y-75452490D02*
X173814285Y-75528681D01*
X173814285Y-75528681D02*
X173776189Y-75566776D01*
X173776189Y-75566776D02*
X173699999Y-75604871D01*
X173699999Y-75604871D02*
X173585713Y-75604871D01*
X173585713Y-75604871D02*
X173509523Y-75566776D01*
X173852380Y-75300110D02*
X173776189Y-75338205D01*
X173776189Y-75338205D02*
X173623808Y-75338205D01*
X173623808Y-75338205D02*
X173547618Y-75300110D01*
X173547618Y-75300110D02*
X173509523Y-75262014D01*
X173509523Y-75262014D02*
X173471427Y-75185824D01*
X173471427Y-75185824D02*
X173471427Y-74957252D01*
X173471427Y-74957252D02*
X173509523Y-74881062D01*
X173509523Y-74881062D02*
X173547618Y-74842967D01*
X173547618Y-74842967D02*
X173623808Y-74804871D01*
X173623808Y-74804871D02*
X173776189Y-74804871D01*
X173776189Y-74804871D02*
X173852380Y-74842967D01*
X174576190Y-75338205D02*
X174576190Y-74919157D01*
X174576190Y-74919157D02*
X174538095Y-74842967D01*
X174538095Y-74842967D02*
X174461904Y-74804871D01*
X174461904Y-74804871D02*
X174309523Y-74804871D01*
X174309523Y-74804871D02*
X174233333Y-74842967D01*
X174576190Y-75300110D02*
X174499999Y-75338205D01*
X174499999Y-75338205D02*
X174309523Y-75338205D01*
X174309523Y-75338205D02*
X174233333Y-75300110D01*
X174233333Y-75300110D02*
X174195237Y-75223919D01*
X174195237Y-75223919D02*
X174195237Y-75147729D01*
X174195237Y-75147729D02*
X174233333Y-75071538D01*
X174233333Y-75071538D02*
X174309523Y-75033443D01*
X174309523Y-75033443D02*
X174499999Y-75033443D01*
X174499999Y-75033443D02*
X174576190Y-74995348D01*
X175071428Y-75338205D02*
X174995238Y-75300110D01*
X174995238Y-75300110D02*
X174957143Y-75223919D01*
X174957143Y-75223919D02*
X174957143Y-74538205D01*
X175871429Y-74804871D02*
X176176191Y-74804871D01*
X175985715Y-74538205D02*
X175985715Y-75223919D01*
X175985715Y-75223919D02*
X176023810Y-75300110D01*
X176023810Y-75300110D02*
X176100000Y-75338205D01*
X176100000Y-75338205D02*
X176176191Y-75338205D01*
X176442858Y-75338205D02*
X176442858Y-74538205D01*
X176785715Y-75338205D02*
X176785715Y-74919157D01*
X176785715Y-74919157D02*
X176747620Y-74842967D01*
X176747620Y-74842967D02*
X176671429Y-74804871D01*
X176671429Y-74804871D02*
X176557143Y-74804871D01*
X176557143Y-74804871D02*
X176480953Y-74842967D01*
X176480953Y-74842967D02*
X176442858Y-74881062D01*
X177166668Y-75338205D02*
X177166668Y-74804871D01*
X177166668Y-74538205D02*
X177128572Y-74576300D01*
X177128572Y-74576300D02*
X177166668Y-74614395D01*
X177166668Y-74614395D02*
X177204763Y-74576300D01*
X177204763Y-74576300D02*
X177166668Y-74538205D01*
X177166668Y-74538205D02*
X177166668Y-74614395D01*
X177547620Y-74804871D02*
X177547620Y-75338205D01*
X177547620Y-74881062D02*
X177585715Y-74842967D01*
X177585715Y-74842967D02*
X177661905Y-74804871D01*
X177661905Y-74804871D02*
X177776191Y-74804871D01*
X177776191Y-74804871D02*
X177852382Y-74842967D01*
X177852382Y-74842967D02*
X177890477Y-74919157D01*
X177890477Y-74919157D02*
X177890477Y-75338205D01*
X178614287Y-74804871D02*
X178614287Y-75452490D01*
X178614287Y-75452490D02*
X178576192Y-75528681D01*
X178576192Y-75528681D02*
X178538096Y-75566776D01*
X178538096Y-75566776D02*
X178461906Y-75604871D01*
X178461906Y-75604871D02*
X178347620Y-75604871D01*
X178347620Y-75604871D02*
X178271430Y-75566776D01*
X178614287Y-75300110D02*
X178538096Y-75338205D01*
X178538096Y-75338205D02*
X178385715Y-75338205D01*
X178385715Y-75338205D02*
X178309525Y-75300110D01*
X178309525Y-75300110D02*
X178271430Y-75262014D01*
X178271430Y-75262014D02*
X178233334Y-75185824D01*
X178233334Y-75185824D02*
X178233334Y-74957252D01*
X178233334Y-74957252D02*
X178271430Y-74881062D01*
X178271430Y-74881062D02*
X178309525Y-74842967D01*
X178309525Y-74842967D02*
X178385715Y-74804871D01*
X178385715Y-74804871D02*
X178538096Y-74804871D01*
X178538096Y-74804871D02*
X178614287Y-74842967D01*
X178957144Y-75300110D02*
X179033335Y-75338205D01*
X179033335Y-75338205D02*
X179185716Y-75338205D01*
X179185716Y-75338205D02*
X179261906Y-75300110D01*
X179261906Y-75300110D02*
X179300002Y-75223919D01*
X179300002Y-75223919D02*
X179300002Y-75185824D01*
X179300002Y-75185824D02*
X179261906Y-75109633D01*
X179261906Y-75109633D02*
X179185716Y-75071538D01*
X179185716Y-75071538D02*
X179071430Y-75071538D01*
X179071430Y-75071538D02*
X178995240Y-75033443D01*
X178995240Y-75033443D02*
X178957144Y-74957252D01*
X178957144Y-74957252D02*
X178957144Y-74919157D01*
X178957144Y-74919157D02*
X178995240Y-74842967D01*
X178995240Y-74842967D02*
X179071430Y-74804871D01*
X179071430Y-74804871D02*
X179185716Y-74804871D01*
X179185716Y-74804871D02*
X179261906Y-74842967D01*
X179642859Y-75262014D02*
X179680954Y-75300110D01*
X179680954Y-75300110D02*
X179642859Y-75338205D01*
X179642859Y-75338205D02*
X179604763Y-75300110D01*
X179604763Y-75300110D02*
X179642859Y-75262014D01*
X179642859Y-75262014D02*
X179642859Y-75338205D01*
X180023811Y-75262014D02*
X180061906Y-75300110D01*
X180061906Y-75300110D02*
X180023811Y-75338205D01*
X180023811Y-75338205D02*
X179985715Y-75300110D01*
X179985715Y-75300110D02*
X180023811Y-75262014D01*
X180023811Y-75262014D02*
X180023811Y-75338205D01*
X180404763Y-75262014D02*
X180442858Y-75300110D01*
X180442858Y-75300110D02*
X180404763Y-75338205D01*
X180404763Y-75338205D02*
X180366667Y-75300110D01*
X180366667Y-75300110D02*
X180404763Y-75262014D01*
X180404763Y-75262014D02*
X180404763Y-75338205D01*
X180785715Y-75262014D02*
X180823810Y-75300110D01*
X180823810Y-75300110D02*
X180785715Y-75338205D01*
X180785715Y-75338205D02*
X180747619Y-75300110D01*
X180747619Y-75300110D02*
X180785715Y-75262014D01*
X180785715Y-75262014D02*
X180785715Y-75338205D01*
D10*
X159327693Y-85920038D02*
X159232455Y-85872419D01*
X159232455Y-85872419D02*
X159089598Y-85872419D01*
X159089598Y-85872419D02*
X158946741Y-85920038D01*
X158946741Y-85920038D02*
X158851503Y-86015276D01*
X158851503Y-86015276D02*
X158803884Y-86110514D01*
X158803884Y-86110514D02*
X158756265Y-86300990D01*
X158756265Y-86300990D02*
X158756265Y-86443847D01*
X158756265Y-86443847D02*
X158803884Y-86634323D01*
X158803884Y-86634323D02*
X158851503Y-86729561D01*
X158851503Y-86729561D02*
X158946741Y-86824800D01*
X158946741Y-86824800D02*
X159089598Y-86872419D01*
X159089598Y-86872419D02*
X159184836Y-86872419D01*
X159184836Y-86872419D02*
X159327693Y-86824800D01*
X159327693Y-86824800D02*
X159375312Y-86777180D01*
X159375312Y-86777180D02*
X159375312Y-86443847D01*
X159375312Y-86443847D02*
X159184836Y-86443847D01*
X159803884Y-86872419D02*
X159803884Y-85872419D01*
X159803884Y-85872419D02*
X160375312Y-86872419D01*
X160375312Y-86872419D02*
X160375312Y-85872419D01*
X160851503Y-86872419D02*
X160851503Y-85872419D01*
X160851503Y-85872419D02*
X161089598Y-85872419D01*
X161089598Y-85872419D02*
X161232455Y-85920038D01*
X161232455Y-85920038D02*
X161327693Y-86015276D01*
X161327693Y-86015276D02*
X161375312Y-86110514D01*
X161375312Y-86110514D02*
X161422931Y-86300990D01*
X161422931Y-86300990D02*
X161422931Y-86443847D01*
X161422931Y-86443847D02*
X161375312Y-86634323D01*
X161375312Y-86634323D02*
X161327693Y-86729561D01*
X161327693Y-86729561D02*
X161232455Y-86824800D01*
X161232455Y-86824800D02*
X161089598Y-86872419D01*
X161089598Y-86872419D02*
X160851503Y-86872419D01*
X162851503Y-87205752D02*
X162851503Y-85777180D01*
X164232456Y-85872419D02*
X164851503Y-85872419D01*
X164851503Y-85872419D02*
X164518170Y-86253371D01*
X164518170Y-86253371D02*
X164661027Y-86253371D01*
X164661027Y-86253371D02*
X164756265Y-86300990D01*
X164756265Y-86300990D02*
X164803884Y-86348609D01*
X164803884Y-86348609D02*
X164851503Y-86443847D01*
X164851503Y-86443847D02*
X164851503Y-86681942D01*
X164851503Y-86681942D02*
X164803884Y-86777180D01*
X164803884Y-86777180D02*
X164756265Y-86824800D01*
X164756265Y-86824800D02*
X164661027Y-86872419D01*
X164661027Y-86872419D02*
X164375313Y-86872419D01*
X164375313Y-86872419D02*
X164280075Y-86824800D01*
X164280075Y-86824800D02*
X164232456Y-86777180D01*
X165184837Y-86205752D02*
X165422932Y-86872419D01*
X165422932Y-86872419D02*
X165661027Y-86205752D01*
X165946742Y-85872419D02*
X166565789Y-85872419D01*
X166565789Y-85872419D02*
X166232456Y-86253371D01*
X166232456Y-86253371D02*
X166375313Y-86253371D01*
X166375313Y-86253371D02*
X166470551Y-86300990D01*
X166470551Y-86300990D02*
X166518170Y-86348609D01*
X166518170Y-86348609D02*
X166565789Y-86443847D01*
X166565789Y-86443847D02*
X166565789Y-86681942D01*
X166565789Y-86681942D02*
X166518170Y-86777180D01*
X166518170Y-86777180D02*
X166470551Y-86824800D01*
X166470551Y-86824800D02*
X166375313Y-86872419D01*
X166375313Y-86872419D02*
X166089599Y-86872419D01*
X166089599Y-86872419D02*
X165994361Y-86824800D01*
X165994361Y-86824800D02*
X165946742Y-86777180D01*
D12*
X121614160Y-90897200D02*
X121757017Y-90944819D01*
X121757017Y-90944819D02*
X121995112Y-90944819D01*
X121995112Y-90944819D02*
X122090350Y-90897200D01*
X122090350Y-90897200D02*
X122137969Y-90849580D01*
X122137969Y-90849580D02*
X122185588Y-90754342D01*
X122185588Y-90754342D02*
X122185588Y-90659104D01*
X122185588Y-90659104D02*
X122137969Y-90563866D01*
X122137969Y-90563866D02*
X122090350Y-90516247D01*
X122090350Y-90516247D02*
X121995112Y-90468628D01*
X121995112Y-90468628D02*
X121804636Y-90421009D01*
X121804636Y-90421009D02*
X121709398Y-90373390D01*
X121709398Y-90373390D02*
X121661779Y-90325771D01*
X121661779Y-90325771D02*
X121614160Y-90230533D01*
X121614160Y-90230533D02*
X121614160Y-90135295D01*
X121614160Y-90135295D02*
X121661779Y-90040057D01*
X121661779Y-90040057D02*
X121709398Y-89992438D01*
X121709398Y-89992438D02*
X121804636Y-89944819D01*
X121804636Y-89944819D02*
X122042731Y-89944819D01*
X122042731Y-89944819D02*
X122185588Y-89992438D01*
X122471303Y-89944819D02*
X123042731Y-89944819D01*
X122757017Y-90944819D02*
X122757017Y-89944819D01*
X123280827Y-89944819D02*
X123947493Y-89944819D01*
X123947493Y-89944819D02*
X123518922Y-90944819D01*
X124233208Y-89944819D02*
X124899874Y-89944819D01*
X124899874Y-89944819D02*
X124471303Y-90944819D01*
X125423684Y-90373390D02*
X125328446Y-90325771D01*
X125328446Y-90325771D02*
X125280827Y-90278152D01*
X125280827Y-90278152D02*
X125233208Y-90182914D01*
X125233208Y-90182914D02*
X125233208Y-90135295D01*
X125233208Y-90135295D02*
X125280827Y-90040057D01*
X125280827Y-90040057D02*
X125328446Y-89992438D01*
X125328446Y-89992438D02*
X125423684Y-89944819D01*
X125423684Y-89944819D02*
X125614160Y-89944819D01*
X125614160Y-89944819D02*
X125709398Y-89992438D01*
X125709398Y-89992438D02*
X125757017Y-90040057D01*
X125757017Y-90040057D02*
X125804636Y-90135295D01*
X125804636Y-90135295D02*
X125804636Y-90182914D01*
X125804636Y-90182914D02*
X125757017Y-90278152D01*
X125757017Y-90278152D02*
X125709398Y-90325771D01*
X125709398Y-90325771D02*
X125614160Y-90373390D01*
X125614160Y-90373390D02*
X125423684Y-90373390D01*
X125423684Y-90373390D02*
X125328446Y-90421009D01*
X125328446Y-90421009D02*
X125280827Y-90468628D01*
X125280827Y-90468628D02*
X125233208Y-90563866D01*
X125233208Y-90563866D02*
X125233208Y-90754342D01*
X125233208Y-90754342D02*
X125280827Y-90849580D01*
X125280827Y-90849580D02*
X125328446Y-90897200D01*
X125328446Y-90897200D02*
X125423684Y-90944819D01*
X125423684Y-90944819D02*
X125614160Y-90944819D01*
X125614160Y-90944819D02*
X125709398Y-90897200D01*
X125709398Y-90897200D02*
X125757017Y-90849580D01*
X125757017Y-90849580D02*
X125804636Y-90754342D01*
X125804636Y-90754342D02*
X125804636Y-90563866D01*
X125804636Y-90563866D02*
X125757017Y-90468628D01*
X125757017Y-90468628D02*
X125709398Y-90421009D01*
X125709398Y-90421009D02*
X125614160Y-90373390D01*
X126280827Y-90944819D02*
X126471303Y-90944819D01*
X126471303Y-90944819D02*
X126566541Y-90897200D01*
X126566541Y-90897200D02*
X126614160Y-90849580D01*
X126614160Y-90849580D02*
X126709398Y-90706723D01*
X126709398Y-90706723D02*
X126757017Y-90516247D01*
X126757017Y-90516247D02*
X126757017Y-90135295D01*
X126757017Y-90135295D02*
X126709398Y-90040057D01*
X126709398Y-90040057D02*
X126661779Y-89992438D01*
X126661779Y-89992438D02*
X126566541Y-89944819D01*
X126566541Y-89944819D02*
X126376065Y-89944819D01*
X126376065Y-89944819D02*
X126280827Y-89992438D01*
X126280827Y-89992438D02*
X126233208Y-90040057D01*
X126233208Y-90040057D02*
X126185589Y-90135295D01*
X126185589Y-90135295D02*
X126185589Y-90373390D01*
X126185589Y-90373390D02*
X126233208Y-90468628D01*
X126233208Y-90468628D02*
X126280827Y-90516247D01*
X126280827Y-90516247D02*
X126376065Y-90563866D01*
X126376065Y-90563866D02*
X126566541Y-90563866D01*
X126566541Y-90563866D02*
X126661779Y-90516247D01*
X126661779Y-90516247D02*
X126709398Y-90468628D01*
X126709398Y-90468628D02*
X126757017Y-90373390D01*
X127804637Y-89944819D02*
X128376065Y-89944819D01*
X128090351Y-90944819D02*
X128090351Y-89944819D01*
X129042732Y-90421009D02*
X128709399Y-90421009D01*
X128709399Y-90944819D02*
X128709399Y-89944819D01*
X128709399Y-89944819D02*
X129185589Y-89944819D01*
X129423685Y-89944819D02*
X129995113Y-89944819D01*
X129709399Y-90944819D02*
X129709399Y-89944819D01*
X173254285Y-92259847D02*
X173254285Y-91259847D01*
X173254285Y-91736037D02*
X173825713Y-91736037D01*
X173825713Y-92259847D02*
X173825713Y-91259847D01*
X174682856Y-92212228D02*
X174587618Y-92259847D01*
X174587618Y-92259847D02*
X174397142Y-92259847D01*
X174397142Y-92259847D02*
X174301904Y-92212228D01*
X174301904Y-92212228D02*
X174254285Y-92116989D01*
X174254285Y-92116989D02*
X174254285Y-91736037D01*
X174254285Y-91736037D02*
X174301904Y-91640799D01*
X174301904Y-91640799D02*
X174397142Y-91593180D01*
X174397142Y-91593180D02*
X174587618Y-91593180D01*
X174587618Y-91593180D02*
X174682856Y-91640799D01*
X174682856Y-91640799D02*
X174730475Y-91736037D01*
X174730475Y-91736037D02*
X174730475Y-91831275D01*
X174730475Y-91831275D02*
X174254285Y-91926513D01*
X175063809Y-91593180D02*
X175301904Y-92259847D01*
X175539999Y-91593180D02*
X175301904Y-92259847D01*
X175301904Y-92259847D02*
X175206666Y-92497942D01*
X175206666Y-92497942D02*
X175159047Y-92545561D01*
X175159047Y-92545561D02*
X175063809Y-92593180D01*
X175968571Y-92212228D02*
X175968571Y-92259847D01*
X175968571Y-92259847D02*
X175920952Y-92355085D01*
X175920952Y-92355085D02*
X175873333Y-92402704D01*
X177159047Y-91593180D02*
X177159047Y-92593180D01*
X177159047Y-91640799D02*
X177254285Y-91593180D01*
X177254285Y-91593180D02*
X177444761Y-91593180D01*
X177444761Y-91593180D02*
X177539999Y-91640799D01*
X177539999Y-91640799D02*
X177587618Y-91688418D01*
X177587618Y-91688418D02*
X177635237Y-91783656D01*
X177635237Y-91783656D02*
X177635237Y-92069370D01*
X177635237Y-92069370D02*
X177587618Y-92164608D01*
X177587618Y-92164608D02*
X177539999Y-92212228D01*
X177539999Y-92212228D02*
X177444761Y-92259847D01*
X177444761Y-92259847D02*
X177254285Y-92259847D01*
X177254285Y-92259847D02*
X177159047Y-92212228D01*
X178492380Y-91593180D02*
X178492380Y-92259847D01*
X178063809Y-91593180D02*
X178063809Y-92116989D01*
X178063809Y-92116989D02*
X178111428Y-92212228D01*
X178111428Y-92212228D02*
X178206666Y-92259847D01*
X178206666Y-92259847D02*
X178349523Y-92259847D01*
X178349523Y-92259847D02*
X178444761Y-92212228D01*
X178444761Y-92212228D02*
X178492380Y-92164608D01*
X178825714Y-91593180D02*
X179206666Y-91593180D01*
X178968571Y-91259847D02*
X178968571Y-92116989D01*
X178968571Y-92116989D02*
X179016190Y-92212228D01*
X179016190Y-92212228D02*
X179111428Y-92259847D01*
X179111428Y-92259847D02*
X179206666Y-92259847D01*
X173325714Y-93869791D02*
X173325714Y-93203124D01*
X173325714Y-93298362D02*
X173373333Y-93250743D01*
X173373333Y-93250743D02*
X173468571Y-93203124D01*
X173468571Y-93203124D02*
X173611428Y-93203124D01*
X173611428Y-93203124D02*
X173706666Y-93250743D01*
X173706666Y-93250743D02*
X173754285Y-93345981D01*
X173754285Y-93345981D02*
X173754285Y-93869791D01*
X173754285Y-93345981D02*
X173801904Y-93250743D01*
X173801904Y-93250743D02*
X173897142Y-93203124D01*
X173897142Y-93203124D02*
X174039999Y-93203124D01*
X174039999Y-93203124D02*
X174135238Y-93250743D01*
X174135238Y-93250743D02*
X174182857Y-93345981D01*
X174182857Y-93345981D02*
X174182857Y-93869791D01*
X175039999Y-93822172D02*
X174944761Y-93869791D01*
X174944761Y-93869791D02*
X174754285Y-93869791D01*
X174754285Y-93869791D02*
X174659047Y-93822172D01*
X174659047Y-93822172D02*
X174611428Y-93726933D01*
X174611428Y-93726933D02*
X174611428Y-93345981D01*
X174611428Y-93345981D02*
X174659047Y-93250743D01*
X174659047Y-93250743D02*
X174754285Y-93203124D01*
X174754285Y-93203124D02*
X174944761Y-93203124D01*
X174944761Y-93203124D02*
X175039999Y-93250743D01*
X175039999Y-93250743D02*
X175087618Y-93345981D01*
X175087618Y-93345981D02*
X175087618Y-93441219D01*
X175087618Y-93441219D02*
X174611428Y-93536457D01*
X176278095Y-93869791D02*
X176278095Y-92869791D01*
X176278095Y-93250743D02*
X176373333Y-93203124D01*
X176373333Y-93203124D02*
X176563809Y-93203124D01*
X176563809Y-93203124D02*
X176659047Y-93250743D01*
X176659047Y-93250743D02*
X176706666Y-93298362D01*
X176706666Y-93298362D02*
X176754285Y-93393600D01*
X176754285Y-93393600D02*
X176754285Y-93679314D01*
X176754285Y-93679314D02*
X176706666Y-93774552D01*
X176706666Y-93774552D02*
X176659047Y-93822172D01*
X176659047Y-93822172D02*
X176563809Y-93869791D01*
X176563809Y-93869791D02*
X176373333Y-93869791D01*
X176373333Y-93869791D02*
X176278095Y-93822172D01*
X177611428Y-93869791D02*
X177611428Y-93345981D01*
X177611428Y-93345981D02*
X177563809Y-93250743D01*
X177563809Y-93250743D02*
X177468571Y-93203124D01*
X177468571Y-93203124D02*
X177278095Y-93203124D01*
X177278095Y-93203124D02*
X177182857Y-93250743D01*
X177611428Y-93822172D02*
X177516190Y-93869791D01*
X177516190Y-93869791D02*
X177278095Y-93869791D01*
X177278095Y-93869791D02*
X177182857Y-93822172D01*
X177182857Y-93822172D02*
X177135238Y-93726933D01*
X177135238Y-93726933D02*
X177135238Y-93631695D01*
X177135238Y-93631695D02*
X177182857Y-93536457D01*
X177182857Y-93536457D02*
X177278095Y-93488838D01*
X177278095Y-93488838D02*
X177516190Y-93488838D01*
X177516190Y-93488838D02*
X177611428Y-93441219D01*
X178516190Y-93822172D02*
X178420952Y-93869791D01*
X178420952Y-93869791D02*
X178230476Y-93869791D01*
X178230476Y-93869791D02*
X178135238Y-93822172D01*
X178135238Y-93822172D02*
X178087619Y-93774552D01*
X178087619Y-93774552D02*
X178040000Y-93679314D01*
X178040000Y-93679314D02*
X178040000Y-93393600D01*
X178040000Y-93393600D02*
X178087619Y-93298362D01*
X178087619Y-93298362D02*
X178135238Y-93250743D01*
X178135238Y-93250743D02*
X178230476Y-93203124D01*
X178230476Y-93203124D02*
X178420952Y-93203124D01*
X178420952Y-93203124D02*
X178516190Y-93250743D01*
X178944762Y-93869791D02*
X178944762Y-92869791D01*
X179040000Y-93488838D02*
X179325714Y-93869791D01*
X179325714Y-93203124D02*
X178944762Y-93584076D01*
X179754286Y-93774552D02*
X179801905Y-93822172D01*
X179801905Y-93822172D02*
X179754286Y-93869791D01*
X179754286Y-93869791D02*
X179706667Y-93822172D01*
X179706667Y-93822172D02*
X179754286Y-93774552D01*
X179754286Y-93774552D02*
X179754286Y-93869791D01*
X179754286Y-93488838D02*
X179706667Y-92917410D01*
X179706667Y-92917410D02*
X179754286Y-92869791D01*
X179754286Y-92869791D02*
X179801905Y-92917410D01*
X179801905Y-92917410D02*
X179754286Y-93488838D01*
X179754286Y-93488838D02*
X179754286Y-92869791D01*
D13*
X117704949Y-65617000D02*
X117847806Y-65664619D01*
X117847806Y-65664619D02*
X118085901Y-65664619D01*
X118085901Y-65664619D02*
X118181139Y-65617000D01*
X118181139Y-65617000D02*
X118228758Y-65569380D01*
X118228758Y-65569380D02*
X118276377Y-65474142D01*
X118276377Y-65474142D02*
X118276377Y-65378904D01*
X118276377Y-65378904D02*
X118228758Y-65283666D01*
X118228758Y-65283666D02*
X118181139Y-65236047D01*
X118181139Y-65236047D02*
X118085901Y-65188428D01*
X118085901Y-65188428D02*
X117895425Y-65140809D01*
X117895425Y-65140809D02*
X117800187Y-65093190D01*
X117800187Y-65093190D02*
X117752568Y-65045571D01*
X117752568Y-65045571D02*
X117704949Y-64950333D01*
X117704949Y-64950333D02*
X117704949Y-64855095D01*
X117704949Y-64855095D02*
X117752568Y-64759857D01*
X117752568Y-64759857D02*
X117800187Y-64712238D01*
X117800187Y-64712238D02*
X117895425Y-64664619D01*
X117895425Y-64664619D02*
X118133520Y-64664619D01*
X118133520Y-64664619D02*
X118276377Y-64712238D01*
X118704949Y-65664619D02*
X118704949Y-64664619D01*
X118704949Y-64664619D02*
X118943044Y-64664619D01*
X118943044Y-64664619D02*
X119085901Y-64712238D01*
X119085901Y-64712238D02*
X119181139Y-64807476D01*
X119181139Y-64807476D02*
X119228758Y-64902714D01*
X119228758Y-64902714D02*
X119276377Y-65093190D01*
X119276377Y-65093190D02*
X119276377Y-65236047D01*
X119276377Y-65236047D02*
X119228758Y-65426523D01*
X119228758Y-65426523D02*
X119181139Y-65521761D01*
X119181139Y-65521761D02*
X119085901Y-65617000D01*
X119085901Y-65617000D02*
X118943044Y-65664619D01*
X118943044Y-65664619D02*
X118704949Y-65664619D01*
X120276377Y-65664619D02*
X119943044Y-65188428D01*
X119704949Y-65664619D02*
X119704949Y-64664619D01*
X119704949Y-64664619D02*
X120085901Y-64664619D01*
X120085901Y-64664619D02*
X120181139Y-64712238D01*
X120181139Y-64712238D02*
X120228758Y-64759857D01*
X120228758Y-64759857D02*
X120276377Y-64855095D01*
X120276377Y-64855095D02*
X120276377Y-64997952D01*
X120276377Y-64997952D02*
X120228758Y-65093190D01*
X120228758Y-65093190D02*
X120181139Y-65140809D01*
X120181139Y-65140809D02*
X120085901Y-65188428D01*
X120085901Y-65188428D02*
X119704949Y-65188428D01*
X121419235Y-65378904D02*
X121895425Y-65378904D01*
X121323997Y-65664619D02*
X121657330Y-64664619D01*
X121657330Y-64664619D02*
X121990663Y-65664619D01*
X122323997Y-65664619D02*
X122323997Y-64664619D01*
X122323997Y-64664619D02*
X122657330Y-65378904D01*
X122657330Y-65378904D02*
X122990663Y-64664619D01*
X122990663Y-64664619D02*
X122990663Y-65664619D01*
X123466854Y-65664619D02*
X123466854Y-64664619D01*
X124657329Y-64617000D02*
X123800187Y-65902714D01*
X125323996Y-65140809D02*
X124990663Y-65140809D01*
X124990663Y-65664619D02*
X124990663Y-64664619D01*
X124990663Y-64664619D02*
X125466853Y-64664619D01*
X125847806Y-65664619D02*
X125847806Y-64664619D01*
X125847806Y-64664619D02*
X126181139Y-65378904D01*
X126181139Y-65378904D02*
X126514472Y-64664619D01*
X126514472Y-64664619D02*
X126514472Y-65664619D01*
X126990663Y-65664619D02*
X126990663Y-64664619D01*
D14*
X183449171Y-121911653D02*
X184163457Y-121411653D01*
X183449171Y-121054510D02*
X184949171Y-121054510D01*
X184949171Y-121054510D02*
X184949171Y-121625939D01*
X184949171Y-121625939D02*
X184877742Y-121768796D01*
X184877742Y-121768796D02*
X184806314Y-121840225D01*
X184806314Y-121840225D02*
X184663457Y-121911653D01*
X184663457Y-121911653D02*
X184449171Y-121911653D01*
X184449171Y-121911653D02*
X184306314Y-121840225D01*
X184306314Y-121840225D02*
X184234885Y-121768796D01*
X184234885Y-121768796D02*
X184163457Y-121625939D01*
X184163457Y-121625939D02*
X184163457Y-121054510D01*
X184949171Y-122411653D02*
X183449171Y-123411653D01*
X184949171Y-123411653D02*
X183449171Y-122411653D01*
X187127742Y-121840225D02*
X187199171Y-121697368D01*
X187199171Y-121697368D02*
X187199171Y-121483082D01*
X187199171Y-121483082D02*
X187127742Y-121268796D01*
X187127742Y-121268796D02*
X186984885Y-121125939D01*
X186984885Y-121125939D02*
X186842028Y-121054510D01*
X186842028Y-121054510D02*
X186556314Y-120983082D01*
X186556314Y-120983082D02*
X186342028Y-120983082D01*
X186342028Y-120983082D02*
X186056314Y-121054510D01*
X186056314Y-121054510D02*
X185913457Y-121125939D01*
X185913457Y-121125939D02*
X185770600Y-121268796D01*
X185770600Y-121268796D02*
X185699171Y-121483082D01*
X185699171Y-121483082D02*
X185699171Y-121625939D01*
X185699171Y-121625939D02*
X185770600Y-121840225D01*
X185770600Y-121840225D02*
X185842028Y-121911653D01*
X185842028Y-121911653D02*
X186342028Y-121911653D01*
X186342028Y-121911653D02*
X186342028Y-121625939D01*
X189699171Y-120590225D02*
X189699171Y-121447368D01*
X188199171Y-121018796D02*
X189699171Y-121018796D01*
X189699171Y-121804510D02*
X188199171Y-122804510D01*
X189699171Y-122804510D02*
X188199171Y-121804510D01*
X183554510Y-125800828D02*
X183554510Y-127015114D01*
X183554510Y-127015114D02*
X183625939Y-127157971D01*
X183625939Y-127157971D02*
X183697368Y-127229400D01*
X183697368Y-127229400D02*
X183840225Y-127300828D01*
X183840225Y-127300828D02*
X184125939Y-127300828D01*
X184125939Y-127300828D02*
X184268796Y-127229400D01*
X184268796Y-127229400D02*
X184340225Y-127157971D01*
X184340225Y-127157971D02*
X184411653Y-127015114D01*
X184411653Y-127015114D02*
X184411653Y-125800828D01*
X185054511Y-127229400D02*
X185268797Y-127300828D01*
X185268797Y-127300828D02*
X185625939Y-127300828D01*
X185625939Y-127300828D02*
X185768797Y-127229400D01*
X185768797Y-127229400D02*
X185840225Y-127157971D01*
X185840225Y-127157971D02*
X185911654Y-127015114D01*
X185911654Y-127015114D02*
X185911654Y-126872257D01*
X185911654Y-126872257D02*
X185840225Y-126729400D01*
X185840225Y-126729400D02*
X185768797Y-126657971D01*
X185768797Y-126657971D02*
X185625939Y-126586542D01*
X185625939Y-126586542D02*
X185340225Y-126515114D01*
X185340225Y-126515114D02*
X185197368Y-126443685D01*
X185197368Y-126443685D02*
X185125939Y-126372257D01*
X185125939Y-126372257D02*
X185054511Y-126229400D01*
X185054511Y-126229400D02*
X185054511Y-126086542D01*
X185054511Y-126086542D02*
X185125939Y-125943685D01*
X185125939Y-125943685D02*
X185197368Y-125872257D01*
X185197368Y-125872257D02*
X185340225Y-125800828D01*
X185340225Y-125800828D02*
X185697368Y-125800828D01*
X185697368Y-125800828D02*
X185911654Y-125872257D01*
X186483082Y-126872257D02*
X187197368Y-126872257D01*
X186340225Y-127300828D02*
X186840225Y-125800828D01*
X186840225Y-125800828D02*
X187340225Y-127300828D01*
X188697367Y-127300828D02*
X188197367Y-126586542D01*
X187840224Y-127300828D02*
X187840224Y-125800828D01*
X187840224Y-125800828D02*
X188411653Y-125800828D01*
X188411653Y-125800828D02*
X188554510Y-125872257D01*
X188554510Y-125872257D02*
X188625939Y-125943685D01*
X188625939Y-125943685D02*
X188697367Y-126086542D01*
X188697367Y-126086542D02*
X188697367Y-126300828D01*
X188697367Y-126300828D02*
X188625939Y-126443685D01*
X188625939Y-126443685D02*
X188554510Y-126515114D01*
X188554510Y-126515114D02*
X188411653Y-126586542D01*
X188411653Y-126586542D02*
X187840224Y-126586542D01*
X189125939Y-125800828D02*
X189983082Y-125800828D01*
X189554510Y-127300828D02*
X189554510Y-125800828D01*
D15*
X94934021Y-69930228D02*
X93934021Y-69930228D01*
X93934021Y-71501657D02*
X93934021Y-68501657D01*
X93934021Y-68501657D02*
X95362593Y-68501657D01*
X96505450Y-71215942D02*
X96648307Y-71358800D01*
X96648307Y-71358800D02*
X96505450Y-71501657D01*
X96505450Y-71501657D02*
X96362593Y-71358800D01*
X96362593Y-71358800D02*
X96505450Y-71215942D01*
X96505450Y-71215942D02*
X96505450Y-71501657D01*
X99648307Y-71215942D02*
X99505450Y-71358800D01*
X99505450Y-71358800D02*
X99076878Y-71501657D01*
X99076878Y-71501657D02*
X98791164Y-71501657D01*
X98791164Y-71501657D02*
X98362593Y-71358800D01*
X98362593Y-71358800D02*
X98076878Y-71073085D01*
X98076878Y-71073085D02*
X97934021Y-70787371D01*
X97934021Y-70787371D02*
X97791164Y-70215942D01*
X97791164Y-70215942D02*
X97791164Y-69787371D01*
X97791164Y-69787371D02*
X97934021Y-69215942D01*
X97934021Y-69215942D02*
X98076878Y-68930228D01*
X98076878Y-68930228D02*
X98362593Y-68644514D01*
X98362593Y-68644514D02*
X98791164Y-68501657D01*
X98791164Y-68501657D02*
X99076878Y-68501657D01*
X99076878Y-68501657D02*
X99505450Y-68644514D01*
X99505450Y-68644514D02*
X99648307Y-68787371D01*
X102219736Y-69501657D02*
X102219736Y-71501657D01*
X100934021Y-69501657D02*
X100934021Y-71073085D01*
X100934021Y-71073085D02*
X101076878Y-71358800D01*
X101076878Y-71358800D02*
X101362593Y-71501657D01*
X101362593Y-71501657D02*
X101791164Y-71501657D01*
X101791164Y-71501657D02*
X102076878Y-71358800D01*
X102076878Y-71358800D02*
X102219736Y-71215942D01*
D12*
X144416666Y-127307200D02*
X144559523Y-127354819D01*
X144559523Y-127354819D02*
X144797618Y-127354819D01*
X144797618Y-127354819D02*
X144892856Y-127307200D01*
X144892856Y-127307200D02*
X144940475Y-127259580D01*
X144940475Y-127259580D02*
X144988094Y-127164342D01*
X144988094Y-127164342D02*
X144988094Y-127069104D01*
X144988094Y-127069104D02*
X144940475Y-126973866D01*
X144940475Y-126973866D02*
X144892856Y-126926247D01*
X144892856Y-126926247D02*
X144797618Y-126878628D01*
X144797618Y-126878628D02*
X144607142Y-126831009D01*
X144607142Y-126831009D02*
X144511904Y-126783390D01*
X144511904Y-126783390D02*
X144464285Y-126735771D01*
X144464285Y-126735771D02*
X144416666Y-126640533D01*
X144416666Y-126640533D02*
X144416666Y-126545295D01*
X144416666Y-126545295D02*
X144464285Y-126450057D01*
X144464285Y-126450057D02*
X144511904Y-126402438D01*
X144511904Y-126402438D02*
X144607142Y-126354819D01*
X144607142Y-126354819D02*
X144845237Y-126354819D01*
X144845237Y-126354819D02*
X144988094Y-126402438D01*
X145273809Y-126354819D02*
X145845237Y-126354819D01*
X145559523Y-127354819D02*
X145559523Y-126354819D01*
X146178571Y-127354819D02*
X146178571Y-126354819D01*
X146178571Y-126354819D02*
X146511904Y-127069104D01*
X146511904Y-127069104D02*
X146845237Y-126354819D01*
X146845237Y-126354819D02*
X146845237Y-127354819D01*
X147226190Y-126354819D02*
X147845237Y-126354819D01*
X147845237Y-126354819D02*
X147511904Y-126735771D01*
X147511904Y-126735771D02*
X147654761Y-126735771D01*
X147654761Y-126735771D02*
X147749999Y-126783390D01*
X147749999Y-126783390D02*
X147797618Y-126831009D01*
X147797618Y-126831009D02*
X147845237Y-126926247D01*
X147845237Y-126926247D02*
X147845237Y-127164342D01*
X147845237Y-127164342D02*
X147797618Y-127259580D01*
X147797618Y-127259580D02*
X147749999Y-127307200D01*
X147749999Y-127307200D02*
X147654761Y-127354819D01*
X147654761Y-127354819D02*
X147369047Y-127354819D01*
X147369047Y-127354819D02*
X147273809Y-127307200D01*
X147273809Y-127307200D02*
X147226190Y-127259580D01*
X148226190Y-126450057D02*
X148273809Y-126402438D01*
X148273809Y-126402438D02*
X148369047Y-126354819D01*
X148369047Y-126354819D02*
X148607142Y-126354819D01*
X148607142Y-126354819D02*
X148702380Y-126402438D01*
X148702380Y-126402438D02*
X148749999Y-126450057D01*
X148749999Y-126450057D02*
X148797618Y-126545295D01*
X148797618Y-126545295D02*
X148797618Y-126640533D01*
X148797618Y-126640533D02*
X148749999Y-126783390D01*
X148749999Y-126783390D02*
X148178571Y-127354819D01*
X148178571Y-127354819D02*
X148797618Y-127354819D01*
X149559523Y-126831009D02*
X149226190Y-126831009D01*
X149226190Y-127354819D02*
X149226190Y-126354819D01*
X149226190Y-126354819D02*
X149702380Y-126354819D01*
X150511904Y-126688152D02*
X150511904Y-127354819D01*
X150273809Y-126307200D02*
X150035714Y-127021485D01*
X150035714Y-127021485D02*
X150654761Y-127021485D01*
X151226190Y-126354819D02*
X151321428Y-126354819D01*
X151321428Y-126354819D02*
X151416666Y-126402438D01*
X151416666Y-126402438D02*
X151464285Y-126450057D01*
X151464285Y-126450057D02*
X151511904Y-126545295D01*
X151511904Y-126545295D02*
X151559523Y-126735771D01*
X151559523Y-126735771D02*
X151559523Y-126973866D01*
X151559523Y-126973866D02*
X151511904Y-127164342D01*
X151511904Y-127164342D02*
X151464285Y-127259580D01*
X151464285Y-127259580D02*
X151416666Y-127307200D01*
X151416666Y-127307200D02*
X151321428Y-127354819D01*
X151321428Y-127354819D02*
X151226190Y-127354819D01*
X151226190Y-127354819D02*
X151130952Y-127307200D01*
X151130952Y-127307200D02*
X151083333Y-127259580D01*
X151083333Y-127259580D02*
X151035714Y-127164342D01*
X151035714Y-127164342D02*
X150988095Y-126973866D01*
X150988095Y-126973866D02*
X150988095Y-126735771D01*
X150988095Y-126735771D02*
X151035714Y-126545295D01*
X151035714Y-126545295D02*
X151083333Y-126450057D01*
X151083333Y-126450057D02*
X151130952Y-126402438D01*
X151130952Y-126402438D02*
X151226190Y-126354819D01*
X152464285Y-126354819D02*
X151988095Y-126354819D01*
X151988095Y-126354819D02*
X151940476Y-126831009D01*
X151940476Y-126831009D02*
X151988095Y-126783390D01*
X151988095Y-126783390D02*
X152083333Y-126735771D01*
X152083333Y-126735771D02*
X152321428Y-126735771D01*
X152321428Y-126735771D02*
X152416666Y-126783390D01*
X152416666Y-126783390D02*
X152464285Y-126831009D01*
X152464285Y-126831009D02*
X152511904Y-126926247D01*
X152511904Y-126926247D02*
X152511904Y-127164342D01*
X152511904Y-127164342D02*
X152464285Y-127259580D01*
X152464285Y-127259580D02*
X152416666Y-127307200D01*
X152416666Y-127307200D02*
X152321428Y-127354819D01*
X152321428Y-127354819D02*
X152083333Y-127354819D01*
X152083333Y-127354819D02*
X151988095Y-127307200D01*
X151988095Y-127307200D02*
X151940476Y-127259580D01*
X153511904Y-127354819D02*
X153178571Y-126878628D01*
X152940476Y-127354819D02*
X152940476Y-126354819D01*
X152940476Y-126354819D02*
X153321428Y-126354819D01*
X153321428Y-126354819D02*
X153416666Y-126402438D01*
X153416666Y-126402438D02*
X153464285Y-126450057D01*
X153464285Y-126450057D02*
X153511904Y-126545295D01*
X153511904Y-126545295D02*
X153511904Y-126688152D01*
X153511904Y-126688152D02*
X153464285Y-126783390D01*
X153464285Y-126783390D02*
X153416666Y-126831009D01*
X153416666Y-126831009D02*
X153321428Y-126878628D01*
X153321428Y-126878628D02*
X152940476Y-126878628D01*
X154464285Y-126402438D02*
X154369047Y-126354819D01*
X154369047Y-126354819D02*
X154226190Y-126354819D01*
X154226190Y-126354819D02*
X154083333Y-126402438D01*
X154083333Y-126402438D02*
X153988095Y-126497676D01*
X153988095Y-126497676D02*
X153940476Y-126592914D01*
X153940476Y-126592914D02*
X153892857Y-126783390D01*
X153892857Y-126783390D02*
X153892857Y-126926247D01*
X153892857Y-126926247D02*
X153940476Y-127116723D01*
X153940476Y-127116723D02*
X153988095Y-127211961D01*
X153988095Y-127211961D02*
X154083333Y-127307200D01*
X154083333Y-127307200D02*
X154226190Y-127354819D01*
X154226190Y-127354819D02*
X154321428Y-127354819D01*
X154321428Y-127354819D02*
X154464285Y-127307200D01*
X154464285Y-127307200D02*
X154511904Y-127259580D01*
X154511904Y-127259580D02*
X154511904Y-126926247D01*
X154511904Y-126926247D02*
X154321428Y-126926247D01*
X154797619Y-126354819D02*
X155369047Y-126354819D01*
X155083333Y-127354819D02*
X155083333Y-126354819D01*
X155607143Y-127354819D02*
X156130952Y-126688152D01*
X155607143Y-126688152D02*
X156130952Y-127354819D01*
X109257142Y-128104819D02*
X108923809Y-127628628D01*
X108685714Y-128104819D02*
X108685714Y-127104819D01*
X108685714Y-127104819D02*
X109066666Y-127104819D01*
X109066666Y-127104819D02*
X109161904Y-127152438D01*
X109161904Y-127152438D02*
X109209523Y-127200057D01*
X109209523Y-127200057D02*
X109257142Y-127295295D01*
X109257142Y-127295295D02*
X109257142Y-127438152D01*
X109257142Y-127438152D02*
X109209523Y-127533390D01*
X109209523Y-127533390D02*
X109161904Y-127581009D01*
X109161904Y-127581009D02*
X109066666Y-127628628D01*
X109066666Y-127628628D02*
X108685714Y-127628628D01*
X109590476Y-127104819D02*
X110209523Y-127104819D01*
X110209523Y-127104819D02*
X109876190Y-127485771D01*
X109876190Y-127485771D02*
X110019047Y-127485771D01*
X110019047Y-127485771D02*
X110114285Y-127533390D01*
X110114285Y-127533390D02*
X110161904Y-127581009D01*
X110161904Y-127581009D02*
X110209523Y-127676247D01*
X110209523Y-127676247D02*
X110209523Y-127914342D01*
X110209523Y-127914342D02*
X110161904Y-128009580D01*
X110161904Y-128009580D02*
X110114285Y-128057200D01*
X110114285Y-128057200D02*
X110019047Y-128104819D01*
X110019047Y-128104819D02*
X109733333Y-128104819D01*
X109733333Y-128104819D02*
X109638095Y-128057200D01*
X109638095Y-128057200D02*
X109590476Y-128009580D01*
X111161904Y-128104819D02*
X110590476Y-128104819D01*
X110876190Y-128104819D02*
X110876190Y-127104819D01*
X110876190Y-127104819D02*
X110780952Y-127247676D01*
X110780952Y-127247676D02*
X110685714Y-127342914D01*
X110685714Y-127342914D02*
X110590476Y-127390533D01*
X112626905Y-57994819D02*
X112626905Y-56994819D01*
X112626905Y-56994819D02*
X112865000Y-56994819D01*
X112865000Y-56994819D02*
X113007857Y-57042438D01*
X113007857Y-57042438D02*
X113103095Y-57137676D01*
X113103095Y-57137676D02*
X113150714Y-57232914D01*
X113150714Y-57232914D02*
X113198333Y-57423390D01*
X113198333Y-57423390D02*
X113198333Y-57566247D01*
X113198333Y-57566247D02*
X113150714Y-57756723D01*
X113150714Y-57756723D02*
X113103095Y-57851961D01*
X113103095Y-57851961D02*
X113007857Y-57947200D01*
X113007857Y-57947200D02*
X112865000Y-57994819D01*
X112865000Y-57994819D02*
X112626905Y-57994819D01*
X114103095Y-56994819D02*
X113626905Y-56994819D01*
X113626905Y-56994819D02*
X113579286Y-57471009D01*
X113579286Y-57471009D02*
X113626905Y-57423390D01*
X113626905Y-57423390D02*
X113722143Y-57375771D01*
X113722143Y-57375771D02*
X113960238Y-57375771D01*
X113960238Y-57375771D02*
X114055476Y-57423390D01*
X114055476Y-57423390D02*
X114103095Y-57471009D01*
X114103095Y-57471009D02*
X114150714Y-57566247D01*
X114150714Y-57566247D02*
X114150714Y-57804342D01*
X114150714Y-57804342D02*
X114103095Y-57899580D01*
X114103095Y-57899580D02*
X114055476Y-57947200D01*
X114055476Y-57947200D02*
X113960238Y-57994819D01*
X113960238Y-57994819D02*
X113722143Y-57994819D01*
X113722143Y-57994819D02*
X113626905Y-57947200D01*
X113626905Y-57947200D02*
X113579286Y-57899580D01*
X117454819Y-120738094D02*
X116454819Y-120738094D01*
X116454819Y-120738094D02*
X116454819Y-120499999D01*
X116454819Y-120499999D02*
X116502438Y-120357142D01*
X116502438Y-120357142D02*
X116597676Y-120261904D01*
X116597676Y-120261904D02*
X116692914Y-120214285D01*
X116692914Y-120214285D02*
X116883390Y-120166666D01*
X116883390Y-120166666D02*
X117026247Y-120166666D01*
X117026247Y-120166666D02*
X117216723Y-120214285D01*
X117216723Y-120214285D02*
X117311961Y-120261904D01*
X117311961Y-120261904D02*
X117407200Y-120357142D01*
X117407200Y-120357142D02*
X117454819Y-120499999D01*
X117454819Y-120499999D02*
X117454819Y-120738094D01*
X116883390Y-119595237D02*
X116835771Y-119690475D01*
X116835771Y-119690475D02*
X116788152Y-119738094D01*
X116788152Y-119738094D02*
X116692914Y-119785713D01*
X116692914Y-119785713D02*
X116645295Y-119785713D01*
X116645295Y-119785713D02*
X116550057Y-119738094D01*
X116550057Y-119738094D02*
X116502438Y-119690475D01*
X116502438Y-119690475D02*
X116454819Y-119595237D01*
X116454819Y-119595237D02*
X116454819Y-119404761D01*
X116454819Y-119404761D02*
X116502438Y-119309523D01*
X116502438Y-119309523D02*
X116550057Y-119261904D01*
X116550057Y-119261904D02*
X116645295Y-119214285D01*
X116645295Y-119214285D02*
X116692914Y-119214285D01*
X116692914Y-119214285D02*
X116788152Y-119261904D01*
X116788152Y-119261904D02*
X116835771Y-119309523D01*
X116835771Y-119309523D02*
X116883390Y-119404761D01*
X116883390Y-119404761D02*
X116883390Y-119595237D01*
X116883390Y-119595237D02*
X116931009Y-119690475D01*
X116931009Y-119690475D02*
X116978628Y-119738094D01*
X116978628Y-119738094D02*
X117073866Y-119785713D01*
X117073866Y-119785713D02*
X117264342Y-119785713D01*
X117264342Y-119785713D02*
X117359580Y-119738094D01*
X117359580Y-119738094D02*
X117407200Y-119690475D01*
X117407200Y-119690475D02*
X117454819Y-119595237D01*
X117454819Y-119595237D02*
X117454819Y-119404761D01*
X117454819Y-119404761D02*
X117407200Y-119309523D01*
X117407200Y-119309523D02*
X117359580Y-119261904D01*
X117359580Y-119261904D02*
X117264342Y-119214285D01*
X117264342Y-119214285D02*
X117073866Y-119214285D01*
X117073866Y-119214285D02*
X116978628Y-119261904D01*
X116978628Y-119261904D02*
X116931009Y-119309523D01*
X116931009Y-119309523D02*
X116883390Y-119404761D01*
X163290476Y-102329819D02*
X163290476Y-103044104D01*
X163290476Y-103044104D02*
X163242857Y-103186961D01*
X163242857Y-103186961D02*
X163147619Y-103282200D01*
X163147619Y-103282200D02*
X163004762Y-103329819D01*
X163004762Y-103329819D02*
X162909524Y-103329819D01*
X164290476Y-103329819D02*
X163719048Y-103329819D01*
X164004762Y-103329819D02*
X164004762Y-102329819D01*
X164004762Y-102329819D02*
X163909524Y-102472676D01*
X163909524Y-102472676D02*
X163814286Y-102567914D01*
X163814286Y-102567914D02*
X163719048Y-102615533D01*
X164623810Y-102329819D02*
X165242857Y-102329819D01*
X165242857Y-102329819D02*
X164909524Y-102710771D01*
X164909524Y-102710771D02*
X165052381Y-102710771D01*
X165052381Y-102710771D02*
X165147619Y-102758390D01*
X165147619Y-102758390D02*
X165195238Y-102806009D01*
X165195238Y-102806009D02*
X165242857Y-102901247D01*
X165242857Y-102901247D02*
X165242857Y-103139342D01*
X165242857Y-103139342D02*
X165195238Y-103234580D01*
X165195238Y-103234580D02*
X165147619Y-103282200D01*
X165147619Y-103282200D02*
X165052381Y-103329819D01*
X165052381Y-103329819D02*
X164766667Y-103329819D01*
X164766667Y-103329819D02*
X164671429Y-103282200D01*
X164671429Y-103282200D02*
X164623810Y-103234580D01*
X114670476Y-125844819D02*
X114670476Y-124844819D01*
X114670476Y-124844819D02*
X115003809Y-125559104D01*
X115003809Y-125559104D02*
X115337142Y-124844819D01*
X115337142Y-124844819D02*
X115337142Y-125844819D01*
X115765714Y-125559104D02*
X116241904Y-125559104D01*
X115670476Y-125844819D02*
X116003809Y-124844819D01*
X116003809Y-124844819D02*
X116337142Y-125844819D01*
X116575238Y-124844819D02*
X117241904Y-125844819D01*
X117241904Y-124844819D02*
X116575238Y-125844819D01*
X118146666Y-125844819D02*
X117575238Y-125844819D01*
X117860952Y-125844819D02*
X117860952Y-124844819D01*
X117860952Y-124844819D02*
X117765714Y-124987676D01*
X117765714Y-124987676D02*
X117670476Y-125082914D01*
X117670476Y-125082914D02*
X117575238Y-125130533D01*
X118480000Y-124844819D02*
X119146666Y-124844819D01*
X119146666Y-124844819D02*
X118718095Y-125844819D01*
X119480000Y-124940057D02*
X119527619Y-124892438D01*
X119527619Y-124892438D02*
X119622857Y-124844819D01*
X119622857Y-124844819D02*
X119860952Y-124844819D01*
X119860952Y-124844819D02*
X119956190Y-124892438D01*
X119956190Y-124892438D02*
X120003809Y-124940057D01*
X120003809Y-124940057D02*
X120051428Y-125035295D01*
X120051428Y-125035295D02*
X120051428Y-125130533D01*
X120051428Y-125130533D02*
X120003809Y-125273390D01*
X120003809Y-125273390D02*
X119432381Y-125844819D01*
X119432381Y-125844819D02*
X120051428Y-125844819D01*
X120908571Y-124844819D02*
X120718095Y-124844819D01*
X120718095Y-124844819D02*
X120622857Y-124892438D01*
X120622857Y-124892438D02*
X120575238Y-124940057D01*
X120575238Y-124940057D02*
X120480000Y-125082914D01*
X120480000Y-125082914D02*
X120432381Y-125273390D01*
X120432381Y-125273390D02*
X120432381Y-125654342D01*
X120432381Y-125654342D02*
X120480000Y-125749580D01*
X120480000Y-125749580D02*
X120527619Y-125797200D01*
X120527619Y-125797200D02*
X120622857Y-125844819D01*
X120622857Y-125844819D02*
X120813333Y-125844819D01*
X120813333Y-125844819D02*
X120908571Y-125797200D01*
X120908571Y-125797200D02*
X120956190Y-125749580D01*
X120956190Y-125749580D02*
X121003809Y-125654342D01*
X121003809Y-125654342D02*
X121003809Y-125416247D01*
X121003809Y-125416247D02*
X120956190Y-125321009D01*
X120956190Y-125321009D02*
X120908571Y-125273390D01*
X120908571Y-125273390D02*
X120813333Y-125225771D01*
X120813333Y-125225771D02*
X120622857Y-125225771D01*
X120622857Y-125225771D02*
X120527619Y-125273390D01*
X120527619Y-125273390D02*
X120480000Y-125321009D01*
X120480000Y-125321009D02*
X120432381Y-125416247D01*
X121622857Y-124844819D02*
X121718095Y-124844819D01*
X121718095Y-124844819D02*
X121813333Y-124892438D01*
X121813333Y-124892438D02*
X121860952Y-124940057D01*
X121860952Y-124940057D02*
X121908571Y-125035295D01*
X121908571Y-125035295D02*
X121956190Y-125225771D01*
X121956190Y-125225771D02*
X121956190Y-125463866D01*
X121956190Y-125463866D02*
X121908571Y-125654342D01*
X121908571Y-125654342D02*
X121860952Y-125749580D01*
X121860952Y-125749580D02*
X121813333Y-125797200D01*
X121813333Y-125797200D02*
X121718095Y-125844819D01*
X121718095Y-125844819D02*
X121622857Y-125844819D01*
X121622857Y-125844819D02*
X121527619Y-125797200D01*
X121527619Y-125797200D02*
X121480000Y-125749580D01*
X121480000Y-125749580D02*
X121432381Y-125654342D01*
X121432381Y-125654342D02*
X121384762Y-125463866D01*
X121384762Y-125463866D02*
X121384762Y-125225771D01*
X121384762Y-125225771D02*
X121432381Y-125035295D01*
X121432381Y-125035295D02*
X121480000Y-124940057D01*
X121480000Y-124940057D02*
X121527619Y-124892438D01*
X121527619Y-124892438D02*
X121622857Y-124844819D01*
X122289524Y-125844819D02*
X122813333Y-125178152D01*
X122289524Y-125178152D02*
X122813333Y-125844819D01*
X123099048Y-125844819D02*
X123622857Y-125178152D01*
X123099048Y-125178152D02*
X123622857Y-125844819D01*
X123860953Y-124844819D02*
X124432381Y-124844819D01*
X124146667Y-125844819D02*
X124146667Y-124844819D01*
X124765715Y-125844819D02*
X124765715Y-124844819D01*
X124765715Y-124844819D02*
X125003810Y-124844819D01*
X125003810Y-124844819D02*
X125146667Y-124892438D01*
X125146667Y-124892438D02*
X125241905Y-124987676D01*
X125241905Y-124987676D02*
X125289524Y-125082914D01*
X125289524Y-125082914D02*
X125337143Y-125273390D01*
X125337143Y-125273390D02*
X125337143Y-125416247D01*
X125337143Y-125416247D02*
X125289524Y-125606723D01*
X125289524Y-125606723D02*
X125241905Y-125701961D01*
X125241905Y-125701961D02*
X125146667Y-125797200D01*
X125146667Y-125797200D02*
X125003810Y-125844819D01*
X125003810Y-125844819D02*
X124765715Y-125844819D01*
X150395833Y-109004819D02*
X149919643Y-109004819D01*
X149919643Y-109004819D02*
X149919643Y-108004819D01*
X150872024Y-108433390D02*
X150776786Y-108385771D01*
X150776786Y-108385771D02*
X150729167Y-108338152D01*
X150729167Y-108338152D02*
X150681548Y-108242914D01*
X150681548Y-108242914D02*
X150681548Y-108195295D01*
X150681548Y-108195295D02*
X150729167Y-108100057D01*
X150729167Y-108100057D02*
X150776786Y-108052438D01*
X150776786Y-108052438D02*
X150872024Y-108004819D01*
X150872024Y-108004819D02*
X151062500Y-108004819D01*
X151062500Y-108004819D02*
X151157738Y-108052438D01*
X151157738Y-108052438D02*
X151205357Y-108100057D01*
X151205357Y-108100057D02*
X151252976Y-108195295D01*
X151252976Y-108195295D02*
X151252976Y-108242914D01*
X151252976Y-108242914D02*
X151205357Y-108338152D01*
X151205357Y-108338152D02*
X151157738Y-108385771D01*
X151157738Y-108385771D02*
X151062500Y-108433390D01*
X151062500Y-108433390D02*
X150872024Y-108433390D01*
X150872024Y-108433390D02*
X150776786Y-108481009D01*
X150776786Y-108481009D02*
X150729167Y-108528628D01*
X150729167Y-108528628D02*
X150681548Y-108623866D01*
X150681548Y-108623866D02*
X150681548Y-108814342D01*
X150681548Y-108814342D02*
X150729167Y-108909580D01*
X150729167Y-108909580D02*
X150776786Y-108957200D01*
X150776786Y-108957200D02*
X150872024Y-109004819D01*
X150872024Y-109004819D02*
X151062500Y-109004819D01*
X151062500Y-109004819D02*
X151157738Y-108957200D01*
X151157738Y-108957200D02*
X151205357Y-108909580D01*
X151205357Y-108909580D02*
X151252976Y-108814342D01*
X151252976Y-108814342D02*
X151252976Y-108623866D01*
X151252976Y-108623866D02*
X151205357Y-108528628D01*
X151205357Y-108528628D02*
X151157738Y-108481009D01*
X151157738Y-108481009D02*
X151062500Y-108433390D01*
X150088095Y-80657200D02*
X150230952Y-80704819D01*
X150230952Y-80704819D02*
X150469047Y-80704819D01*
X150469047Y-80704819D02*
X150564285Y-80657200D01*
X150564285Y-80657200D02*
X150611904Y-80609580D01*
X150611904Y-80609580D02*
X150659523Y-80514342D01*
X150659523Y-80514342D02*
X150659523Y-80419104D01*
X150659523Y-80419104D02*
X150611904Y-80323866D01*
X150611904Y-80323866D02*
X150564285Y-80276247D01*
X150564285Y-80276247D02*
X150469047Y-80228628D01*
X150469047Y-80228628D02*
X150278571Y-80181009D01*
X150278571Y-80181009D02*
X150183333Y-80133390D01*
X150183333Y-80133390D02*
X150135714Y-80085771D01*
X150135714Y-80085771D02*
X150088095Y-79990533D01*
X150088095Y-79990533D02*
X150088095Y-79895295D01*
X150088095Y-79895295D02*
X150135714Y-79800057D01*
X150135714Y-79800057D02*
X150183333Y-79752438D01*
X150183333Y-79752438D02*
X150278571Y-79704819D01*
X150278571Y-79704819D02*
X150516666Y-79704819D01*
X150516666Y-79704819D02*
X150659523Y-79752438D01*
X151088095Y-80038152D02*
X151088095Y-81038152D01*
X151088095Y-80085771D02*
X151183333Y-80038152D01*
X151183333Y-80038152D02*
X151373809Y-80038152D01*
X151373809Y-80038152D02*
X151469047Y-80085771D01*
X151469047Y-80085771D02*
X151516666Y-80133390D01*
X151516666Y-80133390D02*
X151564285Y-80228628D01*
X151564285Y-80228628D02*
X151564285Y-80514342D01*
X151564285Y-80514342D02*
X151516666Y-80609580D01*
X151516666Y-80609580D02*
X151469047Y-80657200D01*
X151469047Y-80657200D02*
X151373809Y-80704819D01*
X151373809Y-80704819D02*
X151183333Y-80704819D01*
X151183333Y-80704819D02*
X151088095Y-80657200D01*
X152373809Y-80657200D02*
X152278571Y-80704819D01*
X152278571Y-80704819D02*
X152088095Y-80704819D01*
X152088095Y-80704819D02*
X151992857Y-80657200D01*
X151992857Y-80657200D02*
X151945238Y-80561961D01*
X151945238Y-80561961D02*
X151945238Y-80181009D01*
X151945238Y-80181009D02*
X151992857Y-80085771D01*
X151992857Y-80085771D02*
X152088095Y-80038152D01*
X152088095Y-80038152D02*
X152278571Y-80038152D01*
X152278571Y-80038152D02*
X152373809Y-80085771D01*
X152373809Y-80085771D02*
X152421428Y-80181009D01*
X152421428Y-80181009D02*
X152421428Y-80276247D01*
X152421428Y-80276247D02*
X151945238Y-80371485D01*
X153278571Y-80704819D02*
X153278571Y-80181009D01*
X153278571Y-80181009D02*
X153230952Y-80085771D01*
X153230952Y-80085771D02*
X153135714Y-80038152D01*
X153135714Y-80038152D02*
X152945238Y-80038152D01*
X152945238Y-80038152D02*
X152850000Y-80085771D01*
X153278571Y-80657200D02*
X153183333Y-80704819D01*
X153183333Y-80704819D02*
X152945238Y-80704819D01*
X152945238Y-80704819D02*
X152850000Y-80657200D01*
X152850000Y-80657200D02*
X152802381Y-80561961D01*
X152802381Y-80561961D02*
X152802381Y-80466723D01*
X152802381Y-80466723D02*
X152850000Y-80371485D01*
X152850000Y-80371485D02*
X152945238Y-80323866D01*
X152945238Y-80323866D02*
X153183333Y-80323866D01*
X153183333Y-80323866D02*
X153278571Y-80276247D01*
X153754762Y-80704819D02*
X153754762Y-79704819D01*
X153850000Y-80323866D02*
X154135714Y-80704819D01*
X154135714Y-80038152D02*
X153754762Y-80419104D01*
X154945238Y-80657200D02*
X154850000Y-80704819D01*
X154850000Y-80704819D02*
X154659524Y-80704819D01*
X154659524Y-80704819D02*
X154564286Y-80657200D01*
X154564286Y-80657200D02*
X154516667Y-80561961D01*
X154516667Y-80561961D02*
X154516667Y-80181009D01*
X154516667Y-80181009D02*
X154564286Y-80085771D01*
X154564286Y-80085771D02*
X154659524Y-80038152D01*
X154659524Y-80038152D02*
X154850000Y-80038152D01*
X154850000Y-80038152D02*
X154945238Y-80085771D01*
X154945238Y-80085771D02*
X154992857Y-80181009D01*
X154992857Y-80181009D02*
X154992857Y-80276247D01*
X154992857Y-80276247D02*
X154516667Y-80371485D01*
X155421429Y-80704819D02*
X155421429Y-80038152D01*
X155421429Y-80228628D02*
X155469048Y-80133390D01*
X155469048Y-80133390D02*
X155516667Y-80085771D01*
X155516667Y-80085771D02*
X155611905Y-80038152D01*
X155611905Y-80038152D02*
X155707143Y-80038152D01*
X108754819Y-117616666D02*
X108278628Y-117949999D01*
X108754819Y-118188094D02*
X107754819Y-118188094D01*
X107754819Y-118188094D02*
X107754819Y-117807142D01*
X107754819Y-117807142D02*
X107802438Y-117711904D01*
X107802438Y-117711904D02*
X107850057Y-117664285D01*
X107850057Y-117664285D02*
X107945295Y-117616666D01*
X107945295Y-117616666D02*
X108088152Y-117616666D01*
X108088152Y-117616666D02*
X108183390Y-117664285D01*
X108183390Y-117664285D02*
X108231009Y-117711904D01*
X108231009Y-117711904D02*
X108278628Y-117807142D01*
X108278628Y-117807142D02*
X108278628Y-118188094D01*
X107754819Y-116759523D02*
X107754819Y-116949999D01*
X107754819Y-116949999D02*
X107802438Y-117045237D01*
X107802438Y-117045237D02*
X107850057Y-117092856D01*
X107850057Y-117092856D02*
X107992914Y-117188094D01*
X107992914Y-117188094D02*
X108183390Y-117235713D01*
X108183390Y-117235713D02*
X108564342Y-117235713D01*
X108564342Y-117235713D02*
X108659580Y-117188094D01*
X108659580Y-117188094D02*
X108707200Y-117140475D01*
X108707200Y-117140475D02*
X108754819Y-117045237D01*
X108754819Y-117045237D02*
X108754819Y-116854761D01*
X108754819Y-116854761D02*
X108707200Y-116759523D01*
X108707200Y-116759523D02*
X108659580Y-116711904D01*
X108659580Y-116711904D02*
X108564342Y-116664285D01*
X108564342Y-116664285D02*
X108326247Y-116664285D01*
X108326247Y-116664285D02*
X108231009Y-116711904D01*
X108231009Y-116711904D02*
X108183390Y-116759523D01*
X108183390Y-116759523D02*
X108135771Y-116854761D01*
X108135771Y-116854761D02*
X108135771Y-117045237D01*
X108135771Y-117045237D02*
X108183390Y-117140475D01*
X108183390Y-117140475D02*
X108231009Y-117188094D01*
X108231009Y-117188094D02*
X108326247Y-117235713D01*
X111857142Y-120004819D02*
X111523809Y-119528628D01*
X111285714Y-120004819D02*
X111285714Y-119004819D01*
X111285714Y-119004819D02*
X111666666Y-119004819D01*
X111666666Y-119004819D02*
X111761904Y-119052438D01*
X111761904Y-119052438D02*
X111809523Y-119100057D01*
X111809523Y-119100057D02*
X111857142Y-119195295D01*
X111857142Y-119195295D02*
X111857142Y-119338152D01*
X111857142Y-119338152D02*
X111809523Y-119433390D01*
X111809523Y-119433390D02*
X111761904Y-119481009D01*
X111761904Y-119481009D02*
X111666666Y-119528628D01*
X111666666Y-119528628D02*
X111285714Y-119528628D01*
X112190476Y-119004819D02*
X112809523Y-119004819D01*
X112809523Y-119004819D02*
X112476190Y-119385771D01*
X112476190Y-119385771D02*
X112619047Y-119385771D01*
X112619047Y-119385771D02*
X112714285Y-119433390D01*
X112714285Y-119433390D02*
X112761904Y-119481009D01*
X112761904Y-119481009D02*
X112809523Y-119576247D01*
X112809523Y-119576247D02*
X112809523Y-119814342D01*
X112809523Y-119814342D02*
X112761904Y-119909580D01*
X112761904Y-119909580D02*
X112714285Y-119957200D01*
X112714285Y-119957200D02*
X112619047Y-120004819D01*
X112619047Y-120004819D02*
X112333333Y-120004819D01*
X112333333Y-120004819D02*
X112238095Y-119957200D01*
X112238095Y-119957200D02*
X112190476Y-119909580D01*
X113428571Y-119004819D02*
X113523809Y-119004819D01*
X113523809Y-119004819D02*
X113619047Y-119052438D01*
X113619047Y-119052438D02*
X113666666Y-119100057D01*
X113666666Y-119100057D02*
X113714285Y-119195295D01*
X113714285Y-119195295D02*
X113761904Y-119385771D01*
X113761904Y-119385771D02*
X113761904Y-119623866D01*
X113761904Y-119623866D02*
X113714285Y-119814342D01*
X113714285Y-119814342D02*
X113666666Y-119909580D01*
X113666666Y-119909580D02*
X113619047Y-119957200D01*
X113619047Y-119957200D02*
X113523809Y-120004819D01*
X113523809Y-120004819D02*
X113428571Y-120004819D01*
X113428571Y-120004819D02*
X113333333Y-119957200D01*
X113333333Y-119957200D02*
X113285714Y-119909580D01*
X113285714Y-119909580D02*
X113238095Y-119814342D01*
X113238095Y-119814342D02*
X113190476Y-119623866D01*
X113190476Y-119623866D02*
X113190476Y-119385771D01*
X113190476Y-119385771D02*
X113238095Y-119195295D01*
X113238095Y-119195295D02*
X113285714Y-119100057D01*
X113285714Y-119100057D02*
X113333333Y-119052438D01*
X113333333Y-119052438D02*
X113428571Y-119004819D01*
X129586905Y-61962319D02*
X129586905Y-60962319D01*
X129586905Y-60962319D02*
X129825000Y-60962319D01*
X129825000Y-60962319D02*
X129967857Y-61009938D01*
X129967857Y-61009938D02*
X130063095Y-61105176D01*
X130063095Y-61105176D02*
X130110714Y-61200414D01*
X130110714Y-61200414D02*
X130158333Y-61390890D01*
X130158333Y-61390890D02*
X130158333Y-61533747D01*
X130158333Y-61533747D02*
X130110714Y-61724223D01*
X130110714Y-61724223D02*
X130063095Y-61819461D01*
X130063095Y-61819461D02*
X129967857Y-61914700D01*
X129967857Y-61914700D02*
X129825000Y-61962319D01*
X129825000Y-61962319D02*
X129586905Y-61962319D01*
X131110714Y-61962319D02*
X130539286Y-61962319D01*
X130825000Y-61962319D02*
X130825000Y-60962319D01*
X130825000Y-60962319D02*
X130729762Y-61105176D01*
X130729762Y-61105176D02*
X130634524Y-61200414D01*
X130634524Y-61200414D02*
X130539286Y-61248033D01*
%TO.C,C8*%
D16*
X144161252Y-124315000D02*
X143638748Y-124315000D01*
X144161252Y-125785000D02*
X143638748Y-125785000D01*
%TO.C,U13*%
X129265000Y-100400000D02*
X133385000Y-100400000D01*
X129265000Y-100495000D02*
X129265000Y-100400000D01*
X129265000Y-105520000D02*
X129265000Y-105425000D01*
X133385000Y-100400000D02*
X133385000Y-100495000D01*
X133385000Y-105425000D02*
X133385000Y-105520000D01*
X133385000Y-105520000D02*
X129265000Y-105520000D01*
X128725000Y-100490000D02*
X128485000Y-100160000D01*
X128965000Y-100160000D01*
X128725000Y-100490000D01*
G36*
X128725000Y-100490000D02*
G01*
X128485000Y-100160000D01*
X128965000Y-100160000D01*
X128725000Y-100490000D01*
G37*
%TO.C,C35*%
X186938748Y-67715000D02*
X187461252Y-67715000D01*
X186938748Y-69185000D02*
X187461252Y-69185000D01*
%TO.C,C12*%
X158961252Y-103490000D02*
X158438748Y-103490000D01*
X158961252Y-104960000D02*
X158438748Y-104960000D01*
%TO.C,R12*%
X157952064Y-111465000D02*
X157497936Y-111465000D01*
X157952064Y-112935000D02*
X157497936Y-112935000D01*
%TO.C,Q1*%
X128040000Y-65240000D02*
X129040000Y-65240000D01*
X128040000Y-66760000D02*
X128040000Y-65240000D01*
X128090000Y-66760000D02*
X128040000Y-66760000D01*
X129990000Y-66760000D02*
X129210000Y-66760000D01*
X130160000Y-65240000D02*
X131160000Y-65240000D01*
X131160000Y-65240000D02*
X131160000Y-66760000D01*
X131160000Y-66760000D02*
X131110000Y-66760000D01*
X129220000Y-67300000D02*
X129550000Y-67060000D01*
X129550000Y-67540000D01*
X129220000Y-67300000D01*
G36*
X129550000Y-67540000D02*
G01*
X129220000Y-67300000D01*
X129550000Y-67060000D01*
X129550000Y-67540000D01*
G37*
%TO.C,Y1*%
X152140000Y-102090000D02*
X152140000Y-105510000D01*
X152140000Y-105510000D02*
X156260000Y-105510000D01*
%TO.C,C15*%
X160811252Y-107715000D02*
X160288748Y-107715000D01*
X160811252Y-109185000D02*
X160288748Y-109185000D01*
%TO.C,Y2*%
X185415000Y-90315000D02*
X185415000Y-93735000D01*
X185415000Y-93735000D02*
X189535000Y-93735000D01*
%TO.C,C5*%
X160811252Y-115490000D02*
X160288748Y-115490000D01*
X160811252Y-116960000D02*
X160288748Y-116960000D01*
%TO.C,J1*%
X160035000Y-125350000D02*
X160035000Y-123650000D01*
X169375000Y-125350000D02*
X169375000Y-123650000D01*
%TO.C,C37*%
X187836252Y-71865000D02*
X187313748Y-71865000D01*
X187836252Y-73335000D02*
X187313748Y-73335000D01*
%TO.C,D2*%
X99560000Y-110250000D02*
X94050000Y-110250000D01*
X99560000Y-113550000D02*
X94050000Y-113550000D01*
X99560000Y-113550000D02*
X99560000Y-110250000D01*
%TO.C,U8*%
X145940000Y-114390000D02*
X146890000Y-114390000D01*
X145940000Y-115340000D02*
X145940000Y-114390000D01*
X145940000Y-124610000D02*
X145940000Y-123660000D01*
X146890000Y-124610000D02*
X145940000Y-124610000D01*
X155210000Y-114390000D02*
X156160000Y-114390000D01*
X156160000Y-114390000D02*
X156160000Y-115340000D01*
X156160000Y-123660000D02*
X156160000Y-124610000D01*
X156160000Y-124610000D02*
X155210000Y-124610000D01*
X145300000Y-115340000D02*
X144960000Y-114870000D01*
X145640000Y-114870000D01*
X145300000Y-115340000D01*
G36*
X145300000Y-115340000D02*
G01*
X144960000Y-114870000D01*
X145640000Y-114870000D01*
X145300000Y-115340000D01*
G37*
%TO.C,REF\u002A\u002A*%
D12*
X160470000Y-88100000D02*
X160970000Y-87600000D01*
X160470000Y-88900000D02*
X160470000Y-88100000D01*
X160970000Y-87600000D02*
X164570000Y-87600000D01*
X160970000Y-89400000D02*
X160470000Y-88900000D01*
X164570000Y-87600000D02*
X165070000Y-88100000D01*
X164570000Y-89400000D02*
X160970000Y-89400000D01*
X165070000Y-88100000D02*
X165070000Y-88900000D01*
X165070000Y-88900000D02*
X164570000Y-89400000D01*
%TO.C,U1*%
D16*
X104690000Y-119290000D02*
X108810000Y-119290000D01*
X104690000Y-119385000D02*
X104690000Y-119290000D01*
X104690000Y-124410000D02*
X104690000Y-124315000D01*
X108810000Y-119290000D02*
X108810000Y-119385000D01*
X108810000Y-124315000D02*
X108810000Y-124410000D01*
X108810000Y-124410000D02*
X104690000Y-124410000D01*
X104150000Y-119380000D02*
X103910000Y-119050000D01*
X104390000Y-119050000D01*
X104150000Y-119380000D01*
G36*
X104150000Y-119380000D02*
G01*
X103910000Y-119050000D01*
X104390000Y-119050000D01*
X104150000Y-119380000D01*
G37*
%TO.C,J6*%
X114590000Y-68670000D02*
X115920000Y-68670000D01*
X114590000Y-70000000D02*
X114590000Y-68670000D01*
X117190000Y-68670000D02*
X135030000Y-68670000D01*
X117190000Y-71330000D02*
X117190000Y-68670000D01*
X117190000Y-71330000D02*
X135030000Y-71330000D01*
X135030000Y-71330000D02*
X135030000Y-68670000D01*
%TO.C,SW1*%
X93250000Y-62250000D02*
X93250000Y-63750000D01*
X94500000Y-66250000D02*
X99000000Y-66250000D01*
X99000000Y-59750000D02*
X94500000Y-59750000D01*
X100250000Y-63750000D02*
X100250000Y-62250000D01*
%TO.C,U6*%
D12*
X167850000Y-59250000D02*
X184350000Y-59250000D01*
X167850000Y-60000000D02*
X167850000Y-59250000D01*
X167850000Y-76000000D02*
X167850000Y-76750000D01*
X167850000Y-76750000D02*
X184350000Y-76750000D01*
X184350000Y-59250000D02*
X184350000Y-60000000D01*
X184350000Y-76750000D02*
X184350000Y-76000000D01*
D16*
X167550000Y-60000000D02*
X167050000Y-60000000D01*
X167550000Y-59500000D01*
X167550000Y-60000000D01*
G36*
X167550000Y-60000000D02*
G01*
X167050000Y-60000000D01*
X167550000Y-59500000D01*
X167550000Y-60000000D01*
G37*
%TO.C,L1*%
X156849622Y-106390000D02*
X156050378Y-106390000D01*
X156849622Y-107510000D02*
X156050378Y-107510000D01*
%TO.C,SW5*%
X156300000Y-62250000D02*
X156300000Y-63750000D01*
X157550000Y-66250000D02*
X162050000Y-66250000D01*
X162050000Y-59750000D02*
X157550000Y-59750000D01*
X163300000Y-63750000D02*
X163300000Y-62250000D01*
%TO.C,R3*%
X163265000Y-116577064D02*
X163265000Y-116122936D01*
X164735000Y-116577064D02*
X164735000Y-116122936D01*
%TO.C,C10*%
X158015000Y-72561252D02*
X158015000Y-72038748D01*
X159485000Y-72561252D02*
X159485000Y-72038748D01*
%TO.C,C4*%
X170008748Y-105415000D02*
X170531252Y-105415000D01*
X170008748Y-106885000D02*
X170531252Y-106885000D01*
%TO.C,U7*%
X125665000Y-109440000D02*
X127485000Y-109440000D01*
X125665000Y-109490000D02*
X125665000Y-109440000D01*
X125665000Y-112560000D02*
X125665000Y-112510000D01*
X127485000Y-109440000D02*
X127485000Y-109490000D01*
X127485000Y-112510000D02*
X127485000Y-112560000D01*
X127485000Y-112560000D02*
X125665000Y-112560000D01*
X125125000Y-109490000D02*
X124885000Y-109160000D01*
X125365000Y-109160000D01*
X125125000Y-109490000D01*
G36*
X125125000Y-109490000D02*
G01*
X124885000Y-109160000D01*
X125365000Y-109160000D01*
X125125000Y-109490000D01*
G37*
%TO.C,C24*%
X187513748Y-94515000D02*
X188036252Y-94515000D01*
X187513748Y-95985000D02*
X188036252Y-95985000D01*
%TO.C,D9*%
X104715000Y-125140000D02*
X104715000Y-127060000D01*
X104715000Y-127060000D02*
X107400000Y-127060000D01*
X107400000Y-125140000D02*
X104715000Y-125140000D01*
%TO.C,C13*%
X164865000Y-64761252D02*
X164865000Y-64238748D01*
X166335000Y-64761252D02*
X166335000Y-64238748D01*
%TO.C,J11*%
X185940000Y-62550000D02*
X185940000Y-59850000D01*
X188660000Y-59800000D02*
X188660000Y-60440000D01*
X188660000Y-61960000D02*
X189290000Y-61960000D01*
X188660000Y-62600000D02*
X188660000Y-61960000D01*
%TO.C,C22*%
X151538748Y-91565000D02*
X152061252Y-91565000D01*
X151538748Y-93035000D02*
X152061252Y-93035000D01*
%TO.C,R31*%
X110127064Y-125265000D02*
X109672936Y-125265000D01*
X110127064Y-126735000D02*
X109672936Y-126735000D01*
%TO.C,SW6*%
X93250000Y-101750000D02*
X93250000Y-103250000D01*
X94500000Y-105750000D02*
X99000000Y-105750000D01*
X99000000Y-99250000D02*
X94500000Y-99250000D01*
X100250000Y-103250000D02*
X100250000Y-101750000D01*
%TO.C,D5*%
X110805000Y-59955000D02*
X110805000Y-60420000D01*
X110805000Y-62580000D02*
X110805000Y-63045000D01*
X110805000Y-59955170D02*
G75*
G02*
X116153136Y-60420000I2560000J-1544830D01*
G01*
X111110316Y-60420000D02*
G75*
G02*
X115619684Y-60420000I2254684J-1080000D01*
G01*
X115619684Y-62580000D02*
G75*
G02*
X111110316Y-62580000I-2254684J1080000D01*
G01*
X116153136Y-62580000D02*
G75*
G02*
X110805000Y-63044830I-2788136J1080000D01*
G01*
%TO.C,TH2*%
X103515000Y-117677064D02*
X103515000Y-117222936D01*
X104985000Y-117677064D02*
X104985000Y-117222936D01*
%TO.C,D8*%
X114390000Y-118315000D02*
X114390000Y-121000000D01*
X116310000Y-118315000D02*
X114390000Y-118315000D01*
X116310000Y-121000000D02*
X116310000Y-118315000D01*
%TO.C,U10*%
X160400000Y-72765000D02*
X160400000Y-72540000D01*
X160400000Y-76600000D02*
X160400000Y-76075000D01*
X160400000Y-76600000D02*
X160925000Y-76600000D01*
X160925000Y-72300000D02*
X160700000Y-72300000D01*
X164700000Y-72300000D02*
X164175000Y-72300000D01*
X164700000Y-72300000D02*
X164700000Y-72825000D01*
X164700000Y-76600000D02*
X164175000Y-76600000D01*
X164700000Y-76600000D02*
X164700000Y-76075000D01*
X160400000Y-72300000D02*
X160160000Y-71970000D01*
X160640000Y-71970000D01*
X160400000Y-72300000D01*
G36*
X160400000Y-72300000D02*
G01*
X160160000Y-71970000D01*
X160640000Y-71970000D01*
X160400000Y-72300000D01*
G37*
%TO.C,C6*%
X125338748Y-121615000D02*
X125861252Y-121615000D01*
X125338748Y-123085000D02*
X125861252Y-123085000D01*
%TO.C,U17*%
X184790000Y-85052500D02*
X185515000Y-85052500D01*
X184790000Y-85777500D02*
X184790000Y-85052500D01*
X184790000Y-89272500D02*
X184790000Y-88547500D01*
X185515000Y-89272500D02*
X184790000Y-89272500D01*
X188285000Y-85052500D02*
X189010000Y-85052500D01*
X189010000Y-85052500D02*
X189010000Y-85777500D01*
X189010000Y-88547500D02*
X189010000Y-89272500D01*
X189010000Y-89272500D02*
X188285000Y-89272500D01*
X185150000Y-84662500D02*
X184910000Y-84332500D01*
X185390000Y-84332500D01*
X185150000Y-84662500D01*
G36*
X185150000Y-84662500D02*
G01*
X184910000Y-84332500D01*
X185390000Y-84332500D01*
X185150000Y-84662500D01*
G37*
%TO.C,U3*%
X119927500Y-105490000D02*
X121747500Y-105490000D01*
X119927500Y-105540000D02*
X119927500Y-105490000D01*
X119927500Y-108610000D02*
X119927500Y-108560000D01*
X121747500Y-105490000D02*
X121747500Y-105540000D01*
X121747500Y-106660000D02*
X121747500Y-107440000D01*
X121747500Y-108560000D02*
X121747500Y-108610000D01*
X121747500Y-108610000D02*
X119927500Y-108610000D01*
X119387500Y-105540000D02*
X119147500Y-105210000D01*
X119627500Y-105210000D01*
X119387500Y-105540000D01*
G36*
X119387500Y-105540000D02*
G01*
X119147500Y-105210000D01*
X119627500Y-105210000D01*
X119387500Y-105540000D01*
G37*
%TO.C,L5*%
X188249622Y-79440000D02*
X187450378Y-79440000D01*
X188249622Y-80560000D02*
X187450378Y-80560000D01*
%TO.C,R9*%
X137022936Y-113015000D02*
X137477064Y-113015000D01*
X137022936Y-114485000D02*
X137477064Y-114485000D01*
%TO.C,U11*%
X151745000Y-94870000D02*
X152220000Y-94870000D01*
X151745000Y-95345000D02*
X151745000Y-94870000D01*
X151745000Y-101090000D02*
X151745000Y-100615000D01*
X152220000Y-101090000D02*
X151745000Y-101090000D01*
X157490000Y-94870000D02*
X157965000Y-94870000D01*
X157965000Y-94870000D02*
X157965000Y-95345000D01*
X157965000Y-100615000D02*
X157965000Y-101090000D01*
X157965000Y-101090000D02*
X157490000Y-101090000D01*
X151215000Y-95730000D02*
X150885000Y-95970000D01*
X150885000Y-95490000D01*
X151215000Y-95730000D01*
G36*
X151215000Y-95730000D02*
G01*
X150885000Y-95970000D01*
X150885000Y-95490000D01*
X151215000Y-95730000D01*
G37*
%TO.C,C36*%
X187638748Y-73915000D02*
X188161252Y-73915000D01*
X187638748Y-75385000D02*
X188161252Y-75385000D01*
%TO.C,C2*%
X138938748Y-124390000D02*
X139461252Y-124390000D01*
X138938748Y-125860000D02*
X139461252Y-125860000D01*
%TO.C,R2*%
X178565000Y-115177064D02*
X178565000Y-114722936D01*
X180035000Y-115177064D02*
X180035000Y-114722936D01*
%TO.C,C9*%
X154586252Y-70165000D02*
X154063748Y-70165000D01*
X154586252Y-71635000D02*
X154063748Y-71635000D01*
%TO.C,SW4*%
X93250000Y-89250000D02*
X93250000Y-90750000D01*
X94500000Y-93250000D02*
X99000000Y-93250000D01*
X99000000Y-86750000D02*
X94500000Y-86750000D01*
X100250000Y-90750000D02*
X100250000Y-89250000D01*
%TO.C,U4*%
X168550000Y-80550000D02*
X184150000Y-80550000D01*
X168550000Y-96150000D02*
X168550000Y-80550000D01*
X184150000Y-80550000D02*
X184150000Y-96150000D01*
X184150000Y-96150000D02*
X168550000Y-96150000D01*
X168375000Y-82400000D02*
X168039000Y-82640000D01*
X168039000Y-82160000D01*
X168375000Y-82400000D01*
G36*
X168375000Y-82400000D02*
G01*
X168039000Y-82640000D01*
X168039000Y-82160000D01*
X168375000Y-82400000D01*
G37*
%TO.C,BZ1*%
X132900000Y-58400000D02*
X132900000Y-60600000D01*
X132900000Y-58400000D02*
X142100000Y-58400000D01*
X132900000Y-60600000D02*
X132500000Y-60600000D01*
X132900000Y-65400000D02*
X132900000Y-67600000D01*
X142100000Y-58400000D02*
X142100000Y-60600000D01*
X142100000Y-65400000D02*
X142100000Y-67600000D01*
X142100000Y-67600000D02*
X132900000Y-67600000D01*
%TO.C,TH1*%
X117465000Y-118472936D02*
X117465000Y-118927064D01*
X118935000Y-118472936D02*
X118935000Y-118927064D01*
%TO.C,C11*%
X150088748Y-103715000D02*
X150611252Y-103715000D01*
X150088748Y-105185000D02*
X150611252Y-105185000D01*
%TO.C,U9*%
X134540000Y-117890000D02*
X140060000Y-117890000D01*
X134540000Y-118160000D02*
X134540000Y-117890000D01*
X134540000Y-123410000D02*
X134540000Y-123140000D01*
X140060000Y-117890000D02*
X140060000Y-118160000D01*
X140060000Y-123140000D02*
X140060000Y-123410000D01*
X140060000Y-123410000D02*
X134540000Y-123410000D01*
X133710000Y-118150000D02*
X133370000Y-117680000D01*
X134050000Y-117680000D01*
X133710000Y-118150000D01*
G36*
X133710000Y-118150000D02*
G01*
X133370000Y-117680000D01*
X134050000Y-117680000D01*
X133710000Y-118150000D01*
G37*
%TO.C,J13*%
X162740000Y-104675000D02*
X162740000Y-105315000D01*
X162740000Y-105315000D02*
X162110000Y-105315000D01*
X162740000Y-107475000D02*
X162740000Y-106835000D01*
X165460000Y-104725000D02*
X165460000Y-107425000D01*
%TO.C,R13*%
X161627064Y-112815000D02*
X161172936Y-112815000D01*
X161627064Y-114285000D02*
X161172936Y-114285000D01*
%TO.C,R1*%
X174015000Y-115227064D02*
X174015000Y-114772936D01*
X175485000Y-115227064D02*
X175485000Y-114772936D01*
%TO.C,C1*%
X119261252Y-111015000D02*
X118738748Y-111015000D01*
X119261252Y-112485000D02*
X118738748Y-112485000D01*
%TO.C,L4*%
X188124622Y-81615000D02*
X187325378Y-81615000D01*
X188124622Y-82735000D02*
X187325378Y-82735000D01*
%TO.C,L3*%
X188099622Y-76540000D02*
X187300378Y-76540000D01*
X188099622Y-77660000D02*
X187300378Y-77660000D01*
%TO.C,U5*%
X117927500Y-120740000D02*
X121147500Y-120740000D01*
X117927500Y-120790000D02*
X117927500Y-120740000D01*
X117927500Y-123960000D02*
X117927500Y-123910000D01*
X121147500Y-120740000D02*
X121147500Y-120790000D01*
X121147500Y-123910000D02*
X121147500Y-123960000D01*
X121147500Y-123960000D02*
X117927500Y-123960000D01*
X117397500Y-121140000D02*
X117067500Y-121380000D01*
X117067500Y-120900000D01*
X117397500Y-121140000D01*
G36*
X117397500Y-121140000D02*
G01*
X117067500Y-121380000D01*
X117067500Y-120900000D01*
X117397500Y-121140000D01*
G37*
%TO.C,R7*%
X113214564Y-122765000D02*
X112760436Y-122765000D01*
X113214564Y-124235000D02*
X112760436Y-124235000D01*
%TO.C,J2*%
X172905000Y-125375000D02*
X172905000Y-123675000D01*
X182245000Y-125375000D02*
X182245000Y-123675000D01*
%TO.C,SW3*%
X145500000Y-62250000D02*
X145500000Y-63750000D01*
X146750000Y-66250000D02*
X151250000Y-66250000D01*
X151250000Y-59750000D02*
X146750000Y-59750000D01*
X152500000Y-63750000D02*
X152500000Y-62250000D01*
%TO.C,L8*%
X150962122Y-106440000D02*
X150162878Y-106440000D01*
X150962122Y-107560000D02*
X150162878Y-107560000D01*
%TO.C,R10*%
X143522936Y-113015000D02*
X143977064Y-113015000D01*
X143522936Y-114485000D02*
X143977064Y-114485000D01*
%TO.C,R26*%
X122172936Y-111065000D02*
X122627064Y-111065000D01*
X122172936Y-112535000D02*
X122627064Y-112535000D01*
%TO.C,J3*%
X93515000Y-119540000D02*
X95315000Y-119540000D01*
X93515000Y-120990000D02*
X93515000Y-119540000D01*
X94785000Y-123810000D02*
X98215000Y-123810000D01*
X95315000Y-119540000D02*
X95315000Y-118550000D01*
X99485000Y-119540000D02*
X97685000Y-119540000D01*
X99485000Y-120990000D02*
X99485000Y-119540000D01*
%TO.C,R6*%
X105915000Y-117222936D02*
X105915000Y-117677064D01*
X107385000Y-117222936D02*
X107385000Y-117677064D01*
%TO.C,R11*%
X165915000Y-116577064D02*
X165915000Y-116122936D01*
X167385000Y-116577064D02*
X167385000Y-116122936D01*
%TO.C,R5*%
X155022936Y-76265000D02*
X155477064Y-76265000D01*
X155022936Y-77735000D02*
X155477064Y-77735000D01*
%TO.C,R30*%
X112272936Y-120465000D02*
X112727064Y-120465000D01*
X112272936Y-121935000D02*
X112727064Y-121935000D01*
%TO.C,C7*%
X170008748Y-108425000D02*
X170531252Y-108425000D01*
X170008748Y-109895000D02*
X170531252Y-109895000D01*
%TO.C,C34*%
X186938748Y-69865000D02*
X187461252Y-69865000D01*
X186938748Y-71335000D02*
X187461252Y-71335000D01*
D17*
%TO.C,G\u002A\u002A\u002A*%
G36*
X172717666Y-66599368D02*
G01*
X172675333Y-66641701D01*
X172632999Y-66599368D01*
X172675333Y-66557035D01*
X172717666Y-66599368D01*
G37*
G36*
X172971666Y-65668035D02*
G01*
X172929333Y-65710368D01*
X172886999Y-65668035D01*
X172929333Y-65625701D01*
X172971666Y-65668035D01*
G37*
G36*
X173902999Y-60757368D02*
G01*
X173860666Y-60799701D01*
X173818333Y-60757368D01*
X173860666Y-60715035D01*
X173902999Y-60757368D01*
G37*
G36*
X174072333Y-60503368D02*
G01*
X174029999Y-60545701D01*
X173987666Y-60503368D01*
X174029999Y-60461035D01*
X174072333Y-60503368D01*
G37*
G36*
X174580333Y-64736701D02*
G01*
X174537999Y-64779035D01*
X174495666Y-64736701D01*
X174537999Y-64694368D01*
X174580333Y-64736701D01*
G37*
G36*
X175680999Y-62196701D02*
G01*
X175638666Y-62239035D01*
X175596333Y-62196701D01*
X175638666Y-62154368D01*
X175680999Y-62196701D01*
G37*
G36*
X175680999Y-62366035D02*
G01*
X175638666Y-62408368D01*
X175596333Y-62366035D01*
X175638666Y-62323701D01*
X175680999Y-62366035D01*
G37*
G36*
X175765666Y-62620035D02*
G01*
X175723333Y-62662368D01*
X175680999Y-62620035D01*
X175723333Y-62577701D01*
X175765666Y-62620035D01*
G37*
G36*
X175934999Y-62027368D02*
G01*
X175892666Y-62069701D01*
X175850333Y-62027368D01*
X175892666Y-61985035D01*
X175934999Y-62027368D01*
G37*
G36*
X176104333Y-62450701D02*
G01*
X176061999Y-62493035D01*
X176019666Y-62450701D01*
X176061999Y-62408368D01*
X176104333Y-62450701D01*
G37*
G36*
X176273666Y-62450701D02*
G01*
X176231333Y-62493035D01*
X176188999Y-62450701D01*
X176231333Y-62408368D01*
X176273666Y-62450701D01*
G37*
G36*
X176442999Y-62450701D02*
G01*
X176400666Y-62493035D01*
X176358333Y-62450701D01*
X176400666Y-62408368D01*
X176442999Y-62450701D01*
G37*
G36*
X176696999Y-63043368D02*
G01*
X176654666Y-63085701D01*
X176612333Y-63043368D01*
X176654666Y-63001035D01*
X176696999Y-63043368D01*
G37*
G36*
X176696999Y-67022701D02*
G01*
X176654666Y-67065035D01*
X176612333Y-67022701D01*
X176654666Y-66980368D01*
X176696999Y-67022701D01*
G37*
G36*
X178559666Y-61688701D02*
G01*
X178517333Y-61731035D01*
X178474999Y-61688701D01*
X178517333Y-61646368D01*
X178559666Y-61688701D01*
G37*
G36*
X174044110Y-66331257D02*
G01*
X174032488Y-66381591D01*
X173987666Y-66387701D01*
X173917976Y-66356723D01*
X173931221Y-66331257D01*
X174031701Y-66321124D01*
X174044110Y-66331257D01*
G37*
G36*
X174388069Y-64727882D02*
G01*
X174362818Y-64766364D01*
X174276944Y-64772350D01*
X174186601Y-64751673D01*
X174225791Y-64721198D01*
X174358115Y-64711104D01*
X174388069Y-64727882D01*
G37*
G36*
X174721444Y-64383923D02*
G01*
X174731577Y-64484403D01*
X174721444Y-64496812D01*
X174671109Y-64485190D01*
X174664999Y-64440368D01*
X174695977Y-64370678D01*
X174721444Y-64383923D01*
G37*
G36*
X175906777Y-67093257D02*
G01*
X175916910Y-67193736D01*
X175906777Y-67206146D01*
X175856443Y-67194523D01*
X175850333Y-67149701D01*
X175881311Y-67080011D01*
X175906777Y-67093257D01*
G37*
G36*
X176499444Y-66415923D02*
G01*
X176487821Y-66466258D01*
X176442999Y-66472368D01*
X176373309Y-66441390D01*
X176386555Y-66415923D01*
X176487034Y-66405790D01*
X176499444Y-66415923D01*
G37*
G36*
X176838110Y-62521257D02*
G01*
X176848243Y-62621736D01*
X176838110Y-62634146D01*
X176787776Y-62622523D01*
X176781666Y-62577701D01*
X176812644Y-62508011D01*
X176838110Y-62521257D01*
G37*
G36*
X177988166Y-64807628D02*
G01*
X177998802Y-64838531D01*
X177882333Y-64850333D01*
X177762137Y-64837027D01*
X177776499Y-64807628D01*
X177949841Y-64796445D01*
X177988166Y-64807628D01*
G37*
G36*
X173528780Y-65580859D02*
G01*
X173521999Y-65625701D01*
X173449579Y-65706384D01*
X173437333Y-65710368D01*
X173370019Y-65651316D01*
X173352666Y-65625701D01*
X173372771Y-65553972D01*
X173437333Y-65541035D01*
X173528780Y-65580859D01*
G37*
G36*
X173535229Y-65338904D02*
G01*
X173521999Y-65371701D01*
X173445917Y-65452472D01*
X173432336Y-65456368D01*
X173395970Y-65390862D01*
X173394999Y-65371701D01*
X173460087Y-65290288D01*
X173484663Y-65287035D01*
X173535229Y-65338904D01*
G37*
G36*
X174199333Y-66611083D02*
G01*
X174311371Y-66694190D01*
X174326333Y-66735426D01*
X174269588Y-66806811D01*
X174154509Y-66776500D01*
X174128777Y-66754590D01*
X174072336Y-66642043D01*
X174141526Y-66597337D01*
X174199333Y-66611083D01*
G37*
G36*
X176685534Y-62070630D02*
G01*
X176629271Y-62254327D01*
X176620987Y-62275748D01*
X176551905Y-62373616D01*
X176507446Y-62359481D01*
X176513296Y-62237155D01*
X176577507Y-62116085D01*
X176667349Y-62021133D01*
X176685534Y-62070630D01*
G37*
G36*
X173341937Y-65031075D02*
G01*
X173383435Y-65046034D01*
X173413839Y-65097973D01*
X173286937Y-65178334D01*
X173135772Y-65232943D01*
X173086321Y-65182529D01*
X173086834Y-65076553D01*
X173123933Y-64944747D01*
X173183333Y-64944253D01*
X173341937Y-65031075D01*
G37*
G36*
X173628696Y-60196393D02*
G01*
X173648999Y-60207035D01*
X173781548Y-60286069D01*
X173818333Y-60318996D01*
X173747097Y-60341727D01*
X173648999Y-60353088D01*
X173509155Y-60312293D01*
X173479666Y-60241127D01*
X173510284Y-60161307D01*
X173628696Y-60196393D01*
G37*
G36*
X173776898Y-66017296D02*
G01*
X173868232Y-66138258D01*
X173849324Y-66244649D01*
X173745980Y-66329776D01*
X173627808Y-66292858D01*
X173512414Y-66177333D01*
X173483764Y-66048218D01*
X173550172Y-65969803D01*
X173585499Y-65965664D01*
X173776898Y-66017296D01*
G37*
G36*
X173423091Y-64382182D02*
G01*
X173594032Y-64431605D01*
X173660921Y-64440368D01*
X173705021Y-64492648D01*
X173691333Y-64525035D01*
X173577505Y-64604901D01*
X173432180Y-64520994D01*
X173384199Y-64466849D01*
X173313680Y-64365189D01*
X173369490Y-64363141D01*
X173423091Y-64382182D01*
G37*
G36*
X176585992Y-62557049D02*
G01*
X176594714Y-62682998D01*
X176518129Y-62845630D01*
X176358164Y-62899065D01*
X176166112Y-62836758D01*
X176065200Y-62750571D01*
X175974543Y-62637106D01*
X176009926Y-62597028D01*
X176168589Y-62595668D01*
X176381945Y-62581880D01*
X176514901Y-62543257D01*
X176585992Y-62557049D01*
G37*
G36*
X173966973Y-65351955D02*
G01*
X174058332Y-65410898D01*
X174120136Y-65400220D01*
X174225489Y-65406939D01*
X174241666Y-65447309D01*
X174175553Y-65527325D01*
X173984687Y-65505873D01*
X173866286Y-65465022D01*
X173760099Y-65401842D01*
X173808120Y-65335853D01*
X173818956Y-65328983D01*
X173936628Y-65311098D01*
X173966973Y-65351955D01*
G37*
G36*
X173960894Y-59946940D02*
G01*
X174118514Y-60076186D01*
X174249578Y-60245266D01*
X174324328Y-60411937D01*
X174324698Y-60524944D01*
X174283999Y-60545701D01*
X174242097Y-60481562D01*
X174241666Y-60470909D01*
X174170861Y-60393079D01*
X174061336Y-60348960D01*
X173929436Y-60264471D01*
X173930024Y-60174064D01*
X173929203Y-60082824D01*
X173867280Y-60089212D01*
X173746666Y-60061639D01*
X173704915Y-60000234D01*
X173704714Y-59889602D01*
X173802453Y-59874117D01*
X173960894Y-59946940D01*
G37*
G36*
X179332186Y-59580929D02*
G01*
X179433336Y-59844108D01*
X179454588Y-60255296D01*
X179412004Y-60707128D01*
X179350736Y-61065487D01*
X179276463Y-61379414D01*
X179202519Y-61595245D01*
X179181747Y-61633844D01*
X179100390Y-61844479D01*
X179098841Y-62010438D01*
X179101226Y-62198021D01*
X179061526Y-62288766D01*
X179041855Y-62425687D01*
X179130345Y-62670416D01*
X179192070Y-62792615D01*
X179296821Y-63040560D01*
X179370847Y-63311106D01*
X179408402Y-63561226D01*
X179403741Y-63747892D01*
X179351117Y-63828074D01*
X179330132Y-63826534D01*
X179254550Y-63868269D01*
X179251018Y-63890035D01*
X179313436Y-63951621D01*
X179369551Y-63949823D01*
X179460948Y-63999055D01*
X179489726Y-64178810D01*
X179455028Y-64461941D01*
X179393370Y-64704247D01*
X179345021Y-64934860D01*
X179351203Y-65174480D01*
X179415047Y-65491476D01*
X179432570Y-65560736D01*
X179517761Y-66047934D01*
X179557860Y-66654488D01*
X179559977Y-66967611D01*
X179563080Y-67416840D01*
X179584918Y-67713819D01*
X179627157Y-67874767D01*
X179656837Y-67909541D01*
X179722616Y-68039562D01*
X179706021Y-68155131D01*
X179680332Y-68217128D01*
X179632932Y-68262954D01*
X179540813Y-68295049D01*
X179380967Y-68315856D01*
X179130386Y-68327816D01*
X178766064Y-68333371D01*
X178264993Y-68334961D01*
X178010683Y-68335035D01*
X177403059Y-68332075D01*
X176948179Y-68322506D01*
X176629545Y-68305294D01*
X176430661Y-68279404D01*
X176335027Y-68243800D01*
X176323055Y-68229201D01*
X176304153Y-68208035D01*
X176527666Y-68208035D01*
X176569999Y-68250368D01*
X176612333Y-68208035D01*
X176569999Y-68165701D01*
X176527666Y-68208035D01*
X176304153Y-68208035D01*
X176267452Y-68166937D01*
X176224277Y-68229201D01*
X176162254Y-68266934D01*
X176005275Y-68295351D01*
X175737187Y-68315392D01*
X175341841Y-68327995D01*
X174803084Y-68334100D01*
X174403944Y-68335035D01*
X172632999Y-68335035D01*
X172632999Y-67700035D01*
X176188999Y-67700035D01*
X176231333Y-67742368D01*
X176273666Y-67700035D01*
X176255601Y-67681970D01*
X176795314Y-67681970D01*
X176815914Y-67729286D01*
X176901165Y-67820180D01*
X176950175Y-67801534D01*
X176950999Y-67789698D01*
X176946803Y-67784701D01*
X177035666Y-67784701D01*
X177077999Y-67827035D01*
X177120333Y-67784701D01*
X177077999Y-67742368D01*
X177204999Y-67742368D01*
X177235977Y-67812058D01*
X177261444Y-67798812D01*
X177271577Y-67698333D01*
X177261444Y-67685923D01*
X177211109Y-67697546D01*
X177204999Y-67742368D01*
X177077999Y-67742368D01*
X177035666Y-67784701D01*
X176946803Y-67784701D01*
X176890862Y-67718085D01*
X176853251Y-67691950D01*
X176795314Y-67681970D01*
X176255601Y-67681970D01*
X176231333Y-67657701D01*
X176188999Y-67700035D01*
X172632999Y-67700035D01*
X172632999Y-67615368D01*
X172637256Y-67361368D01*
X174749666Y-67361368D01*
X174791999Y-67403701D01*
X174834333Y-67361368D01*
X174791999Y-67319035D01*
X174749666Y-67361368D01*
X172637256Y-67361368D01*
X172638911Y-67262590D01*
X174947221Y-67262590D01*
X174958844Y-67312924D01*
X175003666Y-67319035D01*
X175073356Y-67288056D01*
X175060110Y-67262590D01*
X174959631Y-67252457D01*
X174947221Y-67262590D01*
X172638911Y-67262590D01*
X172639105Y-67251031D01*
X172660482Y-67028172D01*
X172701715Y-66919270D01*
X172752944Y-66895701D01*
X172885484Y-66959189D01*
X172910686Y-67001535D01*
X172974432Y-67070461D01*
X172999658Y-67060729D01*
X173021580Y-66949312D01*
X172980723Y-66768773D01*
X172901962Y-66581248D01*
X172810174Y-66448873D01*
X172744803Y-66424150D01*
X172651519Y-66412320D01*
X172653616Y-66283321D01*
X172750421Y-66059444D01*
X172756095Y-66049118D01*
X172873190Y-65837535D01*
X172931607Y-66070285D01*
X172997228Y-66238422D01*
X173065511Y-66303035D01*
X173126870Y-66374028D01*
X173140999Y-66472368D01*
X173174647Y-66609977D01*
X173221304Y-66641701D01*
X173331341Y-66694595D01*
X173498381Y-66824747D01*
X173530000Y-66853368D01*
X173723791Y-66995227D01*
X173897539Y-67063857D01*
X173915362Y-67065035D01*
X174046144Y-67099003D01*
X174072333Y-67140745D01*
X174144636Y-67192899D01*
X174290242Y-67204245D01*
X174429602Y-67183368D01*
X174415527Y-67135338D01*
X174382827Y-67112796D01*
X174304528Y-67036037D01*
X174338074Y-66931118D01*
X174393377Y-66853426D01*
X174529251Y-66673294D01*
X174872292Y-66843750D01*
X175091144Y-66943170D01*
X175244340Y-66995752D01*
X175275786Y-66998302D01*
X175302405Y-67047431D01*
X175283461Y-67119936D01*
X175277510Y-67219405D01*
X175350008Y-67214171D01*
X175444242Y-67121642D01*
X175447161Y-67072604D01*
X175479115Y-66949042D01*
X175585589Y-66752074D01*
X175646998Y-66659854D01*
X175775270Y-66487709D01*
X175826135Y-66450882D01*
X175812233Y-66541288D01*
X175807762Y-66557035D01*
X175759261Y-66808763D01*
X175747943Y-66972180D01*
X175730052Y-67093675D01*
X175687536Y-67075611D01*
X175614050Y-67057472D01*
X175526351Y-67193616D01*
X175454282Y-67360724D01*
X175426999Y-67440174D01*
X175497745Y-67459337D01*
X175662785Y-67449454D01*
X175851323Y-67419147D01*
X175992565Y-67377042D01*
X176006338Y-67369605D01*
X176115215Y-67379485D01*
X176156136Y-67440182D01*
X176231141Y-67535505D01*
X176305095Y-67489876D01*
X176352477Y-67329903D01*
X176358333Y-67229371D01*
X176383989Y-67034187D01*
X176450246Y-66994360D01*
X176541039Y-67105679D01*
X176619598Y-67297868D01*
X176691943Y-67469695D01*
X176748584Y-67523347D01*
X176761397Y-67506001D01*
X176816506Y-67439358D01*
X176926665Y-67503306D01*
X177020908Y-67561445D01*
X177027469Y-67488368D01*
X177204999Y-67488368D01*
X177233886Y-67570833D01*
X177242336Y-67573035D01*
X177244566Y-67571205D01*
X177482141Y-67571205D01*
X177524879Y-67709576D01*
X177590586Y-67736316D01*
X177615224Y-67669234D01*
X177769647Y-67669234D01*
X177879065Y-67741902D01*
X177893786Y-67742368D01*
X177927040Y-67677677D01*
X177909547Y-67594201D01*
X177889615Y-67497395D01*
X177959039Y-67539917D01*
X177964855Y-67545252D01*
X178113605Y-67610501D01*
X178180419Y-67602980D01*
X178314591Y-67621756D01*
X178346973Y-67656040D01*
X178441360Y-67698390D01*
X178552147Y-67626395D01*
X178631443Y-67482367D01*
X178644333Y-67393334D01*
X178680162Y-67261458D01*
X178725151Y-67234368D01*
X178826114Y-67180750D01*
X178981180Y-67054352D01*
X179134007Y-66906854D01*
X179228255Y-66789938D01*
X179236999Y-66764853D01*
X179174024Y-66720607D01*
X179022135Y-66749702D01*
X178836888Y-66837145D01*
X178752102Y-66895701D01*
X178552206Y-67015959D01*
X178378914Y-67065035D01*
X178246050Y-67130019D01*
X178220999Y-67235981D01*
X178189180Y-67357343D01*
X178063056Y-67366340D01*
X178020851Y-67356693D01*
X177855870Y-67352351D01*
X177778019Y-67469891D01*
X177776060Y-67477178D01*
X177769647Y-67669234D01*
X177615224Y-67669234D01*
X177628084Y-67634218D01*
X177628333Y-67620365D01*
X177580048Y-67478392D01*
X177548790Y-67449201D01*
X177490934Y-67476972D01*
X177482141Y-67571205D01*
X177244566Y-67571205D01*
X177314622Y-67513706D01*
X177331999Y-67488368D01*
X177325286Y-67410349D01*
X177294663Y-67403701D01*
X177208445Y-67465162D01*
X177204999Y-67488368D01*
X177027469Y-67488368D01*
X177028203Y-67480197D01*
X177021195Y-67443339D01*
X176931871Y-67313077D01*
X176833116Y-67303642D01*
X176720058Y-67284540D01*
X176719769Y-67218975D01*
X176818029Y-67132026D01*
X176866136Y-67131997D01*
X176933816Y-67098099D01*
X176917115Y-67014188D01*
X176893129Y-66919887D01*
X176961022Y-66954223D01*
X176997847Y-66984115D01*
X177133246Y-67044882D01*
X177190285Y-67017257D01*
X177314219Y-66938106D01*
X177416666Y-66909112D01*
X177568296Y-66852163D01*
X177613996Y-66803955D01*
X177700039Y-66773654D01*
X177789458Y-66806642D01*
X177937017Y-66829419D01*
X178055319Y-66721299D01*
X178183765Y-66592961D01*
X178268901Y-66557035D01*
X178359777Y-66514701D01*
X179236999Y-66514701D01*
X179279333Y-66557035D01*
X179321666Y-66514701D01*
X179279333Y-66472368D01*
X179236999Y-66514701D01*
X178359777Y-66514701D01*
X178392129Y-66499630D01*
X178517333Y-66387701D01*
X178604227Y-66266066D01*
X178594820Y-66218368D01*
X178600171Y-66169176D01*
X178706220Y-66046475D01*
X178755283Y-65999333D01*
X178904033Y-65837748D01*
X178929404Y-65724655D01*
X178892217Y-65660666D01*
X178844711Y-65567278D01*
X178943222Y-65541184D01*
X178960891Y-65541035D01*
X179080738Y-65506802D01*
X179095920Y-65373918D01*
X179088388Y-65329368D01*
X179086437Y-65172223D01*
X179132573Y-65117701D01*
X179190144Y-65044709D01*
X179207375Y-64876788D01*
X179168295Y-64715911D01*
X179053154Y-64665668D01*
X178838449Y-64722441D01*
X178675734Y-64794931D01*
X178477722Y-64833591D01*
X178226675Y-64760486D01*
X178210068Y-64753119D01*
X177984504Y-64655396D01*
X177811173Y-64586383D01*
X177797666Y-64581641D01*
X177750166Y-64546454D01*
X177851488Y-64531719D01*
X178057591Y-64565554D01*
X178268751Y-64647701D01*
X178467781Y-64721362D01*
X178595023Y-64714712D01*
X178613365Y-64632689D01*
X178598383Y-64603851D01*
X178628159Y-64542399D01*
X178730050Y-64525035D01*
X178937006Y-64469104D01*
X179033379Y-64402083D01*
X179106402Y-64297880D01*
X179040268Y-64218894D01*
X178983248Y-64186501D01*
X178786284Y-64134955D01*
X178665871Y-64211807D01*
X178644333Y-64312507D01*
X178597937Y-64382715D01*
X178438457Y-64404141D01*
X178242166Y-64393294D01*
X177885881Y-64357499D01*
X177662600Y-64321831D01*
X177536150Y-64279176D01*
X177489672Y-64245263D01*
X177511889Y-64198826D01*
X177639518Y-64171475D01*
X177808760Y-64175886D01*
X177825466Y-64178553D01*
X177867237Y-64160072D01*
X178076866Y-64160072D01*
X178153983Y-64186304D01*
X178163302Y-64186368D01*
X178309560Y-64142095D01*
X178344383Y-64107551D01*
X178355282Y-64008856D01*
X178270745Y-63981320D01*
X178154914Y-64039457D01*
X178135559Y-64060300D01*
X178076866Y-64160072D01*
X177867237Y-64160072D01*
X177893463Y-64148469D01*
X177865923Y-64044236D01*
X177768507Y-63909961D01*
X177626879Y-63789751D01*
X177585400Y-63765945D01*
X177557315Y-63749564D01*
X177816876Y-63749564D01*
X177875091Y-63853800D01*
X177891807Y-63872204D01*
X178017692Y-63957003D01*
X178081872Y-63955231D01*
X178084397Y-63927345D01*
X178591941Y-63927345D01*
X178693162Y-63901058D01*
X178910405Y-63799125D01*
X179071044Y-63700431D01*
X179130475Y-63631323D01*
X179127416Y-63625229D01*
X179037025Y-63638931D01*
X178861898Y-63723088D01*
X178802048Y-63758156D01*
X178624649Y-63878354D01*
X178591941Y-63927345D01*
X178084397Y-63927345D01*
X178088509Y-63881944D01*
X178039538Y-63837118D01*
X177970430Y-63760860D01*
X178051666Y-63679664D01*
X178119427Y-63611604D01*
X178093999Y-63596294D01*
X177952464Y-63637854D01*
X177891807Y-63670721D01*
X177816876Y-63749564D01*
X177557315Y-63749564D01*
X177404875Y-63660651D01*
X177307080Y-63579510D01*
X177304604Y-63575015D01*
X177240009Y-63555153D01*
X177156175Y-63633850D01*
X177098968Y-63753345D01*
X177100125Y-63832496D01*
X177067043Y-63950269D01*
X176932918Y-64114459D01*
X176856683Y-64183417D01*
X176636017Y-64398078D01*
X176452229Y-64628230D01*
X176423471Y-64674132D01*
X176276943Y-64926614D01*
X176639495Y-65065074D01*
X176967454Y-65153820D01*
X177295323Y-65146557D01*
X177399857Y-65129215D01*
X177668642Y-65094444D01*
X177779204Y-65119596D01*
X177731225Y-65203946D01*
X177524386Y-65346769D01*
X177501333Y-65360483D01*
X177314790Y-65489594D01*
X177211982Y-65597770D01*
X177204999Y-65620189D01*
X177143760Y-65670948D01*
X177086645Y-65659637D01*
X176950599Y-65683259D01*
X176793253Y-65802102D01*
X176652351Y-65924478D01*
X176543998Y-65921396D01*
X176488274Y-65882142D01*
X176387634Y-65823925D01*
X176358878Y-65910232D01*
X176358333Y-65946074D01*
X176320122Y-66072370D01*
X176188999Y-66073567D01*
X176051648Y-66002146D01*
X176019666Y-65944126D01*
X175967087Y-65920973D01*
X175876413Y-65975168D01*
X175782367Y-66037042D01*
X175796743Y-65985535D01*
X175791755Y-65915588D01*
X175652431Y-65883795D01*
X175511666Y-65879701D01*
X175284884Y-65861198D01*
X175211888Y-65807774D01*
X175218670Y-65789634D01*
X175195584Y-65736232D01*
X175018496Y-65747780D01*
X174989250Y-65753050D01*
X174731795Y-65760610D01*
X174526212Y-65651926D01*
X174511049Y-65639043D01*
X174398833Y-65509302D01*
X174392687Y-65425542D01*
X174395382Y-65423686D01*
X174413671Y-65384883D01*
X175229298Y-65384883D01*
X175274826Y-65439985D01*
X175427947Y-65511126D01*
X175661669Y-65590547D01*
X175853596Y-65625614D01*
X175860053Y-65625701D01*
X175992748Y-65672338D01*
X176020962Y-65731535D01*
X176044814Y-65783414D01*
X176097084Y-65719197D01*
X176222894Y-65639629D01*
X176291095Y-65646762D01*
X176437906Y-65653326D01*
X176679193Y-65619088D01*
X176828807Y-65585366D01*
X177247333Y-65478235D01*
X176908666Y-65332557D01*
X176609379Y-65256320D01*
X176217577Y-65224911D01*
X175803998Y-65238193D01*
X175439381Y-65296029D01*
X175312393Y-65335670D01*
X175229298Y-65384883D01*
X174413671Y-65384883D01*
X174448279Y-65311455D01*
X174451695Y-65183260D01*
X174464927Y-65044414D01*
X174578176Y-64994580D01*
X174674778Y-64990701D01*
X174848965Y-65006832D01*
X174918999Y-65044326D01*
X174990275Y-65118885D01*
X175170931Y-65143449D01*
X175411206Y-65125889D01*
X175661341Y-65074078D01*
X175871576Y-64995887D01*
X175992151Y-64899188D01*
X176002480Y-64872926D01*
X175977815Y-64668043D01*
X175860772Y-64425913D01*
X175691550Y-64214633D01*
X175557159Y-64118546D01*
X175377259Y-63981392D01*
X175366393Y-63875923D01*
X176217221Y-63875923D01*
X176228844Y-63926258D01*
X176273666Y-63932368D01*
X176343356Y-63901390D01*
X176330110Y-63875923D01*
X176229631Y-63865790D01*
X176217221Y-63875923D01*
X175366393Y-63875923D01*
X175360260Y-63816399D01*
X175443933Y-63695301D01*
X175490926Y-63610423D01*
X175460866Y-63593701D01*
X175332326Y-63647566D01*
X175274599Y-63695301D01*
X175190594Y-63748114D01*
X175181109Y-63683013D01*
X175242385Y-63532242D01*
X175306442Y-63422040D01*
X175386486Y-63292930D01*
X175377739Y-63286604D01*
X175269766Y-63405300D01*
X175242942Y-63435638D01*
X175051955Y-63607149D01*
X174861637Y-63714562D01*
X174855499Y-63716511D01*
X174703389Y-63817309D01*
X174673094Y-63952857D01*
X174775205Y-64064009D01*
X174791999Y-64071083D01*
X174910444Y-64146795D01*
X174869429Y-64211148D01*
X174678826Y-64251904D01*
X174643833Y-64254812D01*
X174421455Y-64307133D01*
X174270588Y-64405436D01*
X174269772Y-64406514D01*
X174129660Y-64477892D01*
X173957647Y-64430468D01*
X173815247Y-64286677D01*
X173788617Y-64231053D01*
X173690483Y-64148596D01*
X173519495Y-64105929D01*
X173344820Y-64107928D01*
X173235627Y-64159471D01*
X173225666Y-64191365D01*
X173173092Y-64240348D01*
X173135599Y-64225364D01*
X173083444Y-64248307D01*
X173093726Y-64423492D01*
X173102688Y-64474367D01*
X173121920Y-64689437D01*
X173080925Y-64778258D01*
X173073700Y-64779035D01*
X173007074Y-64703739D01*
X172954616Y-64514964D01*
X172922560Y-64268378D01*
X172918068Y-64062347D01*
X174072333Y-64062347D01*
X174101602Y-64146632D01*
X174216752Y-64114693D01*
X174241666Y-64101701D01*
X174374653Y-64015466D01*
X174410999Y-63971722D01*
X174339777Y-63939696D01*
X174241666Y-63932368D01*
X174102634Y-63986675D01*
X174072333Y-64062347D01*
X172918068Y-64062347D01*
X172917137Y-64019648D01*
X172944581Y-63824443D01*
X172961973Y-63781145D01*
X172986754Y-63718418D01*
X173171637Y-63718418D01*
X173184414Y-63764784D01*
X173288586Y-63849056D01*
X173359785Y-63796968D01*
X173354465Y-63706590D01*
X173677221Y-63706590D01*
X173688844Y-63756924D01*
X173733666Y-63763035D01*
X173803356Y-63732056D01*
X173797615Y-63721019D01*
X174178686Y-63721019D01*
X174196323Y-63806697D01*
X174347499Y-63901895D01*
X174493725Y-63976702D01*
X174545055Y-64006639D01*
X174551301Y-63947707D01*
X174552110Y-63890035D01*
X174511235Y-63777293D01*
X174476558Y-63763035D01*
X174437094Y-63711426D01*
X174448453Y-63686264D01*
X174421362Y-63642995D01*
X174326449Y-63653805D01*
X174178686Y-63721019D01*
X173797615Y-63721019D01*
X173790110Y-63706590D01*
X173689631Y-63696457D01*
X173677221Y-63706590D01*
X173354465Y-63706590D01*
X173352835Y-63678901D01*
X173337857Y-63558025D01*
X173424940Y-63558397D01*
X173432756Y-63561327D01*
X173526822Y-63566540D01*
X173515007Y-63483864D01*
X173786530Y-63483864D01*
X173902999Y-63495666D01*
X174023195Y-63482361D01*
X174008833Y-63452961D01*
X173835490Y-63441779D01*
X173797166Y-63452961D01*
X173786530Y-63483864D01*
X173515007Y-63483864D01*
X173513901Y-63476128D01*
X173448990Y-63382035D01*
X173564333Y-63382035D01*
X173606666Y-63424368D01*
X173648999Y-63382035D01*
X173606666Y-63339701D01*
X173564333Y-63382035D01*
X173448990Y-63382035D01*
X173432690Y-63358407D01*
X173388920Y-63339701D01*
X173289418Y-63409490D01*
X173203660Y-63563438D01*
X173171637Y-63718418D01*
X172986754Y-63718418D01*
X173033693Y-63599607D01*
X173111643Y-63333938D01*
X173141457Y-63210658D01*
X173169285Y-63128035D01*
X173564333Y-63128035D01*
X173606666Y-63170368D01*
X173648999Y-63128035D01*
X173606666Y-63085701D01*
X173564333Y-63128035D01*
X173169285Y-63128035D01*
X173244541Y-62904590D01*
X173342092Y-62720726D01*
X173552869Y-62720726D01*
X173654510Y-62869627D01*
X173808862Y-62988732D01*
X173960250Y-63096459D01*
X173999775Y-63145178D01*
X173969211Y-63140596D01*
X173823050Y-63137312D01*
X173775248Y-63171583D01*
X173804481Y-63242682D01*
X173935734Y-63300490D01*
X174101781Y-63326255D01*
X174235399Y-63301225D01*
X174236854Y-63300342D01*
X174318286Y-63302623D01*
X174326333Y-63334704D01*
X174371848Y-63413496D01*
X174389833Y-63414342D01*
X174579048Y-63419716D01*
X174646619Y-63502029D01*
X174638059Y-63541785D01*
X174647613Y-63623889D01*
X174759359Y-63615699D01*
X174876064Y-63564647D01*
X174885122Y-63531602D01*
X174906684Y-63449041D01*
X175014375Y-63309522D01*
X175184221Y-63128035D01*
X174734110Y-63078741D01*
X174358376Y-63023617D01*
X174269376Y-62995522D01*
X174939758Y-62995522D01*
X174951339Y-63001035D01*
X175028604Y-62941431D01*
X175045999Y-62916368D01*
X175067574Y-62837214D01*
X175055993Y-62831701D01*
X174978727Y-62891305D01*
X174961333Y-62916368D01*
X174939758Y-62995522D01*
X174269376Y-62995522D01*
X174126143Y-62950307D01*
X174011700Y-62847074D01*
X173987666Y-62737976D01*
X173975719Y-62710883D01*
X174168905Y-62710883D01*
X174210802Y-62845862D01*
X174271877Y-62916312D01*
X174273415Y-62916368D01*
X174285007Y-62847832D01*
X174265320Y-62743676D01*
X174213389Y-62623693D01*
X174178120Y-62613025D01*
X174168905Y-62710883D01*
X173975719Y-62710883D01*
X173930938Y-62609332D01*
X173783055Y-62577701D01*
X173595300Y-62616777D01*
X173552869Y-62720726D01*
X173342092Y-62720726D01*
X173394218Y-62622479D01*
X173450112Y-62547073D01*
X173575657Y-62376964D01*
X173610047Y-62276275D01*
X173818333Y-62276275D01*
X173858205Y-62323244D01*
X173983123Y-62234291D01*
X174031409Y-62187595D01*
X174169377Y-62067893D01*
X174302795Y-62022436D01*
X174483504Y-62049117D01*
X174763348Y-62145828D01*
X174791999Y-62156690D01*
X175035822Y-62314771D01*
X175243289Y-62557865D01*
X175355437Y-62815664D01*
X175358087Y-62831701D01*
X175420401Y-62986516D01*
X175502896Y-63018739D01*
X175579563Y-63050341D01*
X175567043Y-63124572D01*
X175565288Y-63235605D01*
X175602701Y-63255035D01*
X175663675Y-63322344D01*
X175663544Y-63397575D01*
X175714399Y-63529912D01*
X175894922Y-63621027D01*
X176168540Y-63661907D01*
X176498677Y-63643536D01*
X176594250Y-63626951D01*
X176804313Y-63536133D01*
X176893271Y-63415168D01*
X176896201Y-63306307D01*
X176858437Y-63302248D01*
X176786116Y-63291091D01*
X176781666Y-63265737D01*
X176851242Y-63174049D01*
X176938887Y-63131879D01*
X177066247Y-63026206D01*
X177194381Y-62822365D01*
X177229283Y-62742948D01*
X177248683Y-62704701D01*
X177356473Y-62704701D01*
X177490211Y-62931210D01*
X177569844Y-63102993D01*
X177540888Y-63183597D01*
X177520307Y-63192608D01*
X177462032Y-63250757D01*
X177528036Y-63362446D01*
X177644714Y-63435663D01*
X177814514Y-63479982D01*
X177979952Y-63490343D01*
X178083545Y-63461687D01*
X178086087Y-63411566D01*
X178104109Y-63343793D01*
X178131336Y-63339701D01*
X178212243Y-63407603D01*
X178220999Y-63458775D01*
X178276911Y-63539628D01*
X178411499Y-63525699D01*
X178532175Y-63482772D01*
X178495581Y-63452468D01*
X178452796Y-63442551D01*
X178353825Y-63378828D01*
X178383861Y-63297127D01*
X178520399Y-63255081D01*
X178526024Y-63255035D01*
X178675553Y-63201962D01*
X178843203Y-63074708D01*
X178980466Y-62921212D01*
X179038832Y-62789417D01*
X179030908Y-62756056D01*
X178894295Y-62664850D01*
X178722344Y-62691525D01*
X178583820Y-62820402D01*
X178564056Y-62862487D01*
X178406565Y-63070443D01*
X178165986Y-63171064D01*
X177893173Y-63160617D01*
X177638981Y-63035368D01*
X177541798Y-62937535D01*
X177485639Y-62866979D01*
X178312350Y-62866979D01*
X178327917Y-62976793D01*
X178356819Y-62978104D01*
X178377030Y-62864787D01*
X178363503Y-62815826D01*
X178325908Y-62783756D01*
X178312350Y-62866979D01*
X177485639Y-62866979D01*
X177356473Y-62704701D01*
X177248683Y-62704701D01*
X177334574Y-62535368D01*
X178813666Y-62535368D01*
X178855999Y-62577701D01*
X178898333Y-62535368D01*
X178855999Y-62493035D01*
X178813666Y-62535368D01*
X177334574Y-62535368D01*
X177342389Y-62519960D01*
X177502783Y-62368514D01*
X177767882Y-62235475D01*
X177785701Y-62228027D01*
X177999028Y-62117113D01*
X178506857Y-62117113D01*
X178571612Y-62269804D01*
X178653688Y-62406084D01*
X178710603Y-62418516D01*
X178714459Y-62409655D01*
X178687176Y-62276587D01*
X178605807Y-62167219D01*
X178513894Y-62084590D01*
X178506857Y-62117113D01*
X177999028Y-62117113D01*
X178056184Y-62087396D01*
X178163838Y-61948940D01*
X178114202Y-61796788D01*
X178020000Y-61705159D01*
X178446401Y-61705159D01*
X178524939Y-61824107D01*
X178659481Y-61959390D01*
X178703368Y-61960243D01*
X178670954Y-61836868D01*
X178644743Y-61773368D01*
X178813666Y-61773368D01*
X178855999Y-61815701D01*
X178898333Y-61773368D01*
X178855999Y-61731035D01*
X178813666Y-61773368D01*
X178644743Y-61773368D01*
X178593017Y-61648056D01*
X178527008Y-61588956D01*
X178463633Y-61611059D01*
X178446401Y-61705159D01*
X178020000Y-61705159D01*
X177981319Y-61667535D01*
X177835593Y-61575929D01*
X177748192Y-61611580D01*
X177689077Y-61793244D01*
X177676252Y-61858035D01*
X177632962Y-62063575D01*
X177583129Y-62140684D01*
X177487903Y-62127150D01*
X177424193Y-62103207D01*
X177328534Y-61989063D01*
X177336377Y-61870374D01*
X177324584Y-61660601D01*
X177278505Y-61561701D01*
X178728999Y-61561701D01*
X178757886Y-61644167D01*
X178766336Y-61646368D01*
X178838622Y-61587039D01*
X178855999Y-61561701D01*
X178849286Y-61483682D01*
X178818663Y-61477035D01*
X178732445Y-61538495D01*
X178728999Y-61561701D01*
X177278505Y-61561701D01*
X177260270Y-61522564D01*
X177150183Y-61411332D01*
X177043416Y-61437730D01*
X177002494Y-61469431D01*
X176893578Y-61625571D01*
X176872898Y-61796347D01*
X176946425Y-61911360D01*
X176964371Y-61918936D01*
X177023563Y-62020807D01*
X177005092Y-62179992D01*
X176929551Y-62354038D01*
X176844852Y-62402911D01*
X176788173Y-62316785D01*
X176781666Y-62239035D01*
X176824110Y-62101578D01*
X176883266Y-62069701D01*
X176938468Y-62037663D01*
X176895512Y-61980348D01*
X176736512Y-61925786D01*
X176530137Y-61971730D01*
X176345257Y-62095556D01*
X176281005Y-62182214D01*
X176222827Y-62272111D01*
X176222097Y-62228185D01*
X176207484Y-62058277D01*
X176168953Y-61998855D01*
X176096092Y-61855101D01*
X176078072Y-61773368D01*
X176442999Y-61773368D01*
X176485333Y-61815701D01*
X176527666Y-61773368D01*
X176485333Y-61731035D01*
X176442999Y-61773368D01*
X176078072Y-61773368D01*
X176047759Y-61635875D01*
X176047287Y-61631656D01*
X176010678Y-61467643D01*
X176618186Y-61467643D01*
X176642614Y-61516145D01*
X176730446Y-61459206D01*
X176809072Y-61335813D01*
X176804529Y-61277495D01*
X176731699Y-61270977D01*
X176687712Y-61319829D01*
X176618186Y-61467643D01*
X176010678Y-61467643D01*
X175998557Y-61413342D01*
X175922975Y-61269930D01*
X175921257Y-61268320D01*
X175889140Y-61251257D01*
X178333888Y-61251257D01*
X178345510Y-61301591D01*
X178390333Y-61307701D01*
X178460023Y-61276723D01*
X178446777Y-61251257D01*
X178346297Y-61241124D01*
X178333888Y-61251257D01*
X175889140Y-61251257D01*
X175855363Y-61233312D01*
X175868586Y-61307701D01*
X175958791Y-61582965D01*
X175991516Y-61735064D01*
X175965859Y-61800435D01*
X175880922Y-61815514D01*
X175856038Y-61815701D01*
X175719585Y-61768836D01*
X175680999Y-61604035D01*
X175630731Y-61433153D01*
X175514831Y-61380861D01*
X175385660Y-61444292D01*
X175295577Y-61620578D01*
X175294541Y-61625201D01*
X175232431Y-61890518D01*
X175183123Y-62018918D01*
X175126351Y-62039555D01*
X175044997Y-61984203D01*
X174938889Y-61822342D01*
X174932378Y-61643890D01*
X175024833Y-61525917D01*
X175029651Y-61505327D01*
X174901304Y-61521061D01*
X174877358Y-61525613D01*
X174649908Y-61602920D01*
X174496358Y-61701518D01*
X174337257Y-61829752D01*
X174118630Y-61974853D01*
X174093499Y-61989855D01*
X173913862Y-62125987D01*
X173821596Y-62255249D01*
X173818333Y-62276275D01*
X173610047Y-62276275D01*
X173630941Y-62215101D01*
X173631315Y-61993088D01*
X173613495Y-61819012D01*
X173563895Y-61497694D01*
X173498264Y-61200662D01*
X173461750Y-61079906D01*
X173407362Y-60818087D01*
X173458749Y-60614240D01*
X173526996Y-60482990D01*
X173552163Y-60503453D01*
X173558602Y-60651535D01*
X173590932Y-60820596D01*
X173653996Y-60884368D01*
X173706762Y-60935181D01*
X173695802Y-60961803D01*
X173713604Y-61056448D01*
X173754305Y-61082119D01*
X173790641Y-61119918D01*
X173720426Y-61131684D01*
X173618920Y-61189661D01*
X173624467Y-61307701D01*
X173693604Y-61445004D01*
X173748537Y-61477035D01*
X173790056Y-61529401D01*
X173776414Y-61561031D01*
X173766921Y-61700111D01*
X173792583Y-61766089D01*
X173868380Y-61843062D01*
X173983377Y-61796568D01*
X174015525Y-61773699D01*
X174120071Y-61655501D01*
X174088262Y-61507650D01*
X174075110Y-61482224D01*
X174021357Y-61309891D01*
X174034562Y-61215651D01*
X174032409Y-61199986D01*
X178534532Y-61199986D01*
X178547464Y-61261266D01*
X178587719Y-61374634D01*
X178616333Y-61329482D01*
X178625950Y-61286535D01*
X178726668Y-61164621D01*
X178841041Y-61139664D01*
X178960036Y-61153620D01*
X178924006Y-61204471D01*
X178900784Y-61219727D01*
X178826277Y-61316244D01*
X178841888Y-61364146D01*
X178925557Y-61364116D01*
X179003324Y-61269955D01*
X179026021Y-61151243D01*
X179014180Y-61120323D01*
X178907834Y-61076016D01*
X178735822Y-61069846D01*
X178570267Y-61105168D01*
X178534532Y-61199986D01*
X174032409Y-61199986D01*
X174019116Y-61103274D01*
X173932644Y-61008463D01*
X173845839Y-60934351D01*
X173883708Y-60923736D01*
X174051166Y-60965853D01*
X174248929Y-60999882D01*
X174326219Y-60965778D01*
X174326333Y-60963124D01*
X174261727Y-60886616D01*
X174241666Y-60884368D01*
X174160323Y-60840047D01*
X174192373Y-60748377D01*
X174294158Y-60680518D01*
X174458241Y-60698123D01*
X174569325Y-60785169D01*
X174706492Y-60922155D01*
X174858523Y-61018198D01*
X175055630Y-61078928D01*
X175328028Y-61109975D01*
X175705928Y-61116971D01*
X176219545Y-61105544D01*
X176278320Y-61103645D01*
X176762463Y-61081223D01*
X177158930Y-61049919D01*
X177441123Y-61012475D01*
X177582446Y-60971637D01*
X177586387Y-60968712D01*
X177689142Y-60851707D01*
X177696272Y-60842035D01*
X178136333Y-60842035D01*
X178178666Y-60884368D01*
X178220999Y-60842035D01*
X178187725Y-60808760D01*
X178390333Y-60808760D01*
X178439844Y-60878202D01*
X178597670Y-60844831D01*
X178782821Y-60757889D01*
X178933488Y-60672463D01*
X178940724Y-60637297D01*
X178841757Y-60630889D01*
X178599547Y-60660209D01*
X178433157Y-60735590D01*
X178390333Y-60808760D01*
X178187725Y-60808760D01*
X178178666Y-60799701D01*
X178136333Y-60842035D01*
X177696272Y-60842035D01*
X177846939Y-60637638D01*
X177861934Y-60615424D01*
X178449293Y-60615424D01*
X178503091Y-60602460D01*
X178669906Y-60554352D01*
X178733267Y-60545701D01*
X178773899Y-60483363D01*
X178759617Y-60418701D01*
X178769046Y-60309654D01*
X178818719Y-60291701D01*
X178884568Y-60260243D01*
X178871393Y-60236540D01*
X178784166Y-60255417D01*
X178634019Y-60369968D01*
X178582115Y-60420298D01*
X178452130Y-60567013D01*
X178449293Y-60615424D01*
X177861934Y-60615424D01*
X178022690Y-60377281D01*
X178248586Y-60080035D01*
X178813666Y-60080035D01*
X178855999Y-60122368D01*
X178898333Y-60080035D01*
X178855999Y-60037701D01*
X178813666Y-60080035D01*
X178248586Y-60080035D01*
X178260273Y-60064656D01*
X178531892Y-59790917D01*
X178802567Y-59584347D01*
X179037316Y-59473234D01*
X179150970Y-59464966D01*
X179332186Y-59580929D01*
G37*
D16*
%TO.C,U14*%
X139840000Y-103625000D02*
X139510000Y-103865000D01*
X139510000Y-103385000D01*
X139840000Y-103625000D01*
G36*
X139840000Y-103625000D02*
G01*
X139510000Y-103865000D01*
X139510000Y-103385000D01*
X139840000Y-103625000D01*
G37*
%TO.C,R4*%
X144527064Y-67515000D02*
X144072936Y-67515000D01*
X144527064Y-68985000D02*
X144072936Y-68985000D01*
%TO.C,SW2*%
X93250000Y-77250000D02*
X93250000Y-78750000D01*
X94500000Y-81250000D02*
X99000000Y-81250000D01*
X99000000Y-74750000D02*
X94500000Y-74750000D01*
X100250000Y-78750000D02*
X100250000Y-77250000D01*
%TO.C,R27*%
X127727064Y-106965000D02*
X127272936Y-106965000D01*
X127727064Y-108435000D02*
X127272936Y-108435000D01*
%TO.C,D1*%
X128125000Y-59857500D02*
X128125000Y-60507500D01*
X128125000Y-60507500D02*
X128825000Y-60507500D01*
X129325000Y-59034533D02*
G75*
G02*
X131325000Y-59034533I1000000J-400000D01*
G01*
%TD*%
M02*
