M48
; DRILL file KiCad 10.0.2 date 2026-07-15T20:47:36
; FORMAT={-:-/ absolute / metric / decimal}
; #@! TF.CreationDate,2026-07-15T20:47:36+03:00
; #@! TF.GenerationSoftware,Kicad,Pcbnew,10.0.2
; #@! TF.FileFunction,Plated,1,4,PTH
FMAT,2
METRIC
; #@! TA.AperFunction,Plated,PTH,ViaDrill
T1C0.300
; #@! TA.AperFunction,Plated,PTH,ComponentDrill
T2C0.300
; #@! TA.AperFunction,Plated,PTH,ViaDrill
T3C0.600
; #@! TA.AperFunction,Plated,PTH,ComponentDrill
T4C0.600
; #@! TA.AperFunction,Plated,PTH,ComponentDrill
T5C0.800
; #@! TA.AperFunction,Plated,PTH,ComponentDrill
T6C0.900
; #@! TA.AperFunction,Plated,PTH,ComponentDrill
T7C1.000
; #@! TA.AperFunction,Plated,PTH,ComponentDrill
T8C1.100
%
G90
G05
T1
X96.0Y-118.0
X97.125Y-119.4
X99.8Y-120.0
X101.175Y-117.675
X102.15Y-112.5
X102.15Y-115.3
X102.3Y-119.4
X103.9Y-108.7
X104.0Y-71.0
X104.075Y-125.975
X104.275Y-123.755
X104.3Y-121.15
X104.45Y-84.1
X104.65Y-95.1
X105.85Y-119.6
X106.2Y-127.3
X106.35Y-83.5
X107.25Y-75.75
X107.25Y-87.75
X109.225Y-119.945
X109.45Y-117.05
X109.7Y-87.5
X109.857Y-69.157
X110.374Y-61.474
X111.25Y-85.75
X111.5Y-98.0
X111.55Y-64.15
X112.075Y-123.5
X112.3Y-68.2
X112.55Y-125.25
X113.3Y-77.3
X113.412Y-98.0
X113.412Y-102.5
X113.6Y-120.0
X114.212Y-87.2
X114.8Y-111.8
X115.7Y-122.45
X116.051Y-123.599
X116.1Y-94.9
X116.1Y-98.8
X116.75Y-120.85
X117.15Y-63.6
X118.0Y-125.65
X118.15Y-124.6
X119.712Y-86.8
X120.486Y-64.0
X120.5Y-63.0
X121.487Y-110.062
X122.912Y-93.0
X123.3Y-121.45
X123.9Y-119.1
X124.05Y-101.75
X124.05Y-106.9
X124.2Y-62.8
X124.25Y-90.75
X124.45Y-116.35
X124.75Y-118.25
X125.0Y-94.7
X125.175Y-106.25
X125.3Y-107.975
X125.438Y-110.05
X125.438Y-111.95
X125.45Y-114.3
X125.6Y-100.95
X125.6Y-105.35
X125.8Y-115.55
X126.35Y-73.65
X126.5Y-116.55
X126.599Y-117.5
X127.0Y-65.5
X128.6Y-119.1
X128.8Y-102.3
X129.15Y-87.8
X129.45Y-118.25
X129.6Y-90.9
X130.3Y-90.125
X130.45Y-101.45
X130.6Y-125.3
X130.8Y-120.9
X130.9Y-93.5
X130.95Y-82.793
X131.0Y-91.7
X131.2Y-116.55
X131.2Y-123.6
X131.315Y-90.965
X131.4Y-84.4
X131.8Y-127.3
X131.875Y-104.301
X132.05Y-117.1
X132.1Y-103.175
X132.9Y-83.45
X132.9Y-92.3
X133.0Y-79.7
X133.1Y-80.7
X133.225Y-106.95
X133.3Y-93.4
X133.497Y-73.259
X133.57Y-91.1
X133.685Y-76.065
X133.713Y-118.745
X133.75Y-72.5
X133.8Y-103.6
X133.8Y-104.8
X133.97Y-78.89
X134.0Y-100.1
X134.0Y-116.6
X134.3Y-77.4
X134.331Y-80.1
X134.575Y-92.998
X134.63Y-71.85
X134.825Y-74.678
X135.0Y-63.6
X135.0Y-81.6
X135.0Y-82.85
X135.099Y-76.199
X135.299Y-99.951
X135.35Y-108.85
X135.383Y-97.518
X135.385Y-102.493
X135.4Y-116.9
X135.438Y-74.164
X135.64Y-104.028
X135.762Y-101.787
X135.847Y-104.946
X136.0Y-126.5
X136.041Y-99.562
X136.1Y-76.8
X136.331Y-105.583
X136.386Y-103.062
X136.4Y-73.3
X136.4Y-81.45
X136.4Y-118.9
X136.53Y-101.562
X136.55Y-83.45
X136.9Y-86.3
X136.926Y-112.457
X136.95Y-103.676
X136.975Y-107.925
X136.984Y-106.057
X137.0Y-124.1
X137.1Y-84.25
X137.186Y-81.3
X137.267Y-101.252
X137.3Y-73.1
X137.301Y-111.75
X137.472Y-106.691
X137.6Y-62.4
X137.638Y-102.48
X137.64Y-104.08
X137.693Y-107.46
X137.9Y-95.85
X138.044Y-104.77
X138.151Y-115.551
X138.3Y-84.45
X138.381Y-79.069
X138.6Y-98.9
X138.8Y-112.35
X138.9Y-122.5
X139.098Y-84.393
X139.1Y-94.35
X139.175Y-114.225
X139.2Y-117.25
X139.2Y-120.95
X139.351Y-115.551
X139.5Y-123.5
X139.55Y-89.95
X139.6Y-104.121
X139.698Y-83.362
X139.725Y-92.475
X139.737Y-93.675
X139.75Y-106.85
X140.337Y-96.612
X140.386Y-115.013
X140.525Y-126.5
X140.53Y-80.37
X140.551Y-100.98
X140.677Y-114.177
X140.8Y-104.368
X140.825Y-108.187
X140.958Y-116.65
X140.97Y-107.4
X140.97Y-109.64
X140.97Y-110.44
X141.085Y-102.836
X141.25Y-112.275
X141.4Y-99.7
X141.449Y-125.074
X141.7Y-84.575
X141.7Y-111.2
X141.725Y-113.475
X141.901Y-101.4
X141.936Y-86.837
X142.049Y-124.2
X142.159Y-116.65
X142.309Y-75.54
X142.4Y-119.55
X142.45Y-108.58
X142.45Y-112.4
X142.5Y-65.8
X142.588Y-88.55
X142.61Y-99.675
X142.671Y-101.62
X142.95Y-83.05
X142.95Y-125.05
X143.0Y-116.5
X143.128Y-111.975
X143.15Y-122.2
X143.202Y-102.223
X143.225Y-95.05
X143.239Y-107.1
X143.251Y-120.501
X143.295Y-105.25
X143.342Y-106.049
X143.376Y-92.924
X143.386Y-99.062
X143.5Y-60.5
X143.55Y-126.417
X143.636Y-95.857
X143.841Y-111.426
X143.95Y-63.4
X144.0Y-122.75
X144.031Y-109.179
X144.15Y-99.3
X144.2Y-89.1
X144.2Y-66.1
X144.268Y-85.162
X144.349Y-114.965
X144.379Y-107.694
X144.395Y-112.506
X144.43Y-98.551
X144.542Y-106.018
X144.662Y-113.75
X144.689Y-92.475
X144.95Y-109.731
X145.085Y-112.1
X145.289Y-84.097
X145.337Y-94.168
X145.35Y-106.825
X145.5Y-75.6
X145.75Y-109.72
X145.8Y-111.7
X146.029Y-84.4
X146.1Y-72.9
X146.1Y-76.725
X146.1Y-78.925
X146.1Y-82.05
X146.289Y-86.6
X146.5Y-114.5
X146.55Y-109.8
X146.641Y-117.046
X146.641Y-115.361
X146.65Y-120.3
X146.675Y-125.5
X146.7Y-119.502
X146.8Y-87.8
X146.9Y-95.067
X146.94Y-91.95
X147.0Y-126.417
X147.076Y-95.847
X147.15Y-111.819
X147.16Y-80.7
X147.208Y-111.021
X147.3Y-107.0
X147.385Y-109.821
X147.4Y-122.95
X147.42Y-98.28
X147.6Y-78.317
X147.647Y-112.555
X147.69Y-94.876
X147.69Y-76.83
X147.723Y-91.786
X147.824Y-118.926
X147.97Y-86.89
X148.1Y-90.6
X148.1Y-110.92
X148.175Y-101.775
X148.179Y-109.72
X148.25Y-107.251
X148.3Y-115.5
X148.371Y-117.25
X148.375Y-100.5
X148.7Y-75.125
X148.799Y-121.4
X148.843Y-94.2
X148.975Y-109.8
X149.019Y-90.6
X149.036Y-92.302
X149.125Y-100.784
X149.136Y-115.5
X149.162Y-97.112
X149.2Y-86.15
X149.35Y-112.375
X149.37Y-94.802
X149.518Y-101.605
X149.543Y-120.444
X149.575Y-98.5
X149.6Y-78.7
X149.643Y-94.025
X149.65Y-117.5
X149.663Y-116.488
X149.7Y-110.2
X149.7Y-111.05
X149.749Y-123.9
X149.786Y-126.817
X149.8Y-77.536
X149.824Y-92.439
X149.838Y-119.518
X149.953Y-123.127
X150.219Y-95.712
X150.3Y-88.5
X150.3Y-91.0
X150.325Y-112.0
X150.359Y-98.661
X150.4Y-78.7
X150.6Y-123.701
X150.625Y-87.65
X150.688Y-107.379
X150.7Y-102.0
X150.742Y-77.442
X150.875Y-108.6
X150.878Y-110.611
X150.916Y-96.105
X150.968Y-74.85
X150.998Y-99.863
X151.0Y-68.0
X151.025Y-97.631
X151.03Y-120.2
X151.049Y-99.065
X151.275Y-94.442
X151.4Y-78.37
X151.4Y-91.048
X151.568Y-85.594
X151.6Y-83.55
X151.675Y-117.975
X151.7Y-108.575
X151.75Y-90.25
X151.802Y-124.021
X151.836Y-120.2
X151.85Y-88.0
X151.875Y-93.843
X151.963Y-86.29
X151.966Y-115.485
X152.15Y-121.45
X152.15Y-126.417
X152.2Y-84.35
X152.375Y-111.45
X152.392Y-123.481
X152.482Y-118.05
X152.5Y-110.575
X152.605Y-95.042
X152.625Y-120.05
X152.999Y-122.96
X153.0Y-77.8
X153.05Y-72.9
X153.3Y-124.017
X153.356Y-114.967
X153.426Y-126.817
X153.5Y-79.725
X153.624Y-91.472
X153.709Y-123.329
X153.801Y-117.625
X153.825Y-120.16
X154.05Y-110.45
X154.15Y-58.45
X154.157Y-116.909
X154.2Y-92.575
X154.5Y-84.25
X154.602Y-117.625
X154.625Y-111.95
X154.85Y-121.192
X154.873Y-90.127
X155.1Y-78.35
X155.2Y-75.05
X155.275Y-109.825
X155.344Y-118.025
X155.346Y-120.47
X155.359Y-119.27
X155.439Y-124.363
X155.45Y-84.1
X155.45Y-122.15
X155.459Y-117.075
X155.5Y-112.225
X155.575Y-105.8
X155.83Y-92.5
X155.898Y-82.471
X156.162Y-77.0
X156.201Y-110.325
X156.398Y-108.575
X156.575Y-86.1
X156.63Y-90.641
X156.725Y-115.6
X156.769Y-82.731
X156.812Y-112.2
X156.85Y-79.275
X156.9Y-72.5
X156.998Y-85.42
X157.001Y-110.325
X157.061Y-102.5
X157.325Y-126.2
X157.451Y-109.097
X157.451Y-89.049
X157.637Y-76.388
X157.671Y-84.1
X157.754Y-113.272
X157.83Y-80.7
X158.0Y-121.85
X158.15Y-110.721
X158.175Y-77.85
X158.25Y-113.9
X158.25Y-117.05
X158.328Y-123.661
X158.455Y-124.6
X158.5Y-127.949
X158.5Y-125.8
X158.501Y-79.275
X158.551Y-119.147
X158.675Y-99.07
X158.85Y-75.85
X158.95Y-120.55
X159.019Y-85.781
X159.254Y-118.15
X159.275Y-121.475
X159.275Y-123.0
X159.312Y-101.662
X159.326Y-106.801
X159.33Y-98.611
X159.475Y-112.7
X159.504Y-124.63
X159.524Y-76.576
X159.677Y-97.4
X159.73Y-92.313
X159.95Y-88.35
X160.0Y-102.9
X160.074Y-104.774
X160.2Y-86.114
X160.2Y-93.575
X160.275Y-84.775
X160.45Y-81.9
X160.451Y-108.249
X160.486Y-91.966
X160.625Y-71.884
X160.75Y-119.15
X160.78Y-85.514
X160.867Y-84.1
X160.95Y-94.375
X161.0Y-102.188
X161.025Y-101.12
X161.1Y-96.8
X161.1Y-98.9
X161.15Y-72.488
X161.4Y-81.15
X161.65Y-95.6
X161.675Y-78.05
X161.8Y-126.025
X161.999Y-84.812
X162.075Y-79.851
X162.076Y-119.924
X162.1Y-127.95
X162.2Y-102.075
X162.225Y-101.05
X162.28Y-77.277
X162.303Y-92.565
X162.4Y-93.825
X162.461Y-85.465
X162.5Y-63.0
X162.5Y-84.1
X162.65Y-127.3
X162.7Y-116.5
X162.85Y-125.0
X163.0Y-79.775
X163.056Y-86.0
X163.1Y-92.5
X163.176Y-91.624
X163.5Y-78.125
X163.65Y-100.95
X163.7Y-127.3
X163.8Y-111.7
X164.0Y-84.6
X164.045Y-118.65
X164.3Y-114.35
X164.576Y-127.524
X164.612Y-119.887
X164.65Y-80.875
X164.65Y-91.85
X164.8Y-126.2
X165.036Y-97.92
X165.1Y-83.3
X165.1Y-99.47
X165.4Y-71.825
X165.43Y-119.9
X165.5Y-86.5
X165.68Y-93.57
X165.7Y-81.0
X165.774Y-126.326
X165.8Y-101.525
X165.942Y-100.325
X166.0Y-75.925
X166.0Y-107.9
X166.5Y-76.7
X166.623Y-98.875
X166.65Y-115.438
X166.75Y-94.175
X166.752Y-98.086
X166.802Y-96.275
X167.57Y-96.05
X167.83Y-85.6
X167.9Y-114.7
X167.906Y-90.175
X168.04Y-92.63
X168.543Y-89.691
X168.875Y-99.55
X169.1Y-112.55
X169.1Y-117.1
X169.308Y-98.017
X169.32Y-109.16
X169.35Y-84.95
X169.35Y-86.65
X169.35Y-91.75
X170.2Y-124.5
X170.3Y-84.05
X170.4Y-95.25
X170.425Y-80.1
X170.475Y-99.028
X170.65Y-101.175
X170.9Y-122.2
X171.15Y-111.175
X171.179Y-92.362
X171.374Y-84.276
X171.625Y-111.85
X172.05Y-80.1
X172.052Y-84.701
X172.1Y-94.45
X172.316Y-101.866
X172.35Y-103.84
X172.45Y-98.964
X172.65Y-111.95
X172.8Y-68.05
X172.95Y-99.65
X172.95Y-104.7
X173.0Y-93.65
X173.036Y-97.837
X173.05Y-80.1
X173.05Y-85.15
X173.675Y-92.325
X173.776Y-99.426
X173.8Y-97.6
X174.0Y-67.8
X174.35Y-68.55
X174.393Y-109.358
X174.397Y-80.075
X174.4Y-70.05
X174.65Y-97.225
X174.953Y-102.248
X175.12Y-112.68
X175.139Y-110.31
X175.15Y-83.6
X175.5Y-95.35
X175.55Y-80.15
X175.575Y-123.275
X177.85Y-65.0
X177.95Y-80.325
X177.95Y-83.625
X178.05Y-95.35
X178.5Y-118.6
X178.65Y-63.15
X178.974Y-104.626
X179.049Y-97.651
X179.6Y-86.65
X179.6Y-109.4
X179.649Y-110.801
X179.7Y-90.35
X179.7Y-96.2
X180.5Y-90.3
X180.6Y-104.95
X180.9Y-87.25
X181.3Y-93.925
X181.876Y-91.974
X181.9Y-92.9
X182.125Y-88.925
X182.25Y-118.75
X182.388Y-85.938
X182.45Y-82.25
X182.451Y-88.121
X182.66Y-103.89
X183.02Y-127.54
X183.3Y-89.2
X183.35Y-88.35
X183.35Y-90.05
X183.35Y-90.9
X183.76Y-100.68
X184.231Y-87.163
X184.256Y-85.15
X184.3Y-79.075
X184.55Y-105.9
X184.575Y-91.408
X184.616Y-92.652
X184.72Y-107.0
X184.8Y-83.65
X184.981Y-89.156
X185.025Y-84.9
X185.179Y-90.669
X185.499Y-116.597
X185.75Y-95.55
X185.83Y-99.84
X186.15Y-113.12
X186.2Y-64.2
X186.701Y-92.501
X186.825Y-94.6
X186.903Y-83.794
X187.075Y-114.12
X187.156Y-98.15
X187.4Y-101.7
X187.426Y-90.149
X187.51Y-77.9
X187.51Y-84.314
X187.725Y-94.05
X187.75Y-113.29
X187.984Y-106.586
X188.6Y-85.062
X188.725Y-95.25
X188.787Y-89.4
X189.475Y-90.05
X189.6Y-99.35
X189.7Y-91.499
X190.09Y-88.8
X190.137Y-116.67
X190.21Y-90.882
T2
X106.05Y-120.65
X106.05Y-121.85
X106.05Y-123.05
X107.45Y-120.65
X107.45Y-121.85
X107.45Y-123.05
T3
X145.387Y-100.8
X145.85Y-104.6
T5
X119.08Y-92.05
X121.62Y-92.05
X151.75Y-82.05
X153.5Y-87.8
X154.29Y-82.05
X156.04Y-87.8
X161.5Y-88.5
X164.04Y-88.5
T6
X111.46Y-61.5
X112.73Y-61.5
X114.0Y-61.5
X115.27Y-61.5
T7
X115.92Y-70.0
X118.46Y-70.0
X121.0Y-70.0
X123.54Y-70.0
X126.08Y-70.0
X128.62Y-70.0
X131.16Y-70.0
X133.7Y-70.0
X183.97Y-118.85
X186.51Y-118.85
X189.05Y-118.85
T8
X93.5Y-60.75
X93.5Y-65.25
X93.5Y-75.75
X93.5Y-80.25
X93.5Y-87.75
X93.5Y-92.25
X93.5Y-100.25
X93.5Y-104.75
X100.0Y-60.75
X100.0Y-65.25
X100.0Y-75.75
X100.0Y-80.25
X100.0Y-87.75
X100.0Y-92.25
X100.0Y-100.25
X100.0Y-104.75
X145.75Y-60.75
X145.75Y-65.25
X152.25Y-60.75
X152.25Y-65.25
X156.55Y-60.75
X156.55Y-65.25
X163.05Y-60.75
X163.05Y-65.25
T4
G00X160.385Y-121.795
M15
G01X160.385Y-122.895
M16
G05
G00X160.385Y-126.125
M15
G01X160.385Y-126.925
M16
G05
G00X169.025Y-121.795
M15
G01X169.025Y-122.895
M16
G05
G00X169.025Y-126.125
M15
G01X169.025Y-126.925
M16
G05
G00X173.255Y-121.82
M15
G01X173.255Y-122.92
M16
G05
G00X173.255Y-126.15
M15
G01X173.255Y-126.95
M16
G05
G00X181.895Y-121.82
M15
G01X181.895Y-122.92
M16
G05
G00X181.895Y-126.15
M15
G01X181.895Y-126.95
M16
G05
M30
