M48
; DRILL file KiCad 10.0.2 date 2026-07-10T11:54:40
; FORMAT={-:-/ absolute / metric / decimal}
; #@! TF.CreationDate,2026-07-10T11:54:40+03:00
; #@! TF.GenerationSoftware,Kicad,Pcbnew,10.0.2
; #@! TF.FileFunction,Plated,1,2,PTH
FMAT,2
METRIC
; #@! TA.AperFunction,Plated,PTH,ViaDrill
T1C0.300
; #@! TA.AperFunction,Plated,PTH,ComponentDrill
T2C0.600
; #@! TA.AperFunction,Plated,PTH,ComponentDrill
T3C0.800
; #@! TA.AperFunction,Plated,PTH,ComponentDrill
T4C0.900
; #@! TA.AperFunction,Plated,PTH,ComponentDrill
T5C1.000
; #@! TA.AperFunction,Plated,PTH,ComponentDrill
T6C1.100
%
G90
G05
T1
X101.1Y-115.5
X102.15Y-112.5
X102.15Y-114.9
X102.15Y-116.1
X103.7Y-125.75
X103.9Y-117.25
X104.034Y-127.2
X104.45Y-84.1
X104.65Y-95.1
X105.8Y-115.5
X108.64Y-108.7
X111.5Y-98.0
X112.075Y-123.5
X112.55Y-125.25
X112.725Y-116.75
X113.3Y-77.3
X113.412Y-98.0
X113.412Y-102.5
X113.45Y-68.4
X114.212Y-87.2
X115.5Y-106.4
X115.85Y-116.15
X115.975Y-122.675
X116.35Y-124.25
X117.0Y-105.85
X117.0Y-110.55
X118.0Y-125.65
X118.15Y-124.6
X119.35Y-127.2
X119.625Y-60.1
X119.712Y-86.8
X121.25Y-116.8
X122.912Y-93.0
X123.3Y-121.45
X123.85Y-79.55
X123.9Y-119.1
X124.05Y-101.75
X124.05Y-106.9
X124.45Y-116.35
X124.559Y-60.125
X124.75Y-118.25
X125.0Y-94.7
X125.175Y-106.25
X125.3Y-107.975
X125.438Y-110.05
X125.45Y-114.3
X125.6Y-100.95
X125.6Y-105.35
X125.8Y-115.55
X126.5Y-116.55
X126.599Y-117.5
X127.0Y-65.5
X128.5Y-61.05
X128.6Y-119.1
X128.8Y-102.3
X129.15Y-87.8
X129.45Y-118.25
X130.8Y-101.8
X130.8Y-120.9
X131.2Y-116.55
X131.2Y-123.6
X131.55Y-89.0
X131.6Y-86.45
X131.65Y-80.35
X131.8Y-127.3
X131.85Y-83.45
X131.95Y-104.2
X132.05Y-115.9
X132.1Y-103.175
X133.225Y-106.95
X133.55Y-60.4
X133.713Y-118.745
X133.8Y-103.6
X133.8Y-104.8
X133.97Y-78.89
X134.0Y-116.6
X135.0Y-63.6
X135.25Y-124.7
X135.35Y-108.85
X135.4Y-116.9
X135.64Y-104.028
X135.66Y-76.81
X135.7Y-61.65
X135.775Y-102.875
X136.155Y-104.64
X136.25Y-89.0
X136.3Y-86.45
X136.3Y-111.7
X136.35Y-80.35
X136.4Y-118.9
X136.45Y-63.0
X136.55Y-83.45
X136.575Y-100.675
X136.584Y-102.964
X136.631Y-105.283
X136.95Y-103.676
X137.0Y-124.1
X137.35Y-105.9
X137.35Y-108.3
X137.35Y-111.04
X137.45Y-78.89
X137.64Y-104.08
X137.65Y-127.1
X137.751Y-100.5
X137.901Y-101.751
X137.95Y-106.9
X138.044Y-104.77
X138.151Y-115.551
X138.6Y-98.9
X138.8Y-112.35
X138.85Y-111.1
X138.9Y-122.5
X139.2Y-62.4
X139.2Y-117.25
X139.477Y-114.225
X139.5Y-123.5
X139.6Y-104.121
X139.75Y-106.85
X139.8Y-63.0
X139.85Y-61.65
X139.938Y-115.693
X140.425Y-91.25
X140.434Y-115.066
X140.525Y-126.5
X140.958Y-116.65
X140.97Y-109.18
X140.97Y-110.44
X141.0Y-114.5
X141.25Y-112.275
X141.4Y-107.45
X141.684Y-116.316
X141.725Y-113.475
X141.949Y-125.626
X142.0Y-101.4
X142.02Y-80.37
X142.049Y-124.2
X142.9Y-88.5
X142.95Y-125.05
X143.0Y-116.5
X143.15Y-122.2
X143.215Y-114.942
X143.251Y-120.501
X143.397Y-105.25
X143.45Y-63.6
X143.475Y-102.075
X143.5Y-60.5
X143.5Y-82.525
X143.9Y-122.65
X144.031Y-109.179
X144.15Y-99.3
X144.175Y-106.4
X144.2Y-66.1
X144.21Y-100.5
X144.3Y-89.2
X144.379Y-107.694
X144.588Y-112.313
X144.662Y-113.75
X144.95Y-109.731
X145.15Y-84.05
X145.287Y-104.675
X145.75Y-93.425
X145.875Y-109.725
X146.058Y-84.317
X146.1Y-72.9
X146.1Y-76.725
X146.1Y-78.925
X146.1Y-82.05
X146.192Y-99.292
X146.4Y-104.075
X146.525Y-111.7
X146.6Y-97.15
X146.641Y-115.361
X146.65Y-116.65
X146.65Y-120.3
X146.675Y-125.5
X146.7Y-119.502
X146.9Y-95.067
X146.94Y-91.95
X147.025Y-109.775
X147.076Y-95.847
X147.118Y-111.05
X147.16Y-80.7
X147.237Y-102.6
X147.3Y-107.0
X147.4Y-122.95
X147.42Y-98.28
X147.6Y-78.317
X147.69Y-94.876
X147.69Y-76.83
X147.9Y-118.6
X147.97Y-86.89
X147.975Y-126.417
X148.092Y-92.132
X148.1Y-90.6
X148.1Y-110.92
X148.179Y-109.72
X148.225Y-116.1
X148.375Y-100.5
X148.5Y-107.025
X148.6Y-120.2
X148.852Y-94.615
X148.975Y-109.8
X149.019Y-90.6
X149.114Y-92.809
X149.125Y-100.784
X149.162Y-97.112
X149.2Y-86.15
X149.35Y-112.375
X149.37Y-95.225
X149.518Y-101.605
X149.575Y-98.5
X149.663Y-116.488
X149.667Y-75.108
X149.694Y-93.643
X149.7Y-110.2
X149.7Y-111.05
X149.714Y-94.442
X149.786Y-126.817
X149.824Y-92.439
X150.3Y-88.5
X150.3Y-91.0
X150.3Y-121.2
X150.325Y-112.0
X150.359Y-98.661
X150.5Y-118.05
X150.514Y-94.442
X150.675Y-107.8
X150.7Y-102.0
X150.878Y-110.611
X150.963Y-95.728
X150.968Y-74.85
X150.979Y-126.417
X150.998Y-99.863
X151.0Y-68.0
X151.025Y-97.631
X151.049Y-99.065
X151.124Y-123.474
X151.15Y-88.3
X151.4Y-78.37
X151.4Y-91.048
X151.568Y-85.594
X151.7Y-108.575
X151.75Y-90.25
X151.8Y-111.45
X151.85Y-117.8
X151.908Y-115.525
X151.963Y-86.29
X152.2Y-84.35
X152.2Y-120.6
X152.3Y-107.4
X152.528Y-123.854
X152.605Y-95.042
X152.7Y-111.45
X152.987Y-123.05
X153.0Y-77.8
X153.05Y-72.9
X153.3Y-126.625
X153.325Y-114.959
X153.375Y-117.337
X153.466Y-123.854
X153.5Y-79.725
X153.624Y-91.472
X153.785Y-123.105
X153.8Y-118.4
X153.8Y-120.025
X153.85Y-112.475
X154.05Y-110.45
X154.15Y-58.45
X154.2Y-92.575
X154.5Y-84.25
X154.625Y-111.95
X154.873Y-90.127
X154.975Y-117.425
X155.075Y-118.359
X155.1Y-78.35
X155.125Y-120.35
X155.2Y-75.05
X155.2Y-126.55
X155.275Y-109.825
X155.5Y-112.225
X155.575Y-105.8
X155.625Y-84.5
X155.625Y-86.1
X155.83Y-92.5
X155.898Y-82.471
X155.9Y-124.3
X156.162Y-77.0
X156.201Y-110.325
X156.398Y-108.575
X156.769Y-82.731
X156.775Y-113.671
X156.812Y-112.2
X156.85Y-79.275
X156.9Y-72.5
X156.912Y-84.337
X157.001Y-110.325
X157.061Y-102.5
X157.305Y-91.113
X157.451Y-109.097
X157.451Y-89.049
X157.6Y-86.1
X157.624Y-124.724
X157.637Y-76.388
X157.754Y-113.272
X157.83Y-80.7
X157.9Y-119.7
X158.075Y-117.85
X158.15Y-110.721
X158.175Y-77.85
X158.2Y-123.4
X158.25Y-113.9
X158.25Y-117.05
X158.357Y-107.725
X158.4Y-121.8
X158.5Y-125.5
X158.501Y-79.275
X158.608Y-121.028
X158.675Y-99.07
X158.7Y-119.35
X158.799Y-127.617
X158.85Y-75.85
X159.175Y-86.29
X159.182Y-123.725
X159.254Y-118.15
X159.312Y-101.662
X159.326Y-106.801
X159.33Y-98.611
X159.475Y-112.7
X159.524Y-76.576
X159.677Y-97.4
X159.809Y-92.392
X159.876Y-109.675
X160.0Y-88.6
X160.0Y-102.9
X160.074Y-104.774
X160.2Y-86.114
X160.2Y-93.575
X160.275Y-84.775
X160.3Y-117.5
X160.45Y-81.9
X160.451Y-108.249
X160.486Y-91.966
X160.6Y-119.35
X160.625Y-71.884
X160.78Y-85.514
X160.867Y-84.1
X160.925Y-109.875
X160.95Y-94.375
X160.95Y-96.8
X161.0Y-102.188
X161.025Y-101.12
X161.1Y-98.9
X161.15Y-72.488
X161.4Y-81.15
X161.625Y-96.8
X161.65Y-95.6
X161.675Y-78.05
X161.675Y-124.35
X161.999Y-84.812
X162.075Y-79.851
X162.076Y-119.924
X162.2Y-102.075
X162.225Y-98.3
X162.225Y-101.05
X162.275Y-110.3
X162.28Y-77.277
X162.303Y-92.565
X162.4Y-93.825
X162.461Y-85.465
X162.5Y-63.0
X162.5Y-84.1
X162.7Y-116.5
X162.825Y-97.645
X163.0Y-79.775
X163.056Y-86.0
X163.1Y-92.5
X163.176Y-91.624
X163.5Y-78.125
X163.65Y-100.95
X163.8Y-111.7
X163.912Y-97.04
X164.0Y-84.6
X164.0Y-94.5
X164.045Y-118.65
X164.25Y-97.769
X164.3Y-114.35
X164.612Y-119.887
X164.65Y-80.875
X164.65Y-91.85
X164.8Y-126.2
X165.036Y-97.92
X165.1Y-83.3
X165.1Y-99.47
X165.251Y-96.001
X165.4Y-71.825
X165.43Y-119.9
X165.5Y-86.5
X165.68Y-93.57
X165.7Y-81.0
X165.774Y-126.326
X165.8Y-101.525
X165.942Y-100.325
X166.0Y-75.925
X166.0Y-107.9
X166.5Y-76.7
X166.623Y-98.875
X166.65Y-115.438
X166.75Y-94.175
X166.752Y-98.086
X166.775Y-100.275
X166.802Y-96.275
X167.57Y-96.05
X167.83Y-85.6
X167.9Y-114.7
X167.906Y-90.175
X167.975Y-113.275
X168.04Y-92.63
X168.17Y-94.725
X168.45Y-95.85
X168.543Y-89.691
X168.875Y-99.55
X169.1Y-112.55
X169.1Y-117.1
X169.308Y-98.017
X169.35Y-84.95
X169.35Y-86.65
X169.35Y-91.75
X169.725Y-106.2
X170.2Y-124.5
X170.3Y-84.05
X170.4Y-95.25
X170.425Y-80.1
X170.475Y-99.028
X170.65Y-101.175
X170.9Y-122.2
X171.15Y-111.175
X171.179Y-92.362
X171.374Y-84.276
X171.625Y-111.85
X171.85Y-106.325
X171.922Y-101.169
X172.05Y-80.1
X172.05Y-107.3
X172.052Y-84.701
X172.1Y-94.45
X172.316Y-101.866
X172.35Y-103.87
X172.45Y-98.964
X172.522Y-111.802
X172.63Y-110.44
X172.8Y-68.05
X172.95Y-99.65
X172.95Y-104.7
X172.95Y-106.7
X172.975Y-109.2
X173.0Y-93.65
X173.036Y-97.837
X173.05Y-80.1
X173.05Y-85.15
X173.675Y-92.325
X173.75Y-105.0
X173.75Y-106.7
X173.776Y-99.426
X173.8Y-97.6
X174.0Y-67.8
X174.2Y-125.3
X174.35Y-68.55
X174.397Y-80.075
X174.4Y-70.05
X174.65Y-97.225
X175.0Y-102.45
X175.15Y-83.6
X175.175Y-91.325
X175.3Y-110.9
X175.35Y-123.05
X175.4Y-112.3
X175.5Y-95.35
X175.55Y-80.15
X175.55Y-98.575
X177.85Y-65.0
X177.95Y-80.325
X177.95Y-83.625
X178.05Y-95.35
X178.5Y-101.3
X178.5Y-118.6
X178.626Y-98.924
X178.65Y-63.15
X179.049Y-97.651
X179.6Y-86.65
X179.7Y-90.35
X179.7Y-96.2
X179.9Y-107.25
X180.5Y-90.3
X180.6Y-104.95
X180.8Y-125.3
X181.3Y-93.925
X181.5Y-89.199
X181.575Y-91.769
X181.609Y-87.069
X181.9Y-98.1
X181.924Y-100.526
X182.451Y-88.121
X182.525Y-103.05
X182.825Y-100.425
X183.0Y-119.5
X183.24Y-103.71
X183.35Y-83.25
X183.35Y-90.9
X183.35Y-91.75
X183.6Y-96.85
X183.76Y-100.68
X184.55Y-105.9
X184.65Y-94.05
X184.925Y-79.075
X185.15Y-99.4
X185.475Y-116.275
X185.5Y-106.6
X185.575Y-98.15
X185.83Y-99.84
X186.476Y-92.0
X186.575Y-93.2
X186.6Y-90.25
X186.675Y-86.4
X187.1Y-105.4
X187.15Y-108.5
X187.156Y-98.15
X187.4Y-94.45
X187.4Y-101.7
X187.65Y-93.25
X187.775Y-88.9
X188.0Y-92.0
X188.7Y-94.05
X188.98Y-98.11
X189.2Y-107.875
X189.475Y-84.075
X189.5Y-75.175
X189.5Y-85.5
X189.6Y-99.35
X190.075Y-78.05
X190.15Y-94.35
X190.15Y-101.3
X190.175Y-90.05
X190.8Y-108.975
X190.85Y-105.7
X191.012Y-88.721
X191.05Y-110.075
X191.25Y-99.4
X191.325Y-93.275
X192.0Y-65.0
X192.5Y-100.6
X192.55Y-88.95
X192.55Y-90.85
X192.875Y-72.675
X192.975Y-90.125
X192.996Y-120.629
X193.45Y-106.2
X194.05Y-58.95
X194.4Y-84.075
X194.675Y-90.75
X194.8Y-72.675
X195.2Y-101.3
X195.25Y-104.65
X195.575Y-86.375
X195.775Y-88.125
X196.2Y-98.85
X196.66Y-92.31
X197.15Y-107.35
X198.75Y-116.3
X199.15Y-100.2
X199.156Y-98.544
X200.55Y-101.3
X200.75Y-92.15
X201.175Y-81.35
X201.425Y-106.575
X201.6Y-100.1
X202.2Y-101.3
X202.2Y-105.8
X202.6Y-88.7
X202.65Y-92.05
T3
X119.08Y-92.05
X121.62Y-92.05
X151.75Y-82.05
X153.5Y-87.8
X154.29Y-82.05
X156.04Y-87.8
X161.5Y-88.5
X164.04Y-88.5
T4
X118.335Y-61.575
X119.605Y-61.575
X120.875Y-61.575
X122.145Y-61.575
T5
X122.59Y-70.05
X125.13Y-70.05
X127.67Y-70.05
X130.21Y-70.05
X132.75Y-70.05
X135.29Y-70.05
X137.83Y-70.05
X140.37Y-70.05
X185.73Y-118.775
X188.27Y-118.775
X190.81Y-118.775
X192.92Y-94.0
X192.92Y-96.54
X193.35Y-118.775
X195.46Y-94.0
X195.46Y-96.54
X198.0Y-94.0
X198.0Y-96.54
X198.07Y-118.8
X198.1Y-61.8
X198.1Y-64.34
X198.1Y-66.88
X198.1Y-69.42
X198.1Y-71.96
X198.1Y-74.5
X198.1Y-78.225
X198.1Y-80.765
X198.1Y-83.305
X198.1Y-85.845
X198.1Y-88.385
X198.1Y-90.925
X200.54Y-94.0
X200.54Y-96.54
X200.61Y-118.8
X203.15Y-118.8
T6
X100.75Y-60.75
X100.75Y-65.25
X100.75Y-75.75
X100.75Y-80.25
X100.75Y-87.75
X100.75Y-92.25
X100.75Y-100.25
X100.75Y-104.75
X107.25Y-60.75
X107.25Y-65.25
X107.25Y-75.75
X107.25Y-80.25
X107.25Y-87.75
X107.25Y-92.25
X107.25Y-100.25
X107.25Y-104.75
X145.75Y-60.75
X145.75Y-65.25
X152.25Y-60.75
X152.25Y-65.25
X157.25Y-60.75
X157.25Y-65.25
X163.75Y-60.75
X163.75Y-65.25
T2
G00X160.38Y-121.445
M15
G01X160.38Y-122.545
M16
G05
G00X160.38Y-125.775
M15
G01X160.38Y-126.575
M16
G05
G00X169.02Y-121.445
M15
G01X169.02Y-122.545
M16
G05
G00X169.02Y-125.775
M15
G01X169.02Y-126.575
M16
G05
G00X173.25Y-121.47
M15
G01X173.25Y-122.57
M16
G05
G00X173.25Y-125.8
M15
G01X173.25Y-126.6
M16
G05
G00X181.89Y-121.47
M15
G01X181.89Y-122.57
M16
G05
G00X181.89Y-125.8
M15
G01X181.89Y-126.6
M16
G05
M30
